SplineFontDB: 3.2
FontName: Chilanka-Regular
FullName: Chilanka Regular
FamilyName: Chilanka
Weight: Book
Copyright: Copyright 2014 The Chilanka Project Authors (http://smc.org.in)
Version: 1.2.0+20171102
ItalicAngle: 0
UnderlinePosition: -700
UnderlineWidth: 100
Ascent: 1638
Descent: 410
InvalidEm: 0
sfntRevision: 0x00013333
LayerCount: 2
Layer: 0 1 "Back" 1
Layer: 1 1 "Fore" 0
XUID: [1021 932 104922554 14527809]
StyleMap: 0x0040
FSType: 0
OS2Version: 4
OS2_WeightWidthSlopeOnly: 0
OS2_UseTypoMetrics: 1
CreationTime: 1201144287
ModificationTime: 1591626517
PfmFamily: 17
TTFWeight: 400
TTFWidth: 5
LineGap: 0
VLineGap: 0
Panose: 2 0 5 3 0 0 0 0 0 0
OS2TypoAscent: 1500
OS2TypoAOffset: 0
OS2TypoDescent: -750
OS2TypoDOffset: 0
OS2TypoLinegap: 0
OS2WinAscent: 1500
OS2WinAOffset: 0
OS2WinDescent: 750
OS2WinDOffset: 0
HheadAscent: 1500
HheadAOffset: 0
HheadDescent: -750
HheadDOffset: 0
OS2SubXSize: 1327
OS2SubYSize: 1225
OS2SubXOff: 0
OS2SubYOff: 150
OS2SupXSize: 1327
OS2SupYSize: 1427
OS2SupXOff: 0
OS2SupYOff: 977
OS2StrikeYSize: 98
OS2StrikeYPos: 512
OS2CapHeight: 1400
OS2XHeight: 1000
OS2Vendor: 'SMC '
OS2CodePages: 00000001.00000000
OS2UnicodeRanges: 80800003.00002000.00000000.00000000
Lookup: 4 0 0 "'pref' Pre Base Forms in Malay+AQEA-lam2 lookup 0" { "'pref' Pre Base Forms in Malay+AQEA-lam2 lookup 0 subtable"  } ['pref' ('mlm2' <'dflt' > ) ]
Lookup: 4 0 0 "'akhn' Akhand lookup 1" { "'akhn' Akhand lookup 1 subtable"  } ['akhn' ('mlm2' <'dflt' > 'mlym' <'dflt' > ) ]
Lookup: 4 0 0 "'akhn' Akhand lookup 2" { "'akhn' Akhand lookup 2 subtable"  } ['akhn' ('mlm2' <'dflt' > 'mlym' <'dflt' > ) ]

StartChar: .notdef
Encoding: 65536 -1 0
Width: 692
GlyphClass: 2
Flags: W
LayerCount: 2
Fore
SplineSet
45 1 m 1,0,-1
 45 1119 l 1,1,-1
 606 1119 l 1,2,-1
 606 1 l 1,3,-1
 45 1 l 1,0,-1
102 55 m 1,4,-1
 552 55 l 1,5,-1
 552 1063 l 1,6,-1
 102 1063 l 1,7,-1
 102 55 l 1,4,-1
EndSplineSet
EndChar

StartChar: exclam
Encoding: 33 33 4
Width: 409
GlyphClass: 2
Flags: W
LayerCount: 2
Fore
SplineSet
128 1163 m 0,0,1
 134 1219 134 1219 188 1228 c 0,2,3
 212 1231 212 1231 233.5 1214.5 c 128,-1,4
 255 1198 255 1198 259 1171 c 0,5,6
 311 828 311 828 292 434 c 0,7,8
 290 421 290 421 292 399 c 0,9,10
 296 360 296 360 278 302 c 0,11,12
 260 249 260 249 195 253 c 0,13,14
 113 259 113 259 106 371 c 0,15,16
 105 388 105 388 105 411 c 2,17,-1
 105 442 l 1,18,19
 79 683 79 683 128 1163 c 0,0,1
125 11 m 0,20,21
 147 66 147 66 170 80 c 128,-1,22
 193 94 193 94 219.5 87 c 128,-1,23
 246 80 246 80 260 58 c 0,24,25
 341 -77 341 -77 303 -171 c 0,26,27
 288 -208 288 -208 250.5 -224 c 128,-1,28
 213 -240 213 -240 178 -225.5 c 128,-1,29
 143 -211 143 -211 124 -182 c 0,30,31
 77 -109 77 -109 125 11 c 0,20,21
EndSplineSet
EndChar

StartChar: numbersign
Encoding: 35 35 6
Width: 1590
GlyphClass: 2
Flags: W
LayerCount: 2
Fore
SplineSet
100 376.5 m 128,-1,1
 100 403 100 403 119 422.5 c 128,-1,2
 138 442 138 442 165 442 c 2,3,-1
 422 442 l 1,4,-1
 566 843 l 1,5,-1
 312 843 l 2,6,7
 285 843 285 843 266 862.5 c 128,-1,8
 247 882 247 882 247 908.5 c 128,-1,9
 247 935 247 935 266 954 c 128,-1,10
 285 973 285 973 312 973 c 2,11,-1
 613 973 l 1,12,-1
 720 1272 l 2,13,14
 742 1333 742 1333 785 1317 c 0,15,16
 864 1289 864 1289 842 1228 c 2,17,-1
 751 973 l 1,18,-1
 1149 973 l 1,19,-1
 1259 1271 l 2,20,21
 1282 1332 1282 1332 1325 1316 c 0,22,23
 1404 1287 1404 1287 1381 1226 c 2,24,-1
 1288 973 l 1,25,-1
 1425 973 l 2,26,27
 1452 973 1452 973 1471 954 c 128,-1,28
 1490 935 1490 935 1490 908.5 c 128,-1,29
 1490 882 1490 882 1471 862.5 c 128,-1,30
 1452 843 1452 843 1425 843 c 2,31,-1
 1240 843 l 1,32,-1
 1092 442 l 1,33,-1
 1398 442 l 2,34,35
 1424 442 1424 442 1443.5 422.5 c 128,-1,36
 1463 403 1463 403 1463 376.5 c 128,-1,37
 1463 350 1463 350 1443.5 331 c 128,-1,38
 1424 312 1424 312 1398 312 c 2,39,-1
 1044 312 l 1,40,-1
 929 -1 l 2,41,42
 906 -62 906 -62 863 -46 c 0,43,44
 784 -17 784 -17 807 44 c 2,45,-1
 905 312 l 1,46,-1
 513 312 l 1,47,-1
 407 16 l 2,48,49
 385 -46 385 -46 341 -30 c 0,50,51
 262 -2 262 -2 284 60 c 2,52,-1
 375 312 l 1,53,-1
 165 312 l 2,54,55
 138 312 138 312 119 331 c 128,-1,0
 100 350 100 350 100 376.5 c 128,-1,1
953 442 m 1,56,-1
 1101 843 l 1,57,-1
 704 843 l 1,58,-1
 560 442 l 1,59,-1
 953 442 l 1,56,-1
EndSplineSet
EndChar

StartChar: dollar
Encoding: 36 36 7
Width: 1316
GlyphClass: 2
Flags: W
LayerCount: 2
Fore
SplineSet
1033 996 m 128,-1,1
 994 944 994 944 942 983 c 0,2,3
 810 1083 810 1083 656 1135 c 1,4,5
 655 964 655 964 654 793 c 1,6,7
 659 792 659 792 711 789 c 0,8,9
 1117 767 1117 767 1199 489 c 0,10,11
 1249 320 1249 320 1158 155 c 0,12,13
 1046 -49 1046 -49 812 -115 c 0,14,15
 730 -138 730 -138 650 -137 c 1,16,-1
 649 -281 l 2,17,18
 649 -308 649 -308 629.5 -327 c 128,-1,19
 610 -346 610 -346 583.5 -346 c 128,-1,20
 557 -346 557 -346 538 -326.5 c 128,-1,21
 519 -307 519 -307 520 -122 c 1,22,23
 391 -91 391 -91 282 -1 c 128,-1,24
 173 89 173 89 119 218 c 0,25,26
 94 278 94 278 153.5 303.5 c 128,-1,27
 213 329 213 329 239 269 c 0,28,29
 320 76 320 76 520 13 c 1,30,31
 522 343 522 343 524 672 c 1,32,33
 328 693 328 693 238 771 c 0,34,35
 51 930 51 930 118 1114 c 0,36,37
 169 1255 169 1255 335 1296 c 0,38,39
 419 1316 419 1316 527 1300 c 1,40,41
 527 1330 527 1330 527 1358 c 128,-1,42
 527 1386 527 1386 546.5 1405 c 128,-1,43
 566 1424 566 1424 592.5 1424 c 128,-1,44
 619 1424 619 1424 638 1404.5 c 128,-1,45
 657 1385 657 1385 657 1359 c 2,46,-1
 657 1271 l 1,47,48
 854 1213 854 1213 1020 1087 c 0,49,0
 1072 1048 1072 1048 1033 996 c 128,-1,1
526 1169 m 1,50,51
 369 1197 369 1197 288 1133.5 c 128,-1,52
 207 1070 207 1070 232.5 997 c 128,-1,53
 258 924 258 924 318 872.5 c 128,-1,54
 378 821 378 821 524 803 c 1,55,-1
 526 1169 l 1,50,51
650 -7 m 1,56,57
 834 -8 834 -8 965 115 c 0,58,59
 1128 269 1128 269 1074 452 c 0,60,61
 1018 642 1018 642 703 660 c 0,62,63
 655 662 655 662 654 663 c 1,64,65
 652 328 652 328 650 -7 c 1,56,57
EndSplineSet
EndChar

StartChar: percent
Encoding: 37 37 8
Width: 1237
GlyphClass: 2
Flags: W
LayerCount: 2
Fore
SplineSet
438 1266 m 1,0,1
 524 1328 524 1328 597 1115 c 1,2,-1
 942 1280 l 2,3,4
 1001 1308 1001 1308 1022.5 1262.5 c 128,-1,5
 1044 1217 1044 1217 1025 1187 c 2,6,-1
 464 282 l 1,7,-1
 669 441 l 2,8,9
 717 477 717 477 758 432 c 1,10,11
 781 441 781 441 857 416 c 0,12,13
 1066 345 1066 345 1118.5 217.5 c 128,-1,14
 1171 90 1171 90 1080 6 c 128,-1,15
 989 -78 989 -78 858 -90 c 128,-1,16
 727 -102 727 -102 653.5 -11.5 c 128,-1,17
 580 79 580 79 596 220 c 1,18,-1
 259 -41 l 2,19,20
 224 -69 224 -69 176.5 -40 c 128,-1,21
 129 -11 129 -11 164 44 c 2,22,-1
 798 1067 l 1,23,-1
 652 997 l 2,24,25
 634 989 634 989 617 983 c 1,26,27
 609 882 609 882 551 833 c 0,28,29
 394 702 394 702 218 787 c 0,30,31
 101 843 101 843 100 946 c 0,32,33
 99 1120 99 1120 336 1301 c 0,34,35
 387 1340 387 1340 427 1288 c 0,36,37
 434 1279 434 1279 438 1266 c 1,0,1
487 995 m 1,38,39
 411 1046 411 1046 410 1194 c 1,40,41
 126 975 126 975 275 904 c 0,42,43
 331 877 331 877 382 890 c 0,44,45
 483 916 483 916 487 995 c 1,38,39
751 316 m 1,46,47
 694 144 694 144 739 89 c 128,-1,48
 784 34 784 34 858.5 40.5 c 128,-1,49
 933 47 933 47 977 87.5 c 128,-1,50
 1021 128 1021 128 1005 161 c 0,51,52
 966 242 966 242 763 310 c 0,53,54
 757 312 757 312 751 316 c 1,46,47
EndSplineSet
EndChar

StartChar: ampersand
Encoding: 38 38 9
Width: 1289
GlyphClass: 2
Flags: W
LayerCount: 2
Fore
SplineSet
1145 629 m 128,-1,1
 1206 607 1206 607 1184 545 c 0,2,3
 1128 392 1128 392 994 267 c 1,4,5
 1100 150 1100 150 1091.5 113 c 128,-1,6
 1083 76 1083 76 1044 52 c 128,-1,7
 1005 28 1005 28 972 81.5 c 128,-1,8
 939 135 939 135 893 184 c 1,9,10
 715 56 715 56 517 17 c 128,-1,11
 319 -22 319 -22 208 76.5 c 128,-1,12
 97 175 97 175 177 393 c 0,13,14
 210 481 210 481 268 543.5 c 128,-1,15
 326 606 326 606 327 607 c 1,16,17
 177 736 177 736 139 842 c 0,18,19
 64 1054 64 1054 133 1180.5 c 128,-1,20
 202 1307 202 1307 357 1325 c 128,-1,21
 512 1343 512 1343 646 1274 c 128,-1,22
 780 1205 780 1205 810 1082 c 0,23,24
 854 903 854 903 639 724 c 0,25,26
 580 674 580 674 524 622 c 1,27,28
 566 593 566 593 691 511.5 c 128,-1,29
 816 430 816 430 900 357 c 1,30,31
 1016 464 1016 464 1062 590 c 0,32,0
 1084 651 1084 651 1145 629 c 128,-1,1
796 275 m 1,33,34
 716 340 716 340 600 415.5 c 128,-1,35
 484 491 484 491 431 528 c 1,36,37
 324 415 324 415 287 314.5 c 128,-1,38
 250 214 250 214 303.5 166 c 128,-1,39
 357 118 357 118 504 147 c 128,-1,40
 651 176 651 176 796 275 c 1,33,34
419 701 m 1,41,42
 484 764 484 764 556 824 c 0,43,44
 708 951 708 951 688 1033.5 c 128,-1,45
 668 1116 668 1116 578 1162.5 c 128,-1,46
 488 1209 488 1209 386 1197 c 0,47,48
 226 1179 226 1179 230 1033 c 0,49,50
 233 913 233 913 291 836 c 128,-1,51
 349 759 349 759 419 701 c 1,41,42
EndSplineSet
EndChar

StartChar: quotesingle
Encoding: 39 39 10
Width: 368
GlyphClass: 2
Flags: W
LayerCount: 2
Fore
SplineSet
203.5 954 m 128,-1,1
 180 941 180 941 148.5 949.5 c 128,-1,2
 117 958 117 958 105 1006 c 0,3,4
 50 1234 50 1234 101 1335 c 0,5,6
 142 1416 142 1416 215 1375 c 0,7,8
 325 1315 325 1315 234 993 c 0,9,0
 227 967 227 967 203.5 954 c 128,-1,1
EndSplineSet
EndChar

StartChar: parenleft
Encoding: 40 40 11
Width: 721
GlyphClass: 2
Flags: W
LayerCount: 2
Fore
SplineSet
569 1369 m 0,0,1
 618 1327 618 1327 562 1262 c 0,2,3
 331 998 331 998 264 769 c 128,-1,4
 197 540 197 540 245 368 c 0,5,6
 336 39 336 39 601 -251 c 0,7,8
 645 -300 645 -300 597 -343.5 c 128,-1,9
 549 -387 549 -387 505 -339 c 0,10,11
 -219 454 -219 454 351 1209 c 0,12,13
 482 1382 482 1382 516 1384.5 c 128,-1,14
 550 1387 550 1387 569 1369 c 0,0,1
EndSplineSet
EndChar

StartChar: parenright
Encoding: 41 41 12
Width: 721
GlyphClass: 2
Flags: W
LayerCount: 2
Fore
SplineSet
152 1369 m 4,0,1
 172 1387 172 1387 205.5 1384.5 c 132,-1,2
 239 1382 239 1382 371 1209 c 4,3,4
 941 454 941 454 217 -339 c 4,5,6
 173 -387 173 -387 125 -343.5 c 132,-1,7
 77 -300 77 -300 121 -251 c 4,8,9
 386 39 386 39 477 368 c 4,10,11
 525 540 525 540 458 769 c 132,-1,12
 391 998 391 998 160 1262 c 4,13,14
 103 1327 103 1327 152 1369 c 4,0,1
EndSplineSet
EndChar

StartChar: asterisk
Encoding: 42 42 13
Width: 1182
GlyphClass: 2
Flags: W
LayerCount: 2
Fore
SplineSet
258 598.5 m 128,-1,1
 239 617 239 617 239 644.5 c 128,-1,2
 239 672 239 672 258 691 c 2,3,-1
 486 919 l 1,4,-1
 137 1035 l 2,5,6
 112 1043 112 1043 99.5 1067.5 c 128,-1,7
 87 1092 87 1092 95.5 1117 c 128,-1,8
 104 1142 104 1142 128.5 1154.5 c 128,-1,9
 153 1167 153 1167 178 1158 c 2,10,-1
 524 1043 l 1,11,-1
 524 1353 l 2,12,13
 524 1386 524 1386 544.5 1406 c 128,-1,14
 565 1426 565 1426 592 1426 c 128,-1,15
 619 1426 619 1426 638 1407 c 128,-1,16
 657 1388 657 1388 657 1361 c 2,17,-1
 657 1051 l 1,18,-1
 1003 1166 l 2,19,20
 1028 1174 1028 1174 1052.5 1162 c 128,-1,21
 1077 1150 1077 1150 1085.5 1125 c 128,-1,22
 1094 1100 1094 1100 1081.5 1075.5 c 128,-1,23
 1069 1051 1069 1051 1044 1043 c 2,24,-1
 691 925 l 1,25,-1
 926 691 l 2,26,27
 945 672 945 672 944.5 644.5 c 128,-1,28
 944 617 944 617 925.5 598.5 c 128,-1,29
 907 580 907 580 880 580 c 128,-1,30
 853 580 853 580 834 599 c 2,31,-1
 592 841 l 1,32,-1
 350 599 l 2,33,34
 331 580 331 580 304 580 c 128,-1,0
 277 580 277 580 258 598.5 c 128,-1,1
EndSplineSet
EndChar

StartChar: plus
Encoding: 43 43 14
Width: 1408
GlyphClass: 2
Flags: W
LayerCount: 2
Fore
SplineSet
1308 636.5 m 128,-1,1
 1308 610 1308 610 1289 590.5 c 128,-1,2
 1270 571 1270 571 1243 571 c 2,3,-1
 805 571 l 1,4,-1
 805 -8 l 2,5,6
 805 -35 805 -35 786 -54 c 128,-1,7
 767 -73 767 -73 740 -73 c 128,-1,8
 713 -73 713 -73 694 -54 c 128,-1,9
 675 -35 675 -35 675 -8 c 2,10,-1
 675 571 l 1,11,-1
 165 571 l 2,12,13
 138 571 138 571 119 590.5 c 128,-1,14
 100 610 100 610 100 636.5 c 128,-1,15
 100 663 100 663 119 682 c 128,-1,16
 138 701 138 701 165 701 c 2,17,-1
 675 701 l 1,18,-1
 675 1204 l 2,19,20
 675 1230 675 1230 694 1249.5 c 128,-1,21
 713 1269 713 1269 740 1269 c 128,-1,22
 767 1269 767 1269 786 1249.5 c 128,-1,23
 805 1230 805 1230 805 1204 c 2,24,-1
 805 701 l 1,25,-1
 1243 701 l 2,26,27
 1270 701 1270 701 1289 682 c 128,-1,0
 1308 663 1308 663 1308 636.5 c 128,-1,1
EndSplineSet
EndChar

StartChar: comma
Encoding: 44 44 15
Width: 445
GlyphClass: 2
Flags: W
LayerCount: 2
Fore
SplineSet
234 -364 m 0,0,1
 207 -410 207 -410 154 -392 c 0,2,3
 131 -384 131 -384 119 -359.5 c 128,-1,4
 107 -335 107 -335 125 -284 c 0,5,6
 154 -202 154 -202 111 -67 c 0,7,8
 69 69 69 69 168 140 c 0,9,10
 201 164 201 164 243 157 c 0,11,12
 321 144 321 144 338 54.5 c 128,-1,13
 355 -35 355 -35 323 -148.5 c 128,-1,14
 291 -262 291 -262 267 -309 c 128,-1,15
 243 -356 243 -356 234 -364 c 0,0,1
EndSplineSet
EndChar

StartChar: hyphen
Encoding: 45 45 16
Width: 783
GlyphClass: 2
Flags: W
LayerCount: 2
Fore
SplineSet
107 490 m 128,-1,1
 107 517 107 517 126 536 c 128,-1,2
 145 555 145 555 172 555 c 2,3,-1
 613 555 l 2,4,5
 640 555 640 555 659 536 c 128,-1,6
 678 517 678 517 678 490 c 128,-1,7
 678 463 678 463 659 444 c 128,-1,8
 640 425 640 425 613 425 c 2,9,-1
 172 425 l 2,10,11
 145 425 145 425 126 444 c 128,-1,0
 107 463 107 463 107 490 c 128,-1,1
EndSplineSet
EndChar

StartChar: period
Encoding: 46 46 17
Width: 422
GlyphClass: 2
Flags: W
LayerCount: 2
Fore
SplineSet
100 89 m 128,-1,1
 99 115 99 115 107.5 150.5 c 128,-1,2
 116 186 116 186 145.5 228.5 c 128,-1,3
 175 271 175 271 207 266 c 0,4,5
 258 258 258 258 294 184 c 128,-1,6
 330 110 330 110 319 66.5 c 128,-1,7
 308 23 308 23 281 1.5 c 128,-1,8
 254 -20 254 -20 218 -21.5 c 128,-1,9
 182 -23 182 -23 155 -6 c 128,-1,10
 128 11 128 11 114.5 37 c 128,-1,0
 101 63 101 63 100 89 c 128,-1,1
EndSplineSet
EndChar

StartChar: slash
Encoding: 47 47 18
Width: 1039
GlyphClass: 2
Flags: W
LayerCount: 2
Fore
SplineSet
901 1398 m 128,-1,1
 925 1387 925 1387 935 1361 c 128,-1,2
 945 1335 945 1335 933 1312 c 2,3,-1
 224 -140 l 2,4,5
 212 -164 212 -164 187 -173 c 128,-1,6
 162 -182 162 -182 138 -170.5 c 128,-1,7
 114 -159 114 -159 104.5 -133.5 c 128,-1,8
 95 -108 95 -108 107 -84 c 2,9,-1
 815 1367 l 2,10,11
 827 1391 827 1391 852 1400 c 128,-1,0
 877 1409 877 1409 901 1398 c 128,-1,1
EndSplineSet
EndChar

StartChar: zero
Encoding: 48 48 19
Width: 1144
GlyphClass: 2
Flags: W
LayerCount: 2
Fore
SplineSet
656 1225 m 1,0,1
 838 1192 838 1192 951.5 954.5 c 128,-1,2
 1065 717 1065 717 1044.5 496 c 128,-1,3
 1024 275 1024 275 947 183 c 0,4,5
 811 19 811 19 609 18 c 0,6,7
 319 16 319 16 178 325 c 0,8,9
 87 527 87 527 102 775 c 128,-1,10
 117 1023 117 1023 214 1151 c 0,11,12
 387 1380 387 1380 632 1345 c 0,13,14
 658 1341 658 1341 675 1320 c 0,15,16
 717 1263 717 1263 656 1225 c 1,0,1
585 1220 m 1,17,18
 436 1230 436 1230 340.5 1103 c 128,-1,19
 245 976 245 976 232 763.5 c 128,-1,20
 219 551 219 551 296 382 c 0,21,22
 403 146 403 146 605 147.5 c 128,-1,23
 807 149 807 149 879 333 c 128,-1,24
 951 517 951 517 887 755.5 c 128,-1,25
 823 994 823 994 692 1074 c 0,26,27
 654 1097 654 1097 622 1099 c 0,28,29
 551 1103 551 1103 554 1167 c 0,30,31
 556 1202 556 1202 585 1220 c 1,17,18
EndSplineSet
EndChar

StartChar: one
Encoding: 49 49 20
Width: 476
GlyphClass: 2
Flags: W
LayerCount: 2
Fore
SplineSet
102.5 1288.5 m 128,-1,1
 95 1314 95 1314 111 1341.5 c 128,-1,2
 127 1369 127 1369 161 1372 c 128,-1,3
 195 1375 195 1375 221.5 1368.5 c 128,-1,4
 248 1362 248 1362 274 1339 c 0,5,6
 320 1296 320 1296 338.5 1219 c 128,-1,7
 357 1142 357 1142 366 1030 c 0,8,9
 390 712 390 712 358 379 c 2,10,-1
 326 52 l 2,11,12
 323 25 323 25 302 8 c 128,-1,13
 281 -9 281 -9 254.5 -6.5 c 128,-1,14
 228 -4 228 -4 211 17 c 128,-1,15
 194 38 194 38 196 64 c 2,16,-1
 228 392 l 2,17,18
 260 714 260 714 236 1020 c 0,19,20
 227 1146 227 1146 207 1195.5 c 128,-1,21
 187 1245 187 1245 182 1243 c 0,22,23
 157 1236 157 1236 133.5 1249.5 c 128,-1,0
 110 1263 110 1263 102.5 1288.5 c 128,-1,1
EndSplineSet
EndChar

StartChar: two
Encoding: 50 50 21
Width: 1331
GlyphClass: 2
Flags: W
LayerCount: 2
Fore
SplineSet
122.5 1032 m 128,-1,1
 73 1074 73 1074 115 1123 c 0,2,3
 314 1358 314 1358 514.5 1374 c 128,-1,4
 715 1390 715 1390 834.5 1282 c 128,-1,5
 954 1174 954 1174 965.5 1034.5 c 128,-1,6
 977 895 977 895 906 779 c 0,7,8
 744 516 744 516 439 185 c 1,9,10
 596 216 596 216 811.5 182.5 c 128,-1,11
 1027 149 1027 149 1117.5 179 c 128,-1,12
 1208 209 1208 209 1228 147 c 128,-1,13
 1248 85 1248 85 1183 64 c 0,14,15
 1058 23 1058 23 957 33.5 c 128,-1,16
 856 44 856 44 673.5 72.5 c 128,-1,17
 491 101 491 101 270 -3 c 0,18,19
 193 -40 193 -40 167 -14 c 0,20,21
 115 40 115 40 161 85 c 2,22,-1
 203 126 l 2,23,24
 559 474 559 474 798 849 c 0,25,26
 844 927 844 927 836.5 1019.5 c 128,-1,27
 829 1112 829 1112 749 1184 c 128,-1,28
 669 1256 669 1256 524 1244.5 c 128,-1,29
 379 1233 379 1233 214 1039 c 0,30,0
 172 990 172 990 122.5 1032 c 128,-1,1
EndSplineSet
EndChar

StartChar: three
Encoding: 51 51 22
Width: 1181
GlyphClass: 2
Flags: W
LayerCount: 2
Fore
SplineSet
147.5 1021.5 m 128,-1,1
 129 1041 129 1041 129.5 1068 c 128,-1,2
 130 1095 130 1095 149 1114 c 0,3,4
 403 1358 403 1358 629 1377 c 0,5,6
 805 1392 805 1392 902 1275 c 128,-1,7
 999 1158 999 1158 971 985 c 128,-1,8
 943 812 943 812 795 656 c 1,9,10
 852 645 852 645 903 613 c 0,11,12
 1017 543 1017 543 1062.5 404 c 128,-1,13
 1108 265 1108 265 1047 146 c 0,14,15
 971 -2 971 -2 775 -15 c 0,16,17
 523 -33 523 -33 132 193 c 0,18,19
 109 206 109 206 102 232.5 c 128,-1,20
 95 259 95 259 108.5 282 c 128,-1,21
 122 305 122 305 148.5 312 c 128,-1,22
 175 319 175 319 198 305 c 0,23,24
 554 99 554 99 766 114 c 0,25,26
 889 123 889 123 928.5 199.5 c 128,-1,27
 968 276 968 276 938.5 366.5 c 128,-1,28
 909 457 909 457 835 502 c 0,29,30
 737 562 737 562 603 499 c 0,31,32
 581 488 581 488 557.5 495 c 128,-1,33
 534 502 534 502 520 523 c 128,-1,34
 506 544 506 544 511.5 570.5 c 128,-1,35
 517 597 517 597 539 612 c 0,36,37
 611 659 611 659 667 712 c 0,38,39
 818 854 818 854 843 1008 c 0,40,41
 861 1120 861 1120 805 1189 c 0,42,43
 748 1256 748 1256 640 1247 c 0,44,45
 460 1231 460 1231 239 1020 c 0,46,47
 220 1002 220 1002 193 1002 c 128,-1,0
 166 1002 166 1002 147.5 1021.5 c 128,-1,1
EndSplineSet
EndChar

StartChar: four
Encoding: 52 52 23
Width: 1496
GlyphClass: 2
Flags: W
LayerCount: 2
Fore
SplineSet
757.5 1104 m 128,-1,1
 784 1104 784 1104 803 1085 c 128,-1,2
 822 1066 822 1066 822 1039 c 2,3,-1
 822 723 l 1,4,5
 1213 771 1213 771 1282 744 c 0,6,7
 1393 701 1393 701 1396 624 c 0,8,9
 1397 597 1397 597 1378.5 577 c 128,-1,10
 1360 557 1360 557 1335 556 c 0,11,12
 1280 554 1280 554 1268 608 c 1,13,14
 1200 639 1200 639 822 592 c 1,15,-1
 822 89 l 2,16,17
 822 62 822 62 803 43 c 128,-1,18
 784 24 784 24 757.5 24 c 128,-1,19
 731 24 731 24 711.5 43.5 c 128,-1,20
 692 63 692 63 692 89 c 2,21,-1
 692 575 l 1,22,23
 371 529 371 529 285.5 538.5 c 128,-1,24
 200 548 200 548 166 561 c 0,25,26
 91 592 91 592 98.5 655.5 c 128,-1,27
 106 719 106 719 152 773 c 0,28,29
 348 1003 348 1003 399.5 1070.5 c 128,-1,30
 451 1138 451 1138 572 1317 c 0,31,32
 608 1371 608 1371 646 1346 c 0,33,34
 716 1299 716 1299 680 1245 c 0,35,36
 557 1062 557 1062 502.5 991.5 c 128,-1,37
 448 921 448 921 346 801.5 c 128,-1,38
 244 682 244 682 240 675 c 1,39,40
 324 658 324 658 501 681.5 c 128,-1,41
 678 705 678 705 692 706 c 1,42,-1
 692 1039 l 2,43,44
 692 1066 692 1066 711.5 1085 c 128,-1,0
 731 1104 731 1104 757.5 1104 c 128,-1,1
EndSplineSet
EndChar

StartChar: five
Encoding: 53 53 24
Width: 1306
GlyphClass: 2
Flags: W
LayerCount: 2
Fore
SplineSet
1203 1381.5 m 128,-1,1
 1212 1356 1212 1356 1200 1331.5 c 128,-1,2
 1188 1307 1188 1307 1163 1299 c 0,3,4
 975 1234 975 1234 703 1248 c 0,5,6
 596 1254 596 1254 450.5 1264.5 c 128,-1,7
 305 1275 305 1275 255 1253 c 1,8,9
 241 1226 241 1226 231 1096 c 128,-1,10
 221 966 221 966 246 763 c 1,11,12
 633 932 633 932 870 864 c 0,13,14
 1044 814 1044 814 1095.5 661.5 c 128,-1,15
 1147 509 1147 509 1074 344.5 c 128,-1,16
 1001 180 1001 180 845 86 c 0,17,18
 625 -48 625 -48 347 26 c 0,19,20
 254 50 254 50 160 98 c 0,21,22
 136 110 136 110 127.5 136 c 128,-1,23
 119 162 119 162 131 185.5 c 128,-1,24
 143 209 143 209 169 217.5 c 128,-1,25
 195 226 195 226 219 214 c 0,26,27
 538 52 538 52 778 197 c 0,28,29
 899 270 899 270 953.5 393 c 128,-1,30
 1008 516 1008 516 975.5 612 c 128,-1,31
 943 708 943 708 834 739 c 0,32,33
 621 800 621 800 224 610 c 0,34,35
 191 594 191 594 164 611.5 c 128,-1,36
 137 629 137 629 132 655 c 0,37,38
 115 738 115 738 104 893 c 128,-1,39
 93 1048 93 1048 104.5 1158 c 128,-1,40
 116 1268 116 1268 132.5 1304.5 c 128,-1,41
 149 1341 149 1341 190 1366 c 0,42,43
 259 1408 259 1408 521.5 1388.5 c 128,-1,44
 784 1369 784 1369 909.5 1380.5 c 128,-1,45
 1035 1392 1035 1392 1120 1421 c 0,46,47
 1145 1430 1145 1430 1169.5 1418.5 c 128,-1,0
 1194 1407 1194 1407 1203 1381.5 c 128,-1,1
EndSplineSet
EndChar

StartChar: six
Encoding: 54 54 25
Width: 1177
GlyphClass: 2
Flags: W
LayerCount: 2
Fore
SplineSet
663 1314 m 0,0,1
 697 1259 697 1259 635 1221 c 0,2,3
 435 1098 435 1098 305 817 c 0,4,5
 234 664 234 664 231 540 c 0,6,7
 224 150 224 150 618 156 c 0,8,9
 828 159 828 159 894.5 243 c 128,-1,10
 961 327 961 327 942 412 c 128,-1,11
 923 497 923 497 844 552.5 c 128,-1,12
 765 608 765 608 655.5 574.5 c 128,-1,13
 546 541 546 541 472 470.5 c 128,-1,14
 398 400 398 400 353 447 c 128,-1,15
 308 494 308 494 355 539 c 0,16,17
 479 657 479 657 633 704.5 c 128,-1,18
 787 752 787 752 913 663 c 128,-1,19
 1039 574 1039 574 1070.5 434.5 c 128,-1,20
 1102 295 1102 295 997 162 c 128,-1,21
 892 29 892 29 620 26 c 0,22,23
 245 21 245 21 132 308 c 0,24,25
 75 452 75 452 108 613 c 0,26,27
 184 977 184 977 396.5 1189.5 c 128,-1,28
 609 1402 609 1402 663 1314 c 0,0,1
EndSplineSet
EndChar

StartChar: seven
Encoding: 55 55 26
Width: 1200
GlyphClass: 2
Flags: W
LayerCount: 2
Fore
SplineSet
102.5 1205 m 128,-1,1
 93 1230 93 1230 104 1255 c 128,-1,2
 115 1280 115 1280 140 1289 c 0,3,4
 631 1474 631 1474 857 1416 c 0,5,6
 1148 1342 1148 1342 1088 911 c 0,7,8
 1070 785 1070 785 993.5 490 c 128,-1,9
 917 195 917 195 904 65 c 0,10,11
 901 39 901 39 880.5 21.5 c 128,-1,12
 860 4 860 4 833.5 6.5 c 128,-1,13
 807 9 807 9 789.5 30 c 128,-1,14
 772 51 772 51 775 77 c 0,15,16
 789 217 789 217 865.5 513.5 c 128,-1,17
 942 810 942 810 957 913 c 0,18,19
 994 1168 994 1168 910 1247 c 0,20,21
 847 1306 847 1306 667 1293.5 c 128,-1,22
 487 1281 487 1281 186 1167 c 0,23,24
 161 1158 161 1158 136.5 1169 c 128,-1,0
 112 1180 112 1180 102.5 1205 c 128,-1,1
EndSplineSet
EndChar

StartChar: eight
Encoding: 56 56 27
Width: 1189
GlyphClass: 2
Flags: W
LayerCount: 2
Fore
SplineSet
820.5 1001.5 m 128,-1,1
 759 1023 759 1023 775 1070.5 c 128,-1,2
 791 1118 791 1118 718.5 1157 c 128,-1,3
 646 1196 646 1196 466 1193.5 c 128,-1,4
 286 1191 286 1191 243 1106.5 c 128,-1,5
 200 1022 200 1022 307 883 c 1,6,7
 417 795 417 795 528 729 c 1,8,9
 590 776 590 776 729.5 873 c 128,-1,10
 869 970 869 970 918 1022 c 128,-1,11
 967 1074 967 1074 1014.5 1029.5 c 128,-1,12
 1062 985 1062 985 1008 928 c 128,-1,13
 954 871 954 871 822.5 779.5 c 128,-1,14
 691 688 691 688 656 662 c 1,15,16
 679 651 679 651 787 602.5 c 128,-1,17
 895 554 895 554 967 472.5 c 128,-1,18
 1039 391 1039 391 1071.5 325 c 128,-1,19
 1104 259 1104 259 1081 185.5 c 128,-1,20
 1058 112 1058 112 959.5 51 c 128,-1,21
 861 -10 861 -10 657 -12 c 128,-1,22
 453 -14 453 -14 344 44 c 0,23,24
 -32 246 -32 246 420 643 c 1,25,26
 243 755 243 755 206 802 c 0,27,28
 114 918 114 918 100.5 1036.5 c 128,-1,29
 87 1155 87 1155 196.5 1238.5 c 128,-1,30
 306 1322 306 1322 492 1324 c 128,-1,31
 678 1326 678 1326 771 1276 c 0,32,33
 951 1179 951 1179 903 1042 c 0,34,0
 882 980 882 980 820.5 1001.5 c 128,-1,1
540 574 m 1,35,36
 343 414 343 414 310 292 c 0,37,38
 291 221 291 221 388 168.5 c 128,-1,39
 485 116 485 116 654 117.5 c 128,-1,40
 823 119 823 119 888.5 159.5 c 128,-1,41
 954 200 954 200 961 221.5 c 128,-1,42
 968 243 968 243 941 290 c 0,43,44
 867 418 867 418 741 480 c 0,45,46
 701 500 701 500 648.5 523 c 128,-1,47
 596 546 596 546 540 574 c 1,35,36
EndSplineSet
EndChar

StartChar: nine
Encoding: 57 57 28
Width: 1114
GlyphClass: 2
Flags: W
LayerCount: 2
Fore
SplineSet
1008 1175 m 128,-1,1
 996 1151 996 1151 970.5 1142.5 c 128,-1,2
 945 1134 945 1134 921 1145 c 0,3,4
 606 1299 606 1299 413 1215 c 0,5,6
 302 1167 302 1167 258 1056.5 c 128,-1,7
 214 946 214 946 238.5 853.5 c 128,-1,8
 263 761 263 761 321 736 c 0,9,10
 411 697 411 697 557 810 c 0,11,12
 669 897 669 897 793 1065 c 0,13,14
 809 1086 809 1086 836 1090 c 128,-1,15
 863 1094 863 1094 883.5 1079 c 128,-1,16
 904 1064 904 1064 909 1040 c 0,17,18
 979 725 979 725 897 29 c 0,19,20
 894 3 894 3 872.5 -14 c 128,-1,21
 851 -31 851 -31 824.5 -28 c 128,-1,22
 798 -25 798 -25 781 -3.5 c 128,-1,23
 764 18 764 18 767 44 c 0,24,25
 827 550 827 550 802 868 c 1,26,27
 496 518 496 518 269 617 c 0,28,29
 154 667 154 667 115.5 810.5 c 128,-1,30
 77 954 77 954 139.5 1109.5 c 128,-1,31
 202 1265 202 1265 362 1335 c 0,32,33
 610 1443 610 1443 978 1262 c 0,34,35
 1002 1250 1002 1250 1011 1224.5 c 128,-1,0
 1020 1199 1020 1199 1008 1175 c 128,-1,1
EndSplineSet
EndChar

StartChar: less
Encoding: 60 60 31
Width: 1250
GlyphClass: 2
Flags: W
LayerCount: 2
Fore
SplineSet
1143.5 929.5 m 128,-1,1
 1153 905 1153 905 1142 880 c 128,-1,2
 1131 855 1131 855 1106 846 c 0,3,4
 973 794 973 794 684.5 686 c 128,-1,5
 396 578 396 578 328.5 543.5 c 128,-1,6
 261 509 261 509 238 490 c 1,7,8
 264 469 264 469 343 432 c 0,9,10
 421 396 421 396 712.5 294 c 128,-1,11
 1004 192 1004 192 1108 156 c 0,12,13
 1133 147 1133 147 1144.5 122.5 c 128,-1,14
 1156 98 1156 98 1147 73 c 128,-1,15
 1138 48 1138 48 1113.5 36 c 128,-1,16
 1089 24 1089 24 1064 33 c 0,17,18
 961 70 961 70 667 172.5 c 128,-1,19
 373 275 373 275 303.5 307 c 128,-1,20
 234 339 234 339 217 348 c 128,-1,21
 200 357 200 357 174.5 373.5 c 128,-1,22
 149 390 149 390 135 405 c 0,23,24
 80 466 80 466 109 534 c 0,25,26
 131 585 131 585 204 626 c 0,27,28
 221 635 221 635 282.5 666 c 128,-1,29
 344 697 344 697 635.5 806 c 128,-1,30
 927 915 927 915 1060 967 c 0,31,32
 1084 976 1084 976 1109 965 c 128,-1,0
 1134 954 1134 954 1143.5 929.5 c 128,-1,1
EndSplineSet
EndChar

StartChar: greater
Encoding: 62 62 33
Width: 1250
GlyphClass: 2
Flags: W
LayerCount: 2
Fore
SplineSet
107.5 929.5 m 128,-1,1
 117 954 117 954 142 965 c 128,-1,2
 167 976 167 976 191 967 c 0,3,4
 324 915 324 915 548 832 c 0,5,6
 907 697 907 697 1003 649 c 0,7,8
 1030 635 1030 635 1046.5 626 c 128,-1,9
 1063 617 1063 617 1085.5 601 c 128,-1,10
 1108 585 1108 585 1120.5 570 c 128,-1,11
 1133 555 1133 555 1142 533.5 c 128,-1,12
 1151 512 1151 512 1151 488 c 256,13,14
 1151 464 1151 464 1140 442 c 128,-1,15
 1129 420 1129 420 1115.5 405 c 128,-1,16
 1102 390 1102 390 1076.5 373.5 c 128,-1,17
 1051 357 1051 357 1034 348 c 128,-1,18
 1017 339 1017 339 985 325 c 0,19,20
 878 275 878 275 473 134 c 1,21,-1
 469 132 l 1,22,23
 290 70 290 70 187 33 c 0,24,25
 162 24 162 24 137.5 36 c 128,-1,26
 113 48 113 48 104 73 c 128,-1,27
 95 98 95 98 106.5 122.5 c 128,-1,28
 118 147 118 147 143 156 c 0,29,30
 246 192 246 192 426 255 c 1,31,-1
 431 256 l 1,32,33
 829 395 829 395 930 443 c 0,34,35
 987 469 987 469 1013 490 c 1,36,37
 990 509 990 509 944 533 c 0,38,39
 855 578 855 578 502 710 c 0,40,41
 278 794 278 794 144 846 c 0,42,43
 120 855 120 855 109 880 c 128,-1,0
 98 905 98 905 107.5 929.5 c 128,-1,1
EndSplineSet
EndChar

StartChar: question
Encoding: 63 63 34
Width: 984
GlyphClass: 2
Flags: W
LayerCount: 2
Fore
SplineSet
189 971.5 m 128,-1,1
 163 966 163 966 140.5 980.5 c 128,-1,2
 118 995 118 995 112 1021 c 0,3,4
 71 1214 71 1214 166 1315 c 0,5,6
 304 1461 304 1461 574 1374.5 c 128,-1,7
 844 1288 844 1288 880 1142 c 0,8,9
 912 1011 912 1011 687 827 c 0,10,11
 588 746 588 746 546.5 684.5 c 128,-1,12
 505 623 505 623 507 555 c 0,13,14
 508 443 508 443 577 353 c 0,15,16
 593 331 593 331 589.5 304.5 c 128,-1,17
 586 278 586 278 564.5 261.5 c 128,-1,18
 543 245 543 245 516 249 c 128,-1,19
 489 253 489 253 473 274 c 0,20,21
 379 398 379 398 377 553 c 0,22,23
 375 662 375 662 450 774 c 0,24,25
 491 834 491 834 591 916 c 128,-1,26
 691 998 691 998 741 1067 c 0,27,28
 763 1093 763 1093 758 1114 c 0,29,30
 750 1147 750 1147 678 1187 c 128,-1,31
 606 1227 606 1227 529 1252 c 0,32,33
 342 1312 342 1312 261 1226 c 0,34,35
 213 1175 213 1175 240 1048 c 0,36,37
 245 1022 245 1022 230 999.5 c 128,-1,0
 215 977 215 977 189 971.5 c 128,-1,1
412 2 m 128,-1,39
 412 57 412 57 443 96 c 128,-1,40
 474 135 474 135 517.5 135 c 128,-1,41
 561 135 561 135 592 96 c 128,-1,42
 623 57 623 57 623 2 c 128,-1,43
 623 -53 623 -53 592 -92 c 128,-1,44
 561 -131 561 -131 517.5 -131 c 128,-1,45
 474 -131 474 -131 443 -92 c 128,-1,38
 412 -53 412 -53 412 2 c 128,-1,39
EndSplineSet
EndChar

StartChar: at
Encoding: 64 64 35
Width: 1555
GlyphClass: 2
Flags: W
LayerCount: 2
Fore
SplineSet
987 581 m 0,0,1
 1013 553 1013 553 1043.5 486 c 128,-1,2
 1074 419 1074 419 1053 330 c 0,3,4
 1051 323 1051 323 1054.5 272.5 c 128,-1,5
 1058 222 1058 222 1080.5 166 c 128,-1,6
 1103 110 1103 110 1131 94 c 1,7,8
 1157 71 1157 71 1216 115.5 c 128,-1,9
 1275 160 1275 160 1303 254 c 0,10,11
 1353 424 1353 424 1290 587 c 0,12,13
 1213 786 1213 786 957 845 c 0,14,15
 451 961 451 961 287 572 c 0,16,17
 251 485 251 485 234 376 c 0,18,19
 234 374 234 374 230 356 c 128,-1,20
 226 338 226 338 233 268 c 0,21,22
 253 60 253 60 383 -78 c 0,23,24
 532 -238 532 -238 803 -217 c 0,25,26
 829 -215 829 -215 849.5 -233 c 128,-1,27
 870 -251 870 -251 872 -277.5 c 128,-1,28
 874 -304 874 -304 856.5 -324.5 c 128,-1,29
 839 -345 839 -345 812 -347 c 0,30,31
 640 -360 640 -360 507.5 -310.5 c 128,-1,32
 375 -261 375 -261 288 -167 c 0,33,34
 128 4 128 4 104 255 c 0,35,36
 95 343 95 343 106 397 c 0,37,38
 125 521 125 521 168 623 c 0,39,40
 270 865 270 865 483 951.5 c 128,-1,41
 696 1038 696 1038 1002.5 967.5 c 128,-1,42
 1309 897 1309 897 1411 634 c 0,43,44
 1490 430 1490 430 1428 217 c 0,45,46
 1388 82 1388 82 1282 2 c 128,-1,47
 1176 -78 1176 -78 1065 -18 c 0,48,49
 998 21 998 21 962 111 c 1,50,51
 877 -19 877 -19 763.5 -35.5 c 128,-1,52
 650 -52 650 -52 549 -2.5 c 128,-1,53
 448 47 448 47 416 162 c 128,-1,54
 384 277 384 277 415.5 397.5 c 128,-1,55
 447 518 447 518 551 599.5 c 128,-1,56
 655 681 655 681 827 660 c 0,57,58
 927 647 927 647 987 581 c 0,0,1
926 340.5 m 130,-1,60
 927 343 927 343 926.5 348.5 c 128,-1,61
 926 354 926 354 930 384 c 128,-1,62
 934 414 934 414 918.5 447.5 c 128,-1,63
 903 481 903 481 883 502.5 c 128,-1,64
 863 524 863 524 811 531 c 0,65,66
 692 545 692 545 626.5 494 c 128,-1,67
 561 443 561 443 540 360.5 c 128,-1,68
 519 278 519 278 538 208.5 c 128,-1,69
 557 139 557 139 600 118 c 0,70,71
 682 81 682 81 732 88 c 0,72,73
 844 105 844 105 925 338 c 1,74,59
 926 340.5 l 130,-1,60
EndSplineSet
EndChar

StartChar: A
Encoding: 65 65 36
Width: 1370
GlyphClass: 2
Flags: W
LayerCount: 2
Fore
SplineSet
160.5 -40 m 128,-1,1
 134 -38 134 -38 116.5 -17.5 c 128,-1,2
 99 3 99 3 100 24 c 0,3,4
 137 510 137 510 255.5 893.5 c 128,-1,5
 374 1277 374 1277 539 1402 c 0,6,7
 797 1596 797 1596 1012 1051 c 0,8,9
 1151 700 1151 700 1254 125 c 2,10,-1
 1270 37 l 2,11,12
 1274 11 1274 11 1258 -11 c 128,-1,13
 1242 -33 1242 -33 1216.5 -37.5 c 128,-1,14
 1191 -42 1191 -42 1169 -26.5 c 128,-1,15
 1147 -11 1147 -11 1141 15 c 2,16,-1
 1126 102 l 2,17,18
 1080 361 1080 361 1026 572 c 1,19,-1
 1025 572 l 1,20,-1
 309 572 l 1,21,22
 249 276 249 276 230 20 c 0,23,24
 228 -6 228 -6 207.5 -24 c 128,-1,0
 187 -42 187 -42 160.5 -40 c 128,-1,1
338 702 m 1,25,-1
 992 702 l 1,26,27
 878 1101 878 1101 760 1252 c 0,28,29
 730 1290 730 1290 703.5 1304 c 128,-1,30
 677 1318 677 1318 666 1317 c 0,31,32
 604 1310 604 1310 540 1216 c 0,33,34
 418 1034 418 1034 338 702 c 1,25,-1
EndSplineSet
EndChar

StartChar: B
Encoding: 66 66 37
Width: 1155
GlyphClass: 2
Flags: W
LayerCount: 2
Fore
SplineSet
257 654 m 0,0,1
 242 658 242 658 233 663 c 1,2,-1
 236 116 l 1,3,4
 373 93 373 93 494 96 c 0,5,6
 731 103 731 103 852 204 c 0,7,8
 932 271 932 271 925 358 c 128,-1,9
 918 445 918 445 808 521 c 0,10,11
 624 649 624 649 257 654 c 0,0,1
233 775 m 1,12,13
 246 783 246 783 289 786 c 128,-1,14
 332 789 332 789 395 797 c 0,15,16
 697 838 697 838 801 956 c 0,17,18
 862 1025 862 1025 829 1098 c 0,19,20
 792 1183 792 1183 664 1243 c 0,21,22
 484 1327 484 1327 230 1314 c 1,23,-1
 233 775 l 1,12,13
159 1438 m 0,24,25
 486 1470 486 1470 719 1361 c 0,26,27
 892 1279 892 1279 948 1149 c 0,28,29
 1012 998 1012 998 899 870 c 0,30,31
 820 781 820 781 671 728 c 1,32,33
 793 690 793 690 883 628 c 0,34,35
 1042 517 1042 517 1054.5 365.5 c 128,-1,36
 1067 214 1067 214 935 104 c 0,37,38
 781 -26 781 -26 498 -34 c 0,39,40
 339 -38 339 -38 158 -1 c 0,41,42
 136 3 136 3 121.5 21 c 128,-1,43
 107 39 107 39 106 61 c 2,44,-1
 100 1373 l 2,45,46
 100 1398 100 1398 117.5 1417 c 128,-1,47
 135 1436 135 1436 159 1438 c 0,24,25
EndSplineSet
EndChar

StartChar: C
Encoding: 67 67 38
Width: 1370
GlyphClass: 2
Flags: W
LayerCount: 2
Fore
SplineSet
1256 1342 m 128,-1,1
 1251 1316 1251 1316 1228.5 1300.5 c 128,-1,2
 1206 1285 1206 1285 1180 1290 c 0,3,4
 855 1351 855 1351 598 1200 c 0,5,6
 413 1091 413 1091 312.5 902 c 128,-1,7
 212 713 212 713 234 526 c 128,-1,8
 256 339 256 339 400 230 c 0,9,10
 658 34 658 34 1190 160 c 0,11,12
 1216 166 1216 166 1239 152 c 128,-1,13
 1262 138 1262 138 1268 112 c 128,-1,14
 1274 86 1274 86 1260 63 c 128,-1,15
 1246 40 1246 40 1220 34 c 0,16,17
 628 -106 628 -106 322 126 c 0,18,19
 133 269 133 269 105.5 503.5 c 128,-1,20
 78 738 78 738 196.5 961 c 128,-1,21
 315 1184 315 1184 533 1312 c 0,22,23
 831 1487 831 1487 1204 1417 c 0,24,25
 1230 1413 1230 1413 1245.5 1390.5 c 128,-1,0
 1261 1368 1261 1368 1256 1342 c 128,-1,1
EndSplineSet
EndChar

StartChar: D
Encoding: 68 68 39
Width: 1093
GlyphClass: 2
Flags: W
LayerCount: 2
Fore
SplineSet
89 1012 m 1024,0,-1
106 53 m 2,1,-1
 100 1366 l 2,2,3
 100 1389 100 1389 114.5 1407 c 128,-1,4
 129 1425 129 1425 151 1430 c 0,5,6
 416 1488 416 1488 644 1338 c 0,7,8
 823 1220 823 1220 923.5 1003.5 c 128,-1,9
 1024 787 1024 787 981 562 c 0,10,11
 931 302 931 302 700 149 c 0,12,13
 496 14 496 14 176 -10 c 0,14,15
 150 -12 150 -12 129 6.5 c 128,-1,16
 108 25 108 25 106 53 c 2,1,-1
230 1312 m 1,17,-1
 236 127 l 1,18,19
 474 156 474 156 629 258 c 0,20,21
 814 380 814 380 851 575.5 c 128,-1,22
 888 771 888 771 804.5 951.5 c 128,-1,23
 721 1132 721 1132 566.5 1233 c 128,-1,24
 412 1334 412 1334 230 1312 c 1,17,-1
EndSplineSet
EndChar

StartChar: E
Encoding: 69 69 40
Width: 1298
GlyphClass: 2
Flags: W
LayerCount: 2
Fore
SplineSet
1193 1262.5 m 128,-1,1
 1182 1238 1182 1238 1157 1228.5 c 128,-1,2
 1132 1219 1132 1219 1107 1230 c 0,3,4
 930 1308 930 1308 438 1303 c 0,5,6
 324 1302 324 1302 244 1297 c 1,7,8
 251 1009 251 1009 250 779 c 1,9,-1
 975 774 l 2,10,11
 1001 774 1001 774 1020 754.5 c 128,-1,12
 1039 735 1039 735 1039 708.5 c 128,-1,13
 1039 682 1039 682 1019.5 663 c 128,-1,14
 1000 644 1000 644 974 644 c 2,15,-1
 249 649 l 1,16,17
 246 382 246 382 238 225 c 2,18,-1
 233 129 l 1,19,20
 877 130 877 130 1059 146 c 0,21,22
 1085 148 1085 148 1106 130.5 c 128,-1,23
 1127 113 1127 113 1129.5 86.5 c 128,-1,24
 1132 60 1132 60 1114.5 39 c 128,-1,25
 1097 18 1097 18 1070 16 c 0,26,27
 873 -1 873 -1 165 -1 c 0,28,29
 142 -1 142 -1 120.5 18.5 c 128,-1,30
 99 38 99 38 100 67 c 2,31,-1
 108 231 l 2,32,33
 129 657 129 657 113 1357 c 0,34,35
 112 1382 112 1382 130 1401.5 c 128,-1,36
 148 1421 148 1421 174 1423 c 2,37,-1
 246 1428 l 2,38,39
 417 1439 417 1439 614 1433 c 0,40,41
 996 1421 996 1421 1160 1348 c 0,42,43
 1184 1338 1184 1338 1194 1312.5 c 128,-1,0
 1204 1287 1204 1287 1193 1262.5 c 128,-1,1
EndSplineSet
EndChar

StartChar: F
Encoding: 70 70 41
Width: 1285
GlyphClass: 2
Flags: W
LayerCount: 2
Fore
SplineSet
251 1303 m 1,0,1
 283 1071 283 1071 290 812 c 1,2,-1
 291 812 l 1,3,-1
 1018 807 l 2,4,5
 1045 807 1045 807 1064 788 c 128,-1,6
 1083 769 1083 769 1082.5 742 c 128,-1,7
 1082 715 1082 715 1063 696 c 128,-1,8
 1044 677 1044 677 1017 677 c 2,9,-1
 291 682 l 1,10,11
 290 498 290 498 272.5 309 c 128,-1,12
 255 120 255 120 242 47 c 2,13,-1
 229 -23 l 2,14,15
 224 -49 224 -49 202 -64.5 c 128,-1,16
 180 -80 180 -80 153.5 -75 c 128,-1,17
 127 -70 127 -70 111.5 -48 c 128,-1,18
 96 -26 96 -26 101 0 c 2,19,-1
 114 70 l 2,20,21
 142 230 142 230 154 479 c 0,22,23
 176 955 176 955 110 1372 c 0,24,25
 103 1412 103 1412 131 1431.5 c 128,-1,26
 159 1451 159 1451 185 1447 c 2,27,-1
 260 1434 l 2,28,29
 434 1404 434 1404 624 1393 c 0,30,31
 979 1372 979 1372 1088 1435 c 0,32,33
 1111 1448 1111 1448 1137.5 1441 c 128,-1,34
 1164 1434 1164 1434 1177 1411 c 128,-1,35
 1190 1388 1190 1388 1183 1362 c 0,36,37
 1164 1288 1164 1288 919 1262 c 0,38,39
 759 1245 759 1245 437 1279 c 0,40,41
 326 1291 326 1291 251 1303 c 1,0,1
EndSplineSet
EndChar

StartChar: G
Encoding: 71 71 42
Width: 1851
GlyphClass: 2
Flags: W
LayerCount: 2
Fore
SplineSet
1627 1163 m 128,-1,1
 1609 1143 1609 1143 1582 1142 c 128,-1,2
 1555 1141 1555 1141 1535 1159 c 0,3,4
 1432 1253 1432 1253 1221 1297.5 c 128,-1,5
 1010 1342 1010 1342 777 1311 c 1,6,7
 453 1245 453 1245 315 1046 c 0,8,9
 207 889 207 889 238 692.5 c 128,-1,10
 269 496 269 496 422.5 330.5 c 128,-1,11
 576 165 576 165 816 112 c 0,12,13
 1000 72 1000 72 1201 114 c 1,14,15
 1339 150 1339 150 1448 231 c 128,-1,16
 1557 312 1557 312 1595 392 c 128,-1,17
 1633 472 1633 472 1615 562 c 0,18,19
 1608 594 1608 594 1572.5 620.5 c 128,-1,20
 1537 647 1537 647 1434.5 670 c 128,-1,21
 1332 693 1332 693 1165.5 685 c 128,-1,22
 999 677 999 677 913 664 c 2,23,-1
 871 658 l 2,24,25
 844 654 844 654 822.5 670 c 128,-1,26
 801 686 801 686 797 712.5 c 128,-1,27
 793 739 793 739 809 761 c 128,-1,28
 825 783 825 783 851 787 c 2,29,-1
 893 793 l 2,30,31
 986 807 986 807 1164.5 815.5 c 128,-1,32
 1343 824 1343 824 1467.5 796 c 128,-1,33
 1592 768 1592 768 1659 718 c 128,-1,34
 1726 668 1726 668 1742 588 c 0,35,36
 1796 327 1796 327 1530 130 c 0,37,38
 1396 30 1396 30 1230 -12 c 1,39,40
 1000 -61 1000 -61 788 -15 c 0,41,42
 508 47 508 47 327 242 c 128,-1,43
 146 437 146 437 108 678.5 c 128,-1,44
 70 920 70 920 209 1120 c 0,45,46
 376 1363 376 1363 753 1439 c 0,47,48
 755 1440 755 1440 757 1440 c 0,49,50
 1014 1474 1014 1474 1253.5 1423.5 c 128,-1,51
 1493 1373 1493 1373 1623 1255 c 0,52,53
 1642 1237 1642 1237 1643.5 1210 c 128,-1,0
 1645 1183 1645 1183 1627 1163 c 128,-1,1
EndSplineSet
EndChar

StartChar: H
Encoding: 72 72 43
Width: 1110
GlyphClass: 2
Flags: W
LayerCount: 2
Fore
SplineSet
932 1451 m 128,-1,1
 959 1451 959 1451 978 1432 c 128,-1,2
 997 1413 997 1413 998 1387 c 2,3,-1
 1011 33 l 2,4,5
 1011 7 1011 7 992 -12.5 c 128,-1,6
 973 -32 973 -32 946.5 -32.5 c 128,-1,7
 920 -33 920 -33 900.5 -14 c 128,-1,8
 881 5 881 5 881 32 c 2,9,-1
 875 632 l 1,10,-1
 237 640 l 1,11,-1
 243 21 l 2,12,13
 243 -6 243 -6 224 -25.5 c 128,-1,14
 205 -45 205 -45 178.5 -45 c 128,-1,15
 152 -45 152 -45 132.5 -26 c 128,-1,16
 113 -7 113 -7 113 19 c 2,17,-1
 100 1373 l 2,18,19
 100 1400 100 1400 119 1419 c 128,-1,20
 138 1438 138 1438 164.5 1438.5 c 128,-1,21
 191 1439 191 1439 210.5 1420 c 128,-1,22
 230 1401 230 1401 230 1374 c 2,23,24
 230 1374 230 1374 236 770 c 1,25,-1
 874 762 l 1,26,27
 871 1074 871 1074 868 1386 c 0,28,29
 867 1412 867 1412 886 1431.5 c 128,-1,0
 905 1451 905 1451 932 1451 c 128,-1,1
EndSplineSet
EndChar

StartChar: I
Encoding: 73 73 44
Width: 342
GlyphClass: 2
Flags: W
LayerCount: 2
Fore
SplineSet
164.5 1455.5 m 128,-1,1
 191 1456 191 1456 210.5 1437 c 128,-1,2
 230 1418 230 1418 230 1391 c 2,3,-1
 243 38 l 2,4,5
 243 11 243 11 224 -8.5 c 128,-1,6
 205 -28 205 -28 178.5 -28 c 128,-1,7
 152 -28 152 -28 132.5 -9 c 128,-1,8
 113 10 113 10 113 36 c 2,9,-1
 100 1390 l 2,10,11
 100 1416 100 1416 119 1435.5 c 128,-1,0
 138 1455 138 1455 164.5 1455.5 c 128,-1,1
EndSplineSet
EndChar

StartChar: J
Encoding: 74 74 45
Width: 993
GlyphClass: 2
Flags: W
LayerCount: 2
Fore
SplineSet
103 113.5 m 128,-1,1
 111 139 111 139 135 151.5 c 128,-1,2
 159 164 159 164 184 156 c 0,3,4
 567 40 567 40 686 194 c 0,5,6
 770 302 770 302 763 584 c 0,7,8
 761 694 761 694 734 968.5 c 128,-1,9
 707 1243 707 1243 705 1372 c 0,10,11
 705 1399 705 1399 723.5 1418.5 c 128,-1,12
 742 1438 742 1438 768.5 1438.5 c 128,-1,13
 795 1439 795 1439 815 1420 c 128,-1,14
 835 1401 835 1401 835 1374 c 0,15,16
 837 1250 837 1250 864 976 c 128,-1,17
 891 702 891 702 893 587 c 0,18,19
 901 259 901 259 789 114 c 0,20,21
 614 -111 614 -111 146 32 c 0,22,23
 121 40 121 40 108 64 c 128,-1,0
 95 88 95 88 103 113.5 c 128,-1,1
EndSplineSet
EndChar

StartChar: K
Encoding: 75 75 46
Width: 1211
GlyphClass: 2
Flags: W
LayerCount: 2
Fore
SplineSet
198.5 1442.5 m 128,-1,1
 225 1442 225 1442 243.5 1422 c 128,-1,2
 262 1402 262 1402 262 1376 c 0,3,4
 255 1078 255 1078 249 845 c 1,5,-1
 286 874 l 2,6,7
 557 1082 557 1082 713.5 1226.5 c 128,-1,8
 870 1371 870 1371 891 1404 c 128,-1,9
 912 1437 912 1437 938.5 1443 c 128,-1,10
 965 1449 965 1449 987.5 1434.5 c 128,-1,11
 1010 1420 1010 1420 1016 1393.5 c 128,-1,12
 1022 1367 1022 1367 1007 1345 c 0,13,14
 933 1227 933 1227 519 893 c 0,15,16
 432 822 432 822 372 776 c 1,17,18
 696 534 696 534 921.5 317 c 128,-1,19
 1147 100 1147 100 1104 21 c 0,20,21
 1091 -3 1091 -3 1065.5 -10.5 c 128,-1,22
 1040 -18 1040 -18 1016.5 -5 c 128,-1,23
 993 8 993 8 986 32 c 0,24,25
 968 92 968 92 824 231 c 0,26,27
 596 450 596 450 246 708 c 1,28,29
 232 136 232 136 230 33 c 0,30,31
 230 6 230 6 210 -13 c 128,-1,32
 190 -32 190 -32 163.5 -31.5 c 128,-1,33
 137 -31 137 -31 118.5 -11.5 c 128,-1,34
 100 8 100 8 100 35 c 0,35,36
 103 190 103 190 132 1379 c 0,37,38
 132 1405 132 1405 152 1424 c 128,-1,0
 172 1443 172 1443 198.5 1442.5 c 128,-1,1
EndSplineSet
EndChar

StartChar: L
Encoding: 76 76 47
Width: 1267
GlyphClass: 2
Flags: W
LayerCount: 2
Fore
SplineSet
163.5 1450 m 128,-1,1
 190 1451 190 1451 209.5 1432 c 128,-1,2
 229 1413 229 1413 230 1387 c 0,3,4
 252 531 252 531 284 116 c 1,5,6
 335 115 335 115 427.5 126 c 128,-1,7
 520 137 520 137 631 148 c 0,8,9
 917 177 917 177 1120 118 c 0,10,11
 1146 110 1146 110 1159 86.5 c 128,-1,12
 1172 63 1172 63 1164.5 37.5 c 128,-1,13
 1157 12 1157 12 1133 -1 c 128,-1,14
 1109 -14 1109 -14 1084 -7 c 0,15,16
 905 45 905 45 642 19 c 0,17,18
 535 8 535 8 437 -4 c 128,-1,19
 339 -16 339 -16 291.5 -14 c 128,-1,20
 244 -12 244 -12 203 3.5 c 128,-1,21
 162 19 162 19 157 74 c 0,22,23
 123 489 123 489 100 1383 c 0,24,25
 99 1410 99 1410 118 1429.5 c 128,-1,0
 137 1449 137 1449 163.5 1450 c 128,-1,1
EndSplineSet
EndChar

StartChar: M
Encoding: 77 77 48
Width: 1497
GlyphClass: 2
Flags: W
LayerCount: 2
Fore
SplineSet
233 1187 m 1,0,-1
 247 27 l 2,1,2
 248 0 248 0 229 -19.5 c 128,-1,3
 210 -39 210 -39 183.5 -39 c 128,-1,4
 157 -39 157 -39 137.5 -20 c 128,-1,5
 118 -1 118 -1 117 25 c 2,6,-1
 100 1387 l 2,7,8
 100 1414 100 1414 119 1433.5 c 128,-1,9
 138 1453 138 1453 166 1453 c 128,-1,10
 194 1453 194 1453 216 1429 c 2,11,-1
 386 1198 l 1,12,13
 697 786 697 786 801 710 c 1,14,15
 874 770 874 770 970 920 c 0,16,17
 1138 1183 1138 1183 1228 1345 c 2,18,-1
 1267 1416 l 2,19,20
 1280 1439 1280 1439 1306 1446.5 c 128,-1,21
 1332 1454 1332 1454 1352 1443 c 0,22,23
 1389 1422 1389 1422 1389 1384 c 2,24,-1
 1398 12 l 2,25,26
 1398 -14 1398 -14 1379 -33.5 c 128,-1,27
 1360 -53 1360 -53 1333.5 -53 c 128,-1,28
 1307 -53 1307 -53 1287.5 -34 c 128,-1,29
 1268 -15 1268 -15 1268 12 c 2,30,-1
 1261 1142 l 1,31,32
 1077 834 1077 834 987 722 c 128,-1,33
 897 610 897 610 847 584 c 0,34,35
 777 545 777 545 688.5 626.5 c 128,-1,36
 600 708 600 708 525 802.5 c 128,-1,37
 450 897 450 897 373.5 999 c 128,-1,38
 297 1101 297 1101 281 1121 c 2,39,-1
 233 1187 l 1,0,-1
EndSplineSet
EndChar

StartChar: N
Encoding: 78 78 49
Width: 1264
GlyphClass: 2
Flags: W
LayerCount: 2
Fore
SplineSet
204.5 -33 m 128,-1,1
 178 -34 178 -34 158 -15 c 128,-1,2
 138 4 138 4 138 30 c 2,3,-1
 100 1369 l 2,4,5
 99 1396 99 1396 118 1415.5 c 128,-1,6
 137 1435 137 1435 167.5 1436 c 128,-1,7
 198 1437 198 1437 218 1408 c 2,8,-1
 1027 243 l 1,9,-1
 991 1396 l 2,10,11
 990 1422 990 1422 1008.5 1442 c 128,-1,12
 1027 1462 1027 1462 1053.5 1463 c 128,-1,13
 1080 1464 1080 1464 1100 1445.5 c 128,-1,14
 1120 1427 1120 1427 1121 1400 c 2,15,-1
 1164 28 l 2,16,17
 1165 -7 1165 -7 1139.5 -25 c 128,-1,18
 1114 -43 1114 -43 1087.5 -38 c 128,-1,19
 1061 -33 1061 -33 1046 -11 c 2,20,-1
 236 1155 l 1,21,-1
 268 34 l 2,22,23
 268 7 268 7 249.5 -12.5 c 128,-1,0
 231 -32 231 -32 204.5 -33 c 128,-1,1
EndSplineSet
EndChar

StartChar: O
Encoding: 79 79 50
Width: 1702
GlyphClass: 2
Flags: W
LayerCount: 2
Fore
SplineSet
835 1288 m 1,0,1
 616 1279 616 1279 443.5 1138.5 c 128,-1,2
 271 998 271 998 237 779 c 0,3,4
 221 675 221 675 246 569.5 c 128,-1,5
 271 464 271 464 327 387 c 0,6,7
 437 235 437 235 610.5 172 c 128,-1,8
 784 109 784 109 973 141 c 0,9,10
 1097 161 1097 161 1204 222.5 c 128,-1,11
 1311 284 1311 284 1368 365 c 0,12,13
 1481 522 1481 522 1471.5 701 c 128,-1,14
 1462 880 1462 880 1348 1028 c 0,15,16
 1262 1139 1262 1139 1131 1207 c 128,-1,17
 1000 1275 1000 1275 856 1283 c 0,18,19
 846 1284 846 1284 835 1288 c 1,0,1
828 1418 m 0,20,21
 842 1419 842 1419 851 1416 c 128,-1,22
 860 1413 860 1413 863 1413 c 0,23,24
 1035 1404 1035 1404 1191.5 1322.5 c 128,-1,25
 1348 1241 1348 1241 1451 1107 c 0,26,27
 1589 927 1589 927 1601 705 c 128,-1,28
 1613 483 1613 483 1474 289 c 0,29,30
 1400 186 1400 186 1270.5 111.5 c 128,-1,31
 1141 37 1141 37 994 12 c 0,32,33
 772 -25 772 -25 564 50.5 c 128,-1,34
 356 126 356 126 222 311 c 0,35,36
 151 408 151 408 120 539 c 0,37,38
 56 805 56 805 197 1045 c 0,39,40
 264 1160 264 1160 368 1244 c 0,41,42
 567 1407 567 1407 828 1418 c 0,20,21
EndSplineSet
EndChar

StartChar: P
Encoding: 80 80 51
Width: 983
GlyphClass: 2
Flags: W
LayerCount: 2
Fore
SplineSet
42 366 m 1024,0,-1
231 757 m 1,1,2
 525 744 525 744 671 858 c 0,3,4
 756 924 756 924 753.5 1010.5 c 128,-1,5
 751 1097 751 1097 652 1171 c 0,6,7
 505 1282 505 1282 230 1302 c 1,8,-1
 231 757 l 1,1,2
232 627 m 1,9,-1
 233 18 l 2,10,11
 233 -8 233 -8 214 -27.5 c 128,-1,12
 195 -47 195 -47 168.5 -47 c 128,-1,13
 142 -47 142 -47 122.5 -28 c 128,-1,14
 103 -9 103 -9 103 18 c 2,15,-1
 100 1371 l 2,16,17
 100 1398 100 1398 121 1417.5 c 128,-1,18
 142 1437 142 1437 167 1436 c 0,19,20
 533 1423 533 1423 730 1275 c 0,21,22
 880 1163 880 1163 884 1012.5 c 128,-1,23
 888 862 888 862 751 756 c 0,24,25
 569 613 569 613 232 627 c 1,9,-1
EndSplineSet
EndChar

StartChar: Q
Encoding: 81 81 52
Width: 1796
GlyphClass: 2
Flags: W
LayerCount: 2
Fore
SplineSet
1054 1276 m 0,0,1
 791 1412 791 1412 564 1303 c 0,2,3
 368 1210 368 1210 278 1006 c 0,4,5
 174 770 174 770 302 490 c 0,6,7
 374 331 374 331 509.5 221 c 128,-1,8
 645 111 645 111 812 112 c 0,9,10
 1116 112 1116 112 1294 386 c 0,11,12
 1402 553 1402 553 1408 773.5 c 128,-1,13
 1414 994 1414 994 1193 1182 c 0,14,15
 1127 1238 1127 1238 1054 1276 c 0,0,1
507 1420 m 0,16,17
 793 1558 793 1558 1113 1392 c 0,18,19
 1292 1299 1292 1299 1413 1137 c 0,20,21
 1605 878 1605 878 1501 528 c 0,22,23
 1432 298 1432 298 1250.5 140 c 128,-1,24
 1069 -18 1069 -18 812 -18 c 0,25,26
 507 -19 507 -19 288 263 c 0,27,28
 167 420 167 420 117.5 635.5 c 128,-1,29
 68 851 68 851 160 1059 c 0,30,31
 269 1306 269 1306 507 1420 c 0,16,17
822.5 738 m 128,-1,33
 849 736 849 736 867 715.5 c 128,-1,34
 885 695 885 695 882 668 c 0,35,36
 863 417 863 417 1108 249 c 0,37,38
 1252 150 1252 150 1447 122 c 0,39,40
 1539 109 1539 109 1625 117 c 0,41,42
 1651 120 1651 120 1672 102.5 c 128,-1,43
 1693 85 1693 85 1695.5 58.5 c 128,-1,44
 1698 32 1698 32 1681 11 c 128,-1,45
 1664 -10 1664 -10 1637 -12 c 0,46,47
 1434 -31 1434 -31 1225 44.5 c 128,-1,48
 1016 120 1016 120 875.5 285.5 c 128,-1,49
 735 451 735 451 753 679 c 0,50,51
 755 705 755 705 775.5 722.5 c 128,-1,32
 796 740 796 740 822.5 738 c 128,-1,33
EndSplineSet
EndChar

StartChar: R
Encoding: 82 82 53
Width: 1372
GlyphClass: 2
Flags: W
LayerCount: 2
Fore
SplineSet
173.5 -38 m 128,-1,1
 147 -37 147 -37 129 -16.5 c 128,-1,2
 111 4 111 4 112 30 c 0,3,4
 124 262 124 262 107 1063 c 2,5,-1
 100 1371 l 2,6,7
 99 1396 99 1396 116 1415 c 128,-1,8
 133 1434 133 1434 156 1437 c 0,9,10
 642 1502 642 1502 873 1412 c 0,11,12
 1131 1312 1131 1312 1138 1009 c 0,13,14
 1146 610 1146 610 650 527 c 0,15,16
 594 517 594 517 519 513 c 1,17,-1
 1240 85 l 2,18,19
 1263 72 1263 72 1270 45.5 c 128,-1,20
 1277 19 1277 19 1263 -4 c 128,-1,21
 1249 -27 1249 -27 1223 -33.5 c 128,-1,22
 1197 -40 1197 -40 1174 -27 c 2,23,-1
 253 519 l 2,24,25
 250 521 250 521 246 524 c 1,26,27
 249 168 249 168 242 23 c 0,28,29
 241 -3 241 -3 220.5 -21 c 128,-1,0
 200 -39 200 -39 173.5 -38 c 128,-1,1
245 626 m 1,30,31
 264 641 264 641 287 640 c 0,32,33
 710 630 710 630 872 735 c 0,34,35
 1012 826 1012 826 1008 1007 c 0,36,37
 1005 1121 1005 1121 962 1186 c 0,38,39
 826 1392 826 1392 231 1316 c 1,40,-1
 237 1065 l 2,41,42
 242 818 242 818 245 626 c 1,30,31
EndSplineSet
EndChar

StartChar: S
Encoding: 83 83 54
Width: 1372
GlyphClass: 2
Flags: W
LayerCount: 2
Fore
SplineSet
1230 1069 m 128,-1,1
 1212 1050 1212 1050 1184.5 1049.5 c 128,-1,2
 1157 1049 1157 1049 1138 1067 c 0,3,4
 1033 1168 1033 1168 888 1225.5 c 128,-1,5
 743 1283 743 1283 580 1284.5 c 128,-1,6
 417 1286 417 1286 323 1215 c 0,7,8
 264 1171 264 1171 242 1104.5 c 128,-1,9
 220 1038 220 1038 240 970 c 128,-1,10
 260 902 260 902 317 850.5 c 128,-1,11
 374 799 374 799 464.5 774 c 128,-1,12
 555 749 555 749 741 764 c 1,13,14
 960 771 960 771 1072.5 713 c 128,-1,15
 1185 655 1185 655 1237 550 c 128,-1,16
 1289 445 1289 445 1266 345 c 0,17,18
 1221 148 1221 148 1021 57 c 0,19,20
 865 -15 865 -15 686 2 c 0,21,22
 360 33 360 33 143 223 c 0,23,24
 123 241 123 241 121 268 c 128,-1,25
 119 295 119 295 136.5 315 c 128,-1,26
 154 335 154 335 181 337 c 128,-1,27
 208 339 208 339 228 321 c 0,28,29
 414 159 414 159 699 131 c 0,30,31
 842 117 842 117 975 178.5 c 128,-1,32
 1108 240 1108 240 1138 369 c 0,33,34
 1152 429 1152 429 1119.5 494 c 128,-1,35
 1087 559 1087 559 1009 599 c 128,-1,36
 931 639 931 639 748 634 c 1,37,38
 541 618 541 618 425.5 650 c 128,-1,39
 310 682 310 682 228 756 c 128,-1,40
 146 830 146 830 115 935 c 128,-1,41
 84 1040 84 1040 118.5 1145 c 128,-1,42
 153 1250 153 1250 245 1319 c 0,43,44
 374 1416 374 1416 571 1414 c 128,-1,45
 768 1412 768 1412 936 1345.5 c 128,-1,46
 1104 1279 1104 1279 1228 1161 c 0,47,48
 1247 1143 1247 1143 1247.5 1115.5 c 128,-1,0
 1248 1088 1248 1088 1230 1069 c 128,-1,1
EndSplineSet
EndChar

StartChar: T
Encoding: 84 84 55
Width: 1389
GlyphClass: 2
Flags: W
LayerCount: 2
Fore
SplineSet
100 1382.5 m 128,-1,1
 100 1409 100 1409 119.5 1428 c 128,-1,2
 139 1447 139 1447 165 1447 c 2,3,-1
 1225 1443 l 2,4,5
 1251 1443 1251 1443 1270.5 1423.5 c 128,-1,6
 1290 1404 1290 1404 1289.5 1377.5 c 128,-1,7
 1289 1351 1289 1351 1270 1332 c 128,-1,8
 1251 1313 1251 1313 1224 1313 c 0,9,10
 1000 1314 1000 1314 775 1314 c 1,11,-1
 775 39 l 2,12,13
 775 12 775 12 755.5 -7 c 128,-1,14
 736 -26 736 -26 709.5 -26 c 128,-1,15
 683 -26 683 -26 664 -7 c 128,-1,16
 645 12 645 12 645 39 c 2,17,-1
 645 1314 l 1,18,-1
 645 1315 l 1,19,-1
 165 1317 l 2,20,21
 138 1317 138 1317 119 1336.5 c 128,-1,0
 100 1356 100 1356 100 1382.5 c 128,-1,1
EndSplineSet
EndChar

StartChar: U
Encoding: 85 85 56
Width: 1370
GlyphClass: 2
Flags: W
LayerCount: 2
Fore
SplineSet
170 1443 m 128,-1,1
 197 1442 197 1442 215.5 1422.5 c 128,-1,2
 234 1403 234 1403 233 1376 c 0,3,4
 218 800 218 800 271.5 528 c 128,-1,5
 325 256 325 256 423 180.5 c 128,-1,6
 521 105 521 105 686 111 c 0,7,8
 914 118 914 118 1027 303 c 0,9,10
 1115 445 1115 445 1136 712 c 128,-1,11
 1157 979 1157 979 1086 1383 c 0,12,13
 1081 1410 1081 1410 1097 1432 c 128,-1,14
 1113 1454 1113 1454 1139 1458.5 c 128,-1,15
 1165 1463 1165 1463 1187 1447.5 c 128,-1,16
 1209 1432 1209 1432 1214 1406 c 0,17,18
 1390 400 1390 400 1018 94 c 0,19,20
 887 -13 887 -13 690 -19 c 0,21,22
 591 -23 591 -23 507 -3 c 128,-1,23
 423 17 423 17 344.5 77 c 128,-1,24
 266 137 266 137 220.5 242 c 128,-1,25
 175 347 175 347 144 502 c 0,26,27
 88 789 88 789 103 1380 c 0,28,29
 104 1406 104 1406 123.5 1425 c 128,-1,0
 143 1444 143 1444 170 1443 c 128,-1,1
EndSplineSet
EndChar

StartChar: V
Encoding: 86 86 57
Width: 1246
GlyphClass: 2
Flags: W
LayerCount: 2
Fore
SplineSet
156 1424 m 128,-1,1
 182 1428 182 1428 204 1411.5 c 128,-1,2
 226 1395 226 1395 229 1369 c 0,3,4
 301 858 301 858 387 525.5 c 128,-1,5
 473 193 473 193 552 150 c 0,6,7
 566 142 566 142 581 155 c 0,8,9
 763 333 763 333 1019 1359 c 0,10,11
 1025 1384 1025 1384 1048.5 1398.5 c 128,-1,12
 1072 1413 1072 1413 1097.5 1406.5 c 128,-1,13
 1123 1400 1123 1400 1137 1376.5 c 128,-1,14
 1151 1353 1151 1353 1145 1327 c 0,15,16
 900 342 900 342 713 108 c 0,17,18
 639 17 639 17 547 22 c 0,19,20
 373 32 373 32 257 485 c 0,21,22
 179 792 179 792 101 1351 c 0,23,24
 97 1377 97 1377 113.5 1398.5 c 128,-1,0
 130 1420 130 1420 156 1424 c 128,-1,1
EndSplineSet
EndChar

StartChar: W
Encoding: 87 87 58
Width: 1840
GlyphClass: 2
Flags: W
LayerCount: 2
Fore
SplineSet
163.5 1426 m 128,-1,1
 190 1427 190 1427 209.5 1408 c 128,-1,2
 229 1389 229 1389 230 1363 c 0,3,4
 242 962 242 962 279 682 c 0,5,6
 344 201 344 201 463 117 c 0,7,8
 479 106 479 106 489 106.5 c 128,-1,9
 499 107 499 107 518 123 c 0,10,11
 574 168 574 168 633.5 281.5 c 128,-1,12
 693 395 693 395 742 562 c 0,13,14
 852 934 852 934 863 1372 c 0,15,16
 864 1398 864 1398 883.5 1417 c 128,-1,17
 903 1436 903 1436 929.5 1435 c 128,-1,18
 956 1434 956 1434 974 1414.5 c 128,-1,19
 992 1395 992 1395 993 1373 c 0,20,21
 1022 682 1022 682 1174 319 c 0,22,23
 1218 216 1218 216 1262.5 159 c 128,-1,24
 1307 102 1307 102 1335.5 92.5 c 128,-1,25
 1364 83 1364 83 1383 84 c 0,26,27
 1421 86 1421 86 1467 152 c 0,28,29
 1575 306 1575 306 1601 634.5 c 128,-1,30
 1627 963 1627 963 1586 1338 c 0,31,32
 1583 1364 1583 1364 1600 1385.5 c 128,-1,33
 1617 1407 1617 1407 1643.5 1410 c 128,-1,34
 1670 1413 1670 1413 1691.5 1396 c 128,-1,35
 1713 1379 1713 1379 1715 1352 c 0,36,37
 1758 965 1758 965 1730 613 c 128,-1,38
 1702 261 1702 261 1574 78 c 0,39,40
 1521 2 1521 2 1450 -29 c 128,-1,41
 1379 -60 1379 -60 1302 -33.5 c 128,-1,42
 1225 -7 1225 -7 1166 68.5 c 128,-1,43
 1107 144 1107 144 1039 305 c 128,-1,44
 971 466 971 466 923 749 c 1,45,46
 855 423 855 423 747 218 c 0,47,48
 574 -111 574 -111 390 10 c 0,49,50
 307 68 307 68 249 218 c 0,51,52
 124 539 124 539 100 1359 c 0,53,54
 99 1386 99 1386 118 1405.5 c 128,-1,0
 137 1425 137 1425 163.5 1426 c 128,-1,1
EndSplineSet
EndChar

StartChar: X
Encoding: 88 88 59
Width: 1421
GlyphClass: 2
Flags: W
LayerCount: 2
Fore
SplineSet
1297 -2.5 m 128,-1,1
 1276 -19 1276 -19 1249 -15.5 c 128,-1,2
 1222 -12 1222 -12 1205 9 c 0,3,4
 962 325 962 325 719 640 c 1,5,-1
 216 -11 l 2,6,7
 200 -32 200 -32 173 -35.5 c 128,-1,8
 146 -39 146 -39 125 -22.5 c 128,-1,9
 104 -6 104 -6 100.5 21 c 128,-1,10
 97 48 97 48 113 69 c 2,11,-1
 636 746 l 1,12,13
 400 1053 400 1053 164 1359 c 0,14,15
 148 1380 148 1380 151 1407 c 128,-1,16
 154 1434 154 1434 175.5 1450 c 128,-1,17
 197 1466 197 1466 223.5 1462.5 c 128,-1,18
 250 1459 250 1459 267 1438 c 0,19,20
 493 1145 493 1145 719 853 c 1,21,-1
 1155 1418 l 2,22,23
 1171 1439 1171 1439 1198 1442.5 c 128,-1,24
 1225 1446 1225 1446 1246 1430 c 128,-1,25
 1267 1414 1267 1414 1270.5 1387 c 128,-1,26
 1274 1360 1274 1360 1258 1339 c 2,27,-1
 801 746 l 1,28,29
 1054 418 1054 418 1308 89 c 0,30,31
 1325 68 1325 68 1321.5 41 c 128,-1,0
 1318 14 1318 14 1297 -2.5 c 128,-1,1
EndSplineSet
EndChar

StartChar: Y
Encoding: 89 89 60
Width: 1272
GlyphClass: 2
Flags: W
LayerCount: 2
Fore
SplineSet
123.5 1425 m 128,-1,1
 144 1442 144 1442 171 1439.5 c 128,-1,2
 198 1437 198 1437 215 1416 c 2,3,-1
 738 782 l 1,4,5
 893 1120 893 1120 1048 1459 c 0,6,7
 1059 1483 1059 1483 1084.5 1492.5 c 128,-1,8
 1110 1502 1110 1502 1134 1491 c 128,-1,9
 1158 1480 1158 1480 1167.5 1454.5 c 128,-1,10
 1177 1429 1177 1429 1166 1405 c 2,11,-1
 504 -41 l 2,12,13
 493 -65 493 -65 467.5 -74.5 c 128,-1,14
 442 -84 442 -84 418 -73 c 128,-1,15
 394 -62 394 -62 384.5 -36.5 c 128,-1,16
 375 -11 375 -11 386 13 c 0,17,18
 532 332 532 332 678 650 c 1,19,-1
 115 1334 l 2,20,21
 98 1354 98 1354 100.5 1381 c 128,-1,0
 103 1408 103 1408 123.5 1425 c 128,-1,1
EndSplineSet
EndChar

StartChar: Z
Encoding: 90 90 61
Width: 1473
GlyphClass: 2
Flags: W
LayerCount: 2
Fore
SplineSet
1259 136 m 1,0,1
 1303 168 1303 168 1346 130 c 128,-1,2
 1389 92 1389 92 1363.5 52 c 128,-1,3
 1338 12 1338 12 1311 11 c 0,4,5
 1306 11 1306 11 1287 7 c 0,6,7
 1216 -8 1216 -8 215 19 c 0,8,9
 142 21 142 21 111 74.5 c 128,-1,10
 80 128 80 128 140 204.5 c 128,-1,11
 200 281 200 281 433.5 483.5 c 128,-1,12
 667 686 667 686 792.5 809 c 128,-1,13
 918 932 918 932 989 1044 c 0,14,15
 1085 1196 1085 1196 1038 1258 c 128,-1,16
 991 1320 991 1320 781 1325 c 0,17,18
 639 1328 639 1328 469.5 1318.5 c 128,-1,19
 300 1309 300 1309 196 1311 c 0,20,21
 169 1311 169 1311 150.5 1331 c 128,-1,22
 132 1351 132 1351 132.5 1377.5 c 128,-1,23
 133 1404 133 1404 152.5 1422.5 c 128,-1,24
 172 1441 172 1441 199 1441 c 0,25,26
 298 1439 298 1439 467.5 1448.5 c 128,-1,27
 637 1458 637 1458 784 1455 c 0,28,29
 1170 1446 1170 1446 1185 1225 c 0,30,31
 1199 1026 1199 1026 892 725 c 0,32,33
 756 591 756 591 539.5 403 c 128,-1,34
 323 215 323 215 262 148 c 1,35,36
 1104 125 1104 125 1259 136 c 1,0,1
EndSplineSet
EndChar

StartChar: bracketleft
Encoding: 91 91 62
Width: 868
GlyphClass: 2
Flags: W
LayerCount: 2
Fore
SplineSet
693 1434 m 2,0,1
 694 1434 694 1434 708 1434 c 128,-1,2
 722 1434 722 1434 741 1415 c 128,-1,3
 760 1396 760 1396 760 1369 c 128,-1,4
 760 1342 760 1342 741.5 1323 c 128,-1,5
 723 1304 723 1304 696 1304 c 2,6,-1
 230 1295 l 1,7,-1
 240 7 l 1,8,-1
 702 15 l 2,9,10
 703 15 703 15 716.5 15 c 128,-1,11
 730 15 730 15 749.5 -4 c 128,-1,12
 769 -23 769 -23 769 -50 c 128,-1,13
 769 -77 769 -77 750 -96 c 128,-1,14
 731 -115 731 -115 704 -115 c 2,15,-1
 177 -125 l 2,16,17
 176 -125 176 -125 162.5 -125 c 128,-1,18
 149 -125 149 -125 130 -106 c 128,-1,19
 111 -87 111 -87 110 -60 c 2,20,-1
 100 1358 l 1,21,-1
 100 1359 l 2,22,23
 100 1395 100 1395 132 1414 c 0,24,25
 146 1423 146 1423 164 1424 c 2,26,-1
 693 1434 l 2,0,1
EndSplineSet
EndChar

StartChar: backslash
Encoding: 92 92 63
Width: 959
GlyphClass: 2
Flags: W
LayerCount: 2
Fore
SplineSet
139 1509 m 128,-1,1
 163 1520 163 1520 188.5 1510 c 128,-1,2
 214 1500 214 1500 224 1476 c 2,3,-1
 854 -12 l 2,4,5
 864 -37 864 -37 854 -62 c 128,-1,6
 844 -87 844 -87 820 -97.5 c 128,-1,7
 796 -108 796 -108 770.5 -98.5 c 128,-1,8
 745 -89 745 -89 734 -64 c 2,9,-1
 106 1423 l 2,10,11
 95 1448 95 1448 105 1473 c 128,-1,0
 115 1498 115 1498 139 1509 c 128,-1,1
EndSplineSet
EndChar

StartChar: bracketright
Encoding: 93 93 64
Width: 868
GlyphClass: 2
Flags: W
LayerCount: 2
Fore
SplineSet
175 1434 m 2,0,-1
 705 1424 l 2,1,2
 722 1423 722 1423 736.5 1414.5 c 128,-1,3
 751 1406 751 1406 760 1391 c 128,-1,4
 769 1376 769 1376 769 1359 c 2,5,-1
 769 1358 l 1,6,-1
 758 -60 l 2,7,8
 758 -87 758 -87 739 -106 c 128,-1,9
 720 -125 720 -125 693 -125 c 2,10,11
 693 -125 693 -125 692 -125 c 2,12,-1
 165 -115 l 2,13,14
 138 -115 138 -115 119 -96 c 128,-1,15
 100 -77 100 -77 100 -50 c 128,-1,16
 100 -23 100 -23 119 -4 c 128,-1,17
 138 15 138 15 165 15 c 0,18,19
 166 15 166 15 167 15 c 2,20,-1
 629 7 l 1,21,-1
 638 1295 l 1,22,-1
 173 1304 l 2,23,24
 146 1304 146 1304 127 1323 c 128,-1,25
 108 1342 108 1342 108 1369 c 128,-1,26
 108 1396 108 1396 127 1415 c 128,-1,27
 146 1434 146 1434 173 1434 c 0,28,29
 174 1434 174 1434 175 1434 c 2,0,-1
EndSplineSet
EndChar

StartChar: asciicircum
Encoding: 94 94 65
Width: 1142
GlyphClass: 2
Flags: W
LayerCount: 2
Fore
SplineSet
141.5 209.5 m 128,-1,1
 117 219 117 219 106 244 c 128,-1,2
 95 269 95 269 104 293 c 0,3,4
 156 426 156 426 240 650 c 0,5,6
 374 1009 374 1009 423 1105 c 0,7,8
 436 1132 436 1132 445 1148.5 c 128,-1,9
 454 1165 454 1165 470 1187.5 c 128,-1,10
 486 1210 486 1210 501 1222.5 c 128,-1,11
 516 1235 516 1235 537.5 1244 c 128,-1,12
 559 1253 559 1253 583 1253 c 0,13,14
 608 1253 608 1253 630 1242 c 128,-1,15
 652 1231 652 1231 666.5 1217.5 c 128,-1,16
 681 1204 681 1204 697.5 1178.5 c 128,-1,17
 714 1153 714 1153 723 1136 c 128,-1,18
 732 1119 732 1119 746 1087 c 0,19,20
 797 980 797 980 938 576 c 1,21,-1
 939 571 l 1,22,23
 1002 392 1002 392 1038 289 c 0,24,25
 1047 264 1047 264 1035.5 239.5 c 128,-1,26
 1024 215 1024 215 999 206 c 128,-1,27
 974 197 974 197 949.5 208.5 c 128,-1,28
 925 220 925 220 916 245 c 0,29,30
 879 349 879 349 816 529 c 1,31,-1
 815 533 l 1,32,33
 676 931 676 931 629 1033 c 0,34,35
 602 1089 602 1089 581 1115 c 1,36,37
 562 1092 562 1092 539 1046 c 0,38,39
 493 957 493 957 361 604 c 0,40,41
 277 380 277 380 226 247 c 0,42,43
 216 222 216 222 191 211 c 128,-1,0
 166 200 166 200 141.5 209.5 c 128,-1,1
EndSplineSet
EndChar

StartChar: underscore
Encoding: 95 95 66
Width: 783
GlyphClass: 2
Flags: W
LayerCount: 2
Fore
SplineSet
82 -160 m 128,-1,1
 82 -133 82 -133 101 -114 c 128,-1,2
 120 -95 120 -95 147 -95 c 2,3,-1
 628 -95 l 2,4,5
 655 -95 655 -95 674 -114 c 128,-1,6
 693 -133 693 -133 693 -160 c 128,-1,7
 693 -187 693 -187 674 -206 c 128,-1,8
 655 -225 655 -225 628 -225 c 2,9,-1
 147 -225 l 2,10,11
 120 -225 120 -225 101 -206 c 128,-1,0
 82 -187 82 -187 82 -160 c 128,-1,1
EndSplineSet
EndChar

StartChar: grave
Encoding: 96 96 67
Width: 215
GlyphClass: 2
Flags: W
LayerCount: 2
Fore
SplineSet
8 1400.5 m 128,-1,1
 26 1433 26 1433 64.5 1434 c 128,-1,2
 103 1435 103 1435 122 1401 c 2,3,-1
 195 1235 l 1,4,5
 235 1169 235 1169 194 1144.5 c 128,-1,6
 153 1120 153 1120 125 1170 c 1,7,-1
 9 1335 l 2,8,0
 -10 1368 -10 1368 8 1400.5 c 128,-1,1
EndSplineSet
EndChar

StartChar: a
Encoding: 97 97 68
Width: 1095
GlyphClass: 2
Flags: W
LayerCount: 2
Fore
SplineSet
985 695 m 1,0,1
 993 665 993 665 979 619 c 1,2,3
 943 240 943 240 993 56 c 0,4,5
 1000 30 1000 30 986.5 7 c 128,-1,6
 973 -16 973 -16 947.5 -23 c 128,-1,7
 922 -30 922 -30 898.5 -16.5 c 128,-1,8
 875 -3 875 -3 868 23 c 0,9,10
 837 139 837 139 835 315 c 1,11,12
 739 161 739 161 631 74 c 0,13,14
 565 21 565 21 495 14 c 1,15,16
 423 -7 423 -7 352.5 9 c 128,-1,17
 282 25 282 25 228 76 c 0,18,19
 123 175 123 175 103.5 364.5 c 128,-1,20
 84 554 84 554 171 725 c 0,21,22
 275 929 275 929 487 997 c 0,23,24
 673 1058 673 1058 819.5 980 c 128,-1,25
 966 902 966 902 985 695 c 1,0,1
855 686 m 1,26,27
 842 821 842 821 751.5 869 c 128,-1,28
 661 917 661 917 527 873 c 0,29,30
 367 822 367 822 292 675.5 c 128,-1,31
 217 529 217 529 232 382.5 c 128,-1,32
 247 236 247 236 311.5 175.5 c 128,-1,33
 376 115 376 115 465 141 c 0,34,35
 473 143 473 143 489.5 144 c 128,-1,36
 506 145 506 145 557 185 c 0,37,38
 692 291 692 291 808 541 c 0,39,40
 838 606 838 606 851 645 c 1,41,42
 853 665 853 665 855 686 c 1,26,27
EndSplineSet
EndChar

StartChar: b
Encoding: 98 98 69
Width: 1199
GlyphClass: 2
Flags: W
LayerCount: 2
Fore
SplineSet
127 516 m 1,0,1
 133 694 133 694 138 1132 c 2,2,-1
 141 1377 l 2,3,4
 142 1404 142 1404 161 1422.5 c 128,-1,5
 180 1441 180 1441 206.5 1441 c 128,-1,6
 233 1441 233 1441 252.5 1421.5 c 128,-1,7
 272 1402 272 1402 271 1375 c 2,8,-1
 268 1131 l 2,9,10
 266 922 266 922 263 798 c 1,11,12
 466 1002 466 1002 657.5 1014 c 128,-1,13
 849 1026 849 1026 965.5 880.5 c 128,-1,14
 1082 735 1082 735 1097.5 535.5 c 128,-1,15
 1113 336 1113 336 1010 184 c 0,16,17
 880 -8 880 -8 620 -18 c 0,18,19
 387 -27 387 -27 244 208 c 1,20,21
 239 121 239 121 233.5 69.5 c 128,-1,22
 228 18 228 18 187 5 c 0,23,24
 162 -3 162 -3 137.5 10.5 c 128,-1,25
 113 24 113 24 105 50 c 128,-1,26
 97 76 97 76 101 137 c 128,-1,27
 105 198 105 198 112.5 284 c 128,-1,28
 120 370 120 370 119.5 432.5 c 128,-1,29
 119 495 119 495 127 516 c 1,0,1
259 597 m 1,30,31
 258 550 258 550 257 506 c 1,32,33
 264 487 264 487 278 445 c 0,34,35
 394 104 394 104 611 112 c 0,36,37
 809 119 809 119 902 257 c 0,38,39
 980 372 980 372 968 528.5 c 128,-1,40
 956 685 956 685 873 788.5 c 128,-1,41
 790 892 790 892 670 885 c 0,42,43
 481 872 481 872 259 597 c 1,30,31
EndSplineSet
EndChar

StartChar: c
Encoding: 99 99 70
Width: 964
GlyphClass: 2
Flags: W
LayerCount: 2
Fore
SplineSet
853.5 870.5 m 128,-1,1
 846 845 846 845 822 832 c 128,-1,2
 798 819 798 819 773 827 c 0,3,4
 582 885 582 885 432 778 c 0,5,6
 317 697 317 697 262.5 553 c 128,-1,7
 208 409 208 409 243 291.5 c 128,-1,8
 278 174 278 174 388 135 c 0,9,10
 533 84 533 84 777 173 c 0,11,12
 802 183 802 183 826.5 171.5 c 128,-1,13
 851 160 851 160 860 135 c 128,-1,14
 869 110 869 110 857.5 85 c 128,-1,15
 846 60 846 60 821 51 c 0,16,17
 534 -54 534 -54 353 9.5 c 128,-1,18
 172 73 172 73 121.5 243.5 c 128,-1,19
 71 414 71 414 140 597 c 128,-1,20
 209 780 209 780 357 885 c 0,21,22
 559 1028 559 1028 810 951 c 0,23,24
 836 944 836 944 848.5 920 c 128,-1,0
 861 896 861 896 853.5 870.5 c 128,-1,1
EndSplineSet
EndChar

StartChar: d
Encoding: 100 100 71
Width: 1192
GlyphClass: 2
Flags: W
LayerCount: 2
Fore
SplineSet
1073 530 m 1,0,1
 1081 509 1081 509 1079.5 446.5 c 128,-1,2
 1078 384 1078 384 1084 298 c 128,-1,3
 1090 212 1090 212 1092.5 151 c 128,-1,4
 1095 90 1095 90 1087 63 c 0,5,6
 1079 38 1079 38 1053 25 c 0,7,8
 1029 12 1029 12 1004 21 c 0,9,10
 963 34 963 34 958.5 85.5 c 128,-1,11
 954 137 954 137 951 225 c 1,12,13
 803 -8 803 -8 571 6 c 0,14,15
 311 21 311 21 184 215 c 0,16,17
 84 369 84 369 103.5 568 c 128,-1,18
 123 767 123 767 242 910.5 c 128,-1,19
 361 1054 361 1054 552.5 1038.5 c 128,-1,20
 744 1023 744 1023 943 815 c 1,21,22
 943 939 943 939 944 1148 c 2,23,-1
 946 1392 l 2,24,25
 946 1419 946 1419 966 1438 c 0,26,27
 985 1457 985 1457 1011.5 1456.5 c 128,-1,28
 1038 1456 1038 1456 1057 1437 c 0,29,30
 1076 1419 1076 1419 1076 1391 c 2,31,-1
 1074 1146 l 2,32,33
 1071 709 1071 709 1073 530 c 1,0,1
943 614 m 1,34,35
 726 893 726 893 538 909 c 0,36,37
 418 919 418 919 333 817 c 128,-1,38
 248 715 248 715 233 558.5 c 128,-1,39
 218 402 218 402 294 286 c 0,40,41
 384 146 384 146 582 135 c 0,42,43
 799 123 799 123 921 462 c 0,44,45
 936 504 936 504 943 523 c 1,46,47
 943 567 943 567 943 614 c 1,34,35
EndSplineSet
EndChar

StartChar: e
Encoding: 101 101 72
Width: 1156
GlyphClass: 2
Flags: W
LayerCount: 2
Fore
SplineSet
242 339 m 1,0,1
 256 288 256 288 288 244 c 0,2,3
 368 129 368 129 541.5 117.5 c 128,-1,4
 715 106 715 106 960 228 c 0,5,6
 984 239 984 239 1010 230.5 c 128,-1,7
 1036 222 1036 222 1047.5 198 c 128,-1,8
 1059 174 1059 174 1050.5 148.5 c 128,-1,9
 1042 123 1042 123 1018 111 c 0,10,11
 741 -26 741 -26 519.5 -11 c 128,-1,12
 298 4 298 4 181 169 c 0,13,14
 82 310 82 310 104 498 c 128,-1,15
 126 686 126 686 263 823 c 0,16,17
 440 999 440 999 726 999 c 0,18,19
 871 999 871 999 962 929 c 0,20,21
 1068 847 1068 847 1054.5 716 c 128,-1,22
 1041 585 1041 585 893 485 c 0,23,24
 675 337 675 337 258 337 c 0,25,26
 250 337 250 337 242 339 c 1,0,1
231 461 m 1,27,28
 244 467 244 467 258 467 c 0,29,30
 635 467 635 467 821 593 c 0,31,32
 918 659 918 659 926 734 c 0,33,34
 931 788 931 788 878.5 828.5 c 128,-1,35
 826 869 826 869 727 869 c 0,36,37
 493 869 493 869 355 731 c 0,38,39
 243 619 243 619 231 461 c 1,27,28
EndSplineSet
EndChar

StartChar: f
Encoding: 102 102 73
Width: 1106
GlyphClass: 2
Flags: W
LayerCount: 2
Fore
SplineSet
100 916.5 m 128,-1,1
 100 943 100 943 119 962.5 c 128,-1,2
 138 982 138 982 165 982 c 2,3,-1
 342 982 l 1,4,5
 344 1115 344 1115 345.5 1182 c 128,-1,6
 347 1249 347 1249 380.5 1308.5 c 128,-1,7
 414 1368 414 1368 475 1406 c 0,8,9
 594 1480 594 1480 746 1446.5 c 128,-1,10
 898 1413 898 1413 997 1260 c 0,11,12
 1011 1238 1011 1238 1005.5 1211.5 c 128,-1,13
 1000 1185 1000 1185 977.5 1170.5 c 128,-1,14
 955 1156 955 1156 928.5 1161.5 c 128,-1,15
 902 1167 902 1167 887 1189 c 0,16,17
 817 1298 817 1298 717.5 1320 c 128,-1,18
 618 1342 618 1342 547.5 1298 c 128,-1,19
 477 1254 477 1254 475.5 1183 c 128,-1,20
 474 1112 474 1112 472 982 c 1,21,-1
 641 982 l 2,22,23
 667 982 667 982 686.5 962.5 c 128,-1,24
 706 943 706 943 706 916.5 c 128,-1,25
 706 890 706 890 686.5 871 c 128,-1,26
 667 852 667 852 641 852 c 2,27,-1
 471 852 l 1,28,29
 470 741 470 741 468 263 c 2,30,-1
 467 64 l 2,31,32
 467 37 467 37 447.5 18 c 128,-1,33
 428 -1 428 -1 401.5 -1 c 128,-1,34
 375 -1 375 -1 356 18.5 c 128,-1,35
 337 38 337 38 337 65 c 2,36,-1
 338 263 l 2,37,38
 340 739 340 739 341 852 c 1,39,-1
 165 852 l 2,40,41
 138 852 138 852 119 871 c 128,-1,0
 100 890 100 890 100 916.5 c 128,-1,1
EndSplineSet
EndChar

StartChar: g
Encoding: 103 103 74
Width: 1119
GlyphClass: 2
Flags: W
LayerCount: 2
Fore
SplineSet
865 657 m 1,0,1
 863 672 863 672 863 677 c 0,2,3
 847 874 847 874 709 885 c 0,4,5
 644 890 644 890 584 868 c 0,6,7
 445 818 445 818 378 667 c 128,-1,8
 311 516 311 516 327 363 c 128,-1,9
 343 210 343 210 398.5 157 c 128,-1,10
 454 104 454 104 520 127 c 0,11,12
 529 130 529 130 544 130.5 c 128,-1,13
 559 131 559 131 597.5 164.5 c 128,-1,14
 636 198 636 198 701 294 c 128,-1,15
 766 390 766 390 812.5 507 c 128,-1,16
 859 624 859 624 865 657 c 1,0,1
993 685 m 0,17,18
 998 664 998 664 1010 516 c 0,19,20
 1052 6 1052 6 917 -274 c 0,21,22
 840 -431 840 -431 717.5 -504.5 c 128,-1,23
 595 -578 595 -578 442 -560.5 c 128,-1,24
 289 -543 289 -543 131 -447 c 0,25,26
 108 -433 108 -433 102 -406.5 c 128,-1,27
 96 -380 96 -380 109.5 -357.5 c 128,-1,28
 123 -335 123 -335 149.5 -328.5 c 128,-1,29
 176 -322 176 -322 199 -336 c 0,30,31
 333 -417 333 -417 451.5 -430.5 c 128,-1,32
 570 -444 570 -444 654.5 -393.5 c 128,-1,33
 739 -343 739 -343 800 -217 c 0,34,35
 901 -8 901 -8 889 365 c 1,36,37
 716 21 716 21 554 1 c 1,38,39
 418 -41 418 -41 318.5 54 c 128,-1,40
 219 149 219 149 198.5 343 c 128,-1,41
 178 537 178 537 256 714 c 0,42,43
 348 921 348 921 540 990 c 0,44,45
 626 1022 626 1022 703 1016 c 0,46,47
 833 1006 833 1006 907.5 918 c 128,-1,48
 982 830 982 830 993 685 c 0,17,18
EndSplineSet
EndChar

StartChar: h
Encoding: 104 104 75
Width: 1120
GlyphClass: 2
Flags: W
LayerCount: 2
Fore
SplineSet
103 254 m 1,0,-1
 100 1396 l 2,1,2
 100 1422 100 1422 119 1441.5 c 128,-1,3
 138 1461 138 1461 164.5 1461 c 128,-1,4
 191 1461 191 1461 210.5 1441.5 c 128,-1,5
 230 1422 230 1422 230 1396 c 2,6,-1
 231 800 l 1,7,8
 345 998 345 998 514.5 1018.5 c 128,-1,9
 684 1039 684 1039 821.5 920 c 128,-1,10
 959 801 959 801 1003 597 c 0,11,12
 1062 321 1062 321 915 24 c 0,13,14
 904 1 904 1 878 -8 c 128,-1,15
 852 -17 852 -17 828.5 -5 c 128,-1,16
 805 7 805 7 796 32.5 c 128,-1,17
 787 58 787 58 799 82 c 0,18,19
 926 338 926 338 876 570 c 0,20,21
 841 731 841 731 742 817 c 128,-1,22
 643 903 643 903 536 890 c 128,-1,23
 429 877 429 877 349 743 c 0,24,25
 245 569 245 569 233 251 c 1,26,-1
 233 55 l 2,27,28
 233 31 233 31 215 11 c 128,-1,29
 197 -9 197 -9 170.5 -10 c 128,-1,30
 144 -11 144 -11 124 7.5 c 128,-1,31
 104 26 104 26 103 52 c 0,32,33
 99 158 99 158 103 254 c 1,0,-1
EndSplineSet
EndChar

StartChar: i
Encoding: 105 105 76
Width: 455
GlyphClass: 2
Flags: W
LayerCount: 2
Fore
SplineSet
243 1363 m 0,0,1
 282 1362 282 1362 309 1339 c 0,2,3
 369 1287 369 1287 352.5 1221.5 c 128,-1,4
 336 1156 336 1156 270 1133 c 1,5,6
 160 1078 160 1078 115 1160 c 0,7,8
 80 1225 80 1225 129 1295 c 128,-1,9
 178 1365 178 1365 243 1363 c 0,0,1
193 -9 m 0,10,11
 167 -17 167 -17 143.5 -4 c 128,-1,12
 120 9 120 9 112.5 34 c 128,-1,13
 105 59 105 59 113 80 c 0,14,15
 133 125 133 125 138.5 416 c 128,-1,16
 144 707 144 707 141 942 c 0,17,18
 141 969 141 969 159.5 988.5 c 128,-1,19
 178 1008 178 1008 204.5 1008.5 c 128,-1,20
 231 1009 231 1009 250.5 990 c 128,-1,21
 270 971 270 971 270 944 c 0,22,23
 274 707 274 707 271 548 c 128,-1,24
 268 389 268 389 267 322 c 128,-1,25
 266 255 266 255 262 163 c 0,26,27
 256 10 256 10 193 -9 c 0,10,11
EndSplineSet
EndChar

StartChar: j
Encoding: 106 106 77
Width: 865
GlyphClass: 2
Flags: W
LayerCount: 2
Fore
SplineSet
656.5 970 m 128,-1,1
 676 950 676 950 677 925.5 c 128,-1,2
 678 901 678 901 705 723 c 0,3,4
 816 12 816 12 723 -291 c 128,-1,5
 630 -594 630 -594 361 -573 c 0,6,7
 261 -565 261 -565 138 -509 c 0,8,9
 114 -498 114 -498 104.5 -473 c 128,-1,10
 95 -448 95 -448 106 -423.5 c 128,-1,11
 117 -399 117 -399 142.5 -389.5 c 128,-1,12
 168 -380 168 -380 192 -391 c 0,13,14
 441 -504 441 -504 547 -370 c 0,15,16
 616 -283 616 -283 635 -38 c 128,-1,17
 654 207 654 207 577 703 c 0,18,19
 547 895 547 895 546.5 922.5 c 128,-1,20
 546 950 546 950 565 969.5 c 128,-1,21
 584 989 584 989 610.5 989.5 c 128,-1,0
 637 990 637 990 656.5 970 c 128,-1,1
494 1169 m 0,22,23
 460 1232 460 1232 509 1302.5 c 128,-1,24
 558 1373 558 1373 624 1370 c 0,25,26
 663 1368 663 1368 690 1345 c 0,27,28
 749 1293 749 1293 732.5 1228 c 128,-1,29
 716 1163 716 1163 650 1140 c 1,30,31
 593 1111 593 1111 552 1124 c 128,-1,32
 511 1137 511 1137 494 1169 c 0,22,23
EndSplineSet
EndChar

StartChar: k
Encoding: 107 107 78
Width: 1071
GlyphClass: 2
Flags: W
LayerCount: 2
Fore
SplineSet
202.5 1460 m 128,-1,1
 229 1459 229 1459 247.5 1439 c 128,-1,2
 266 1419 266 1419 264 1392 c 0,3,4
 242 879 242 879 235 559 c 1,5,6
 241 564 241 564 265 579 c 0,7,8
 445 682 445 682 548.5 782.5 c 128,-1,9
 652 883 652 883 652 931 c 0,10,11
 652 958 652 958 671.5 977 c 128,-1,12
 691 996 691 996 717.5 996 c 128,-1,13
 744 996 744 996 763 977 c 128,-1,14
 782 958 782 958 782 916 c 0,15,16
 782 829 782 829 649 699 c 0,17,18
 561 614 561 614 502.5 576 c 128,-1,19
 444 538 444 538 418 521 c 1,20,21
 664 404 664 404 818 282.5 c 128,-1,22
 972 161 972 161 972 57 c 0,23,24
 972 30 972 30 953 11 c 128,-1,25
 934 -8 934 -8 907.5 -8 c 128,-1,26
 881 -8 881 -8 861.5 11.5 c 128,-1,27
 842 31 842 31 842 48 c 0,28,29
 842 98 842 98 754 168 c 0,30,31
 564 318 564 318 254 453 c 0,32,33
 242 458 242 458 232 467 c 1,34,35
 225 127 225 127 236 53 c 0,36,37
 240 27 240 27 224 5 c 128,-1,38
 208 -17 208 -17 181.5 -21 c 128,-1,39
 155 -25 155 -25 133.5 -8.5 c 128,-1,40
 112 8 112 8 108 34 c 0,41,42
 84 194 84 194 135 1398 c 0,43,44
 136 1425 136 1425 156 1443 c 128,-1,0
 176 1461 176 1461 202.5 1460 c 128,-1,1
EndSplineSet
EndChar

StartChar: l
Encoding: 108 108 79
Width: 363
GlyphClass: 2
Flags: W
LayerCount: 2
Fore
SplineSet
202.5 1469 m 128,-1,1
 229 1468 229 1468 247.5 1448 c 128,-1,2
 266 1428 266 1428 264 1401 c 0,3,4
 214 210 214 210 236 62 c 0,5,6
 240 36 240 36 224 14 c 128,-1,7
 208 -8 208 -8 181.5 -12 c 128,-1,8
 155 -16 155 -16 133.5 0.5 c 128,-1,9
 112 17 112 17 108 43 c 0,10,11
 84 203 84 203 135 1407 c 0,12,13
 136 1434 136 1434 156 1452 c 128,-1,0
 176 1470 176 1470 202.5 1469 c 128,-1,1
EndSplineSet
EndChar

StartChar: m
Encoding: 109 109 80
Width: 1619
GlyphClass: 2
Flags: W
LayerCount: 2
Fore
SplineSet
293 796 m 1,0,1
 394 997 394 997 559 979 c 0,2,3
 690 965 690 965 793 813 c 0,4,5
 826 764 826 764 851 707 c 1,6,7
 908 878 908 878 1012 952 c 0,8,9
 1075 997 1075 997 1151 998 c 0,10,11
 1282 999 1282 999 1391 866 c 128,-1,12
 1500 733 1500 733 1517 501.5 c 128,-1,13
 1534 270 1534 270 1409 17 c 0,14,15
 1397 -7 1397 -7 1371 -15.5 c 128,-1,16
 1345 -24 1345 -24 1321.5 -12 c 128,-1,17
 1298 0 1298 0 1289 25.5 c 128,-1,18
 1280 51 1280 51 1292 75 c 0,19,20
 1402 296 1402 296 1388 489 c 128,-1,21
 1374 682 1374 682 1286 790 c 0,22,23
 1222 868 1222 868 1149 867.5 c 128,-1,24
 1076 867 1076 867 1022.5 773.5 c 128,-1,25
 969 680 969 680 952 586 c 128,-1,26
 935 492 935 492 929 424 c 1,27,28
 934 387 934 387 941.5 296.5 c 128,-1,29
 949 206 949 206 930 50 c 0,30,31
 927 24 927 24 905.5 7 c 128,-1,32
 884 -10 884 -10 859 -7 c 128,-1,33
 834 -4 834 -4 818 14 c 128,-1,34
 802 32 802 32 800 53 c 0,35,36
 786 259 786 259 798 421 c 1,37,38
 769 614 769 614 693 728 c 0,39,40
 537 960 537 960 421 759 c 0,41,42
 360 652 360 652 335 462 c 1,43,44
 340 257 340 257 328 119 c 2,45,-1
 322 50 l 2,46,47
 320 24 320 24 299 6.5 c 128,-1,48
 278 -11 278 -11 252.5 -9 c 128,-1,49
 227 -7 227 -7 210 12 c 128,-1,50
 193 31 193 31 192 53 c 0,51,52
 183 290 183 290 205 469 c 1,53,54
 196 779 196 779 114 882 c 0,55,56
 97 903 97 903 100.5 930 c 128,-1,57
 104 957 104 957 124.5 973.5 c 128,-1,58
 145 990 145 990 172 987 c 128,-1,59
 199 984 199 984 216 963 c 0,60,61
 264 902 264 902 293 796 c 1,0,1
EndSplineSet
EndChar

StartChar: n
Encoding: 110 110 81
Width: 1295
GlyphClass: 2
Flags: W
LayerCount: 2
Fore
SplineSet
123 1015 m 128,-1,1
 143 1032 143 1032 170.5 1030 c 128,-1,2
 198 1028 198 1028 215 1007 c 0,3,4
 287 920 287 920 320 739 c 1,5,6
 454 984 454 984 671 1016 c 0,7,8
 851 1041 851 1041 995.5 932.5 c 128,-1,9
 1140 824 1140 824 1182 627 c 0,10,11
 1240 347 1240 347 1054 23 c 0,12,13
 1041 0 1041 0 1014.5 -7 c 128,-1,14
 988 -14 988 -14 965 -1 c 128,-1,15
 942 12 942 12 935 38.5 c 128,-1,16
 928 65 928 65 941 88 c 0,17,18
 1102 369 1102 369 1054 600 c 0,19,20
 1023 749 1023 749 919.5 827 c 128,-1,21
 816 905 816 905 690.5 887 c 128,-1,22
 565 869 565 869 473 738.5 c 128,-1,23
 381 608 381 608 347 413 c 1,24,25
 349 256 349 256 332 97 c 2,26,-1
 328 58 l 2,27,28
 326 32 326 32 305 15 c 128,-1,29
 284 -2 284 -2 258.5 0.5 c 128,-1,30
 233 3 233 3 216.5 22.5 c 128,-1,31
 200 42 200 42 199 63 c 0,32,33
 191 261 191 261 217 422 c 1,34,35
 213 651 213 651 181.5 766.5 c 128,-1,36
 150 882 150 882 124 913 c 128,-1,37
 98 944 98 944 100.5 971 c 128,-1,0
 103 998 103 998 123 1015 c 128,-1,1
EndSplineSet
EndChar

StartChar: o
Encoding: 111 111 82
Width: 1209
GlyphClass: 2
Flags: W
LayerCount: 2
Fore
SplineSet
613 1037 m 0,0,1
 862 1022 862 1022 1021 791 c 0,2,3
 1101 675 1101 675 1109 512 c 128,-1,4
 1117 349 1117 349 1031 215 c 0,5,6
 976 129 976 129 888.5 73 c 128,-1,7
 801 17 801 17 701 -1 c 0,8,9
 551 -29 551 -29 410.5 27.5 c 128,-1,10
 270 84 270 84 185 215 c 0,11,12
 78 380 78 380 106 579 c 128,-1,13
 134 778 134 778 273 905 c 128,-1,14
 412 1032 412 1032 589 1040 c 0,15,16
 601 1041 601 1041 613 1037 c 0,0,1
590 910 m 0,17,18
 463 902 463 902 359.5 808 c 128,-1,19
 256 714 256 714 234.5 562 c 128,-1,20
 213 410 213 410 285 299.5 c 128,-1,21
 357 189 357 189 461 147 c 128,-1,22
 565 105 565 105 659 123 c 0,23,24
 839 156 839 156 921 285 c 0,25,26
 985 384 985 384 979 508 c 128,-1,27
 973 632 973 632 912 721 c 0,28,29
 792 895 792 895 606 907 c 0,30,31
 598 907 598 907 590 910 c 0,17,18
EndSplineSet
EndChar

StartChar: p
Encoding: 112 112 83
Width: 1199
GlyphClass: 2
Flags: W
LayerCount: 2
Fore
SplineSet
127 482 m 1,0,1
 119 503 119 503 119.5 565.5 c 128,-1,2
 120 628 120 628 112.5 714 c 128,-1,3
 105 800 105 800 101 861 c 128,-1,4
 97 922 97 922 105 949 c 0,5,6
 113 974 113 974 138 988 c 0,7,8
 162 1001 162 1001 187 993 c 0,9,10
 228 980 228 980 233.5 928.5 c 128,-1,11
 239 877 239 877 244 790 c 1,12,13
 387 1025 387 1025 620 1016 c 0,14,15
 880 1006 880 1006 1010 814 c 0,16,17
 1113 662 1113 662 1097.5 462.5 c 128,-1,18
 1082 263 1082 263 965.5 117.5 c 128,-1,19
 849 -28 849 -28 657.5 -16 c 128,-1,20
 466 -4 466 -4 263 200 c 1,21,22
 266 76 266 76 268 -133 c 2,23,-1
 271 -377 l 2,24,25
 272 -404 272 -404 252 -424 c 0,26,27
 233 -443 233 -443 206.5 -443 c 128,-1,28
 180 -443 180 -443 161 -424 c 0,29,30
 142 -406 142 -406 141 -379 c 2,31,-1
 138 -134 l 2,32,33
 133 304 133 304 127 482 c 1,0,1
259 401 m 1,34,35
 481 126 481 126 670 113 c 0,36,37
 790 106 790 106 873 209.5 c 128,-1,38
 956 313 956 313 968 469.5 c 128,-1,39
 980 626 980 626 902 741 c 0,40,41
 809 879 809 879 611 886 c 0,42,43
 394 894 394 894 278 553 c 0,44,45
 264 511 264 511 257 492 c 1,46,47
 258 448 258 448 259 401 c 1,34,35
EndSplineSet
EndChar

StartChar: r
Encoding: 114 114 85
Width: 827
GlyphClass: 2
Flags: W
LayerCount: 2
Fore
SplineSet
104.5 97.5 m 128,-1,1
 112 121 112 121 114 146.5 c 128,-1,2
 116 172 116 172 126 283 c 128,-1,3
 136 394 136 394 130.5 615.5 c 128,-1,4
 125 837 125 837 112.5 884.5 c 128,-1,5
 100 932 100 932 114 955.5 c 128,-1,6
 128 979 128 979 154 986 c 128,-1,7
 180 993 180 993 203 979 c 128,-1,8
 226 965 226 965 233 939 c 0,9,10
 254 858 254 858 259 684 c 1,11,12
 404 970 404 970 654 1002 c 0,13,14
 680 1005 680 1005 701.5 988.5 c 128,-1,15
 723 972 723 972 726.5 945.5 c 128,-1,16
 730 919 730 919 713.5 897.5 c 128,-1,17
 697 876 697 876 670 873 c 0,18,19
 416 841 416 841 296 418 c 0,20,21
 267 317 267 317 252 206 c 1,22,23
 248 129 248 129 245 98.5 c 128,-1,24
 242 68 242 68 247.5 56 c 128,-1,25
 253 44 253 44 234 24.5 c 128,-1,26
 215 5 215 5 200 -1 c 0,27,28
 156 -18 156 -18 131 8.5 c 128,-1,29
 106 35 106 35 101.5 54.5 c 128,-1,0
 97 74 97 74 104.5 97.5 c 128,-1,1
EndSplineSet
EndChar

StartChar: s
Encoding: 115 115 86
Width: 1056
GlyphClass: 2
Flags: W
LayerCount: 2
Fore
SplineSet
921.5 742.5 m 128,-1,1
 903 723 903 723 876 722.5 c 128,-1,2
 849 722 849 722 830 740 c 0,3,4
 759 808 759 808 661.5 846.5 c 128,-1,5
 564 885 564 885 485 886 c 0,6,7
 275 888 275 888 237 774 c 0,8,9
 208 687 208 687 285 617 c 128,-1,10
 362 547 362 547 566 563 c 1,11,12
 724 568 724 568 807 525 c 128,-1,13
 890 482 890 482 929.5 403 c 128,-1,14
 969 324 969 324 951 246 c 0,15,16
 918 100 918 100 770 33 c 0,17,18
 656 -19 656 -19 530 -8 c 0,19,20
 292 15 292 15 136 152 c 0,21,22
 116 169 116 169 114.5 196.5 c 128,-1,23
 113 224 113 224 130.5 244 c 128,-1,24
 148 264 148 264 175 265.5 c 128,-1,25
 202 267 202 267 222 250 c 0,26,27
 347 141 347 141 523.5 124 c 128,-1,28
 700 107 700 107 787 201 c 0,29,30
 850 270 850 270 813 346 c 0,31,32
 766 440 766 440 590.5 432.5 c 128,-1,33
 415 425 415 425 335.5 446.5 c 128,-1,34
 256 468 256 468 195 523.5 c 128,-1,35
 134 579 134 579 111 657.5 c 128,-1,36
 88 736 88 736 114 815 c 128,-1,37
 140 894 140 894 201 940 c 0,38,39
 305 1018 305 1018 447 1016 c 0,40,41
 732 1013 732 1013 919 834 c 0,42,43
 938 816 938 816 939 789 c 128,-1,0
 940 762 940 762 921.5 742.5 c 128,-1,1
EndSplineSet
EndChar

StartChar: t
Encoding: 116 116 87
Width: 812
GlyphClass: 2
Flags: W
LayerCount: 2
Fore
SplineSet
100 917.5 m 128,-1,1
 100 944 100 944 119.5 963 c 128,-1,2
 139 982 139 982 165 982 c 2,3,-1
 366 981 l 1,4,5
 367 1003 367 1003 372.5 1136.5 c 128,-1,6
 378 1270 378 1270 374 1378 c 0,7,8
 373 1405 373 1405 392 1424.5 c 128,-1,9
 411 1444 411 1444 437.5 1445 c 128,-1,10
 464 1446 464 1446 483.5 1427.5 c 128,-1,11
 503 1409 503 1409 504 1382 c 0,12,13
 508 1270 508 1270 502.5 1135 c 128,-1,14
 497 1000 497 1000 496 980 c 1,15,-1
 647 979 l 2,16,17
 674 979 674 979 693 959.5 c 128,-1,18
 712 940 712 940 712 913.5 c 128,-1,19
 712 887 712 887 692.5 868 c 128,-1,20
 673 849 673 849 647 849 c 0,21,22
 569 849 569 849 492 850 c 1,23,24
 478 349 478 349 539 171 c 0,25,26
 561 105 561 105 586.5 91.5 c 128,-1,27
 612 78 612 78 620 52 c 128,-1,28
 628 26 628 26 615.5 2.5 c 128,-1,29
 603 -21 603 -21 577 -29 c 128,-1,30
 551 -37 551 -37 527 -25 c 0,31,32
 399 44 399 44 371 352 c 0,33,34
 354 553 354 553 362 851 c 1,35,36
 263 851 263 851 165 852 c 0,37,38
 138 852 138 852 119 871.5 c 128,-1,0
 100 891 100 891 100 917.5 c 128,-1,1
EndSplineSet
EndChar

StartChar: u
Encoding: 117 117 88
Width: 1114
GlyphClass: 2
Flags: W
LayerCount: 2
Fore
SplineSet
815 934 m 1,0,1
 828 984 828 984 873 989 c 0,2,3
 900 991 900 991 921 974 c 128,-1,4
 942 957 942 957 944 931 c 0,5,6
 966 717 966 717 935 538 c 1,7,8
 941 192 941 192 997 89 c 0,9,10
 1002 79 1002 79 1005 76 c 0,11,12
 1029 63 1029 63 1036.5 37.5 c 128,-1,13
 1044 12 1044 12 1032 -11.5 c 128,-1,14
 1020 -35 1020 -35 994 -43 c 128,-1,15
 968 -51 968 -51 934 -33 c 0,16,17
 859 6 859 6 826 229 c 1,18,19
 754 106 754 106 648 39 c 0,20,21
 500 -56 500 -56 355.5 -2 c 128,-1,22
 211 52 211 52 144 235 c 0,23,24
 45 504 45 504 168 963 c 0,25,26
 175 989 175 989 198.5 1002.5 c 128,-1,27
 222 1016 222 1016 247.5 1009 c 128,-1,28
 273 1002 273 1002 287 978.5 c 128,-1,29
 301 955 301 955 294 929 c 0,30,31
 180 519 180 519 266 279 c 0,32,33
 311 153 311 153 398 121 c 128,-1,34
 485 89 485 89 578 148 c 0,35,36
 750 257 750 257 805 549 c 1,37,38
 803 672 803 672 808 819 c 2,39,-1
 815 934 l 1,0,1
EndSplineSet
EndChar

StartChar: v
Encoding: 118 118 89
Width: 975
GlyphClass: 2
Flags: W
LayerCount: 2
Fore
SplineSet
156 1027.5 m 128,-1,1
 182 1031 182 1031 204 1014.5 c 128,-1,2
 226 998 226 998 229 972 c 0,3,4
 334 219 334 219 443 131 c 1,5,6
 561 215 561 215 747 967 c 0,7,8
 753 993 753 993 776.5 1007 c 128,-1,9
 800 1021 800 1021 826 1014.5 c 128,-1,10
 852 1008 852 1008 866 985 c 128,-1,11
 880 962 880 962 874 936 c 0,12,13
 728 348 728 348 617.5 148.5 c 128,-1,14
 507 -51 507 -51 385 13 c 0,15,16
 290 63 290 63 225 298 c 0,17,18
 159 533 159 533 101 954 c 0,19,20
 97 980 97 980 113.5 1002 c 128,-1,0
 130 1024 130 1024 156 1027.5 c 128,-1,1
EndSplineSet
EndChar

StartChar: w
Encoding: 119 119 90
Width: 1544
GlyphClass: 2
Flags: W
LayerCount: 2
Fore
SplineSet
771.5 978 m 128,-1,1
 790 958 790 958 788.5 915.5 c 128,-1,2
 787 873 787 873 781.5 782.5 c 128,-1,3
 776 692 776 692 786 589 c 0,4,5
 804 387 804 387 876 263.5 c 128,-1,6
 948 140 948 140 1038.5 124 c 128,-1,7
 1129 108 1129 108 1210.5 180 c 128,-1,8
 1292 252 1292 252 1310 403 c 0,9,10
 1337 623 1337 623 1197 887 c 0,11,12
 1184 910 1184 910 1192 936 c 128,-1,13
 1200 962 1200 962 1223.5 974.5 c 128,-1,14
 1247 987 1247 987 1273 979.5 c 128,-1,15
 1299 972 1299 972 1311 948 c 0,16,17
 1471 648 1471 648 1439 387 c 0,18,19
 1414 187 1414 187 1291.5 78 c 128,-1,20
 1169 -31 1169 -31 1017 -4.5 c 128,-1,21
 865 22 865 22 765 195 c 0,22,23
 721 271 721 271 694 367 c 1,24,25
 610 103 610 103 489 14 c 0,26,27
 406 -47 406 -47 319 7 c 0,28,29
 125 132 125 132 100 926 c 0,30,31
 99 953 99 953 117.5 972.5 c 128,-1,32
 136 992 136 992 162.5 993 c 128,-1,33
 189 994 189 994 209 975.5 c 128,-1,34
 229 957 229 957 230 930 c 0,35,36
 247 403 247 403 328 210 c 0,37,38
 359 136 359 136 389 116 c 0,39,40
 396 111 396 111 398.5 111 c 128,-1,41
 401 111 401 111 412 119 c 0,42,43
 497 182 497 182 563 387 c 128,-1,44
 629 592 629 592 652 822 c 0,45,46
 655 880 655 880 658.5 921.5 c 128,-1,47
 662 963 662 963 681.5 981.5 c 128,-1,48
 701 1000 701 1000 727 999 c 128,-1,0
 753 998 753 998 771.5 978 c 128,-1,1
EndSplineSet
EndChar

StartChar: x
Encoding: 120 120 91
Width: 1139
GlyphClass: 2
Flags: W
LayerCount: 2
Fore
SplineSet
993 131.5 m 128,-1,1
 1018 124 1018 124 1031 101.5 c 128,-1,2
 1044 79 1044 79 1037 53 c 0,3,4
 1023 4 1023 4 964 -1 c 0,5,6
 855 -10 855 -10 713 175 c 0,7,8
 648 261 648 261 558 394 c 1,9,-1
 213 13 l 2,10,11
 195 -7 195 -7 168 -8.5 c 128,-1,12
 141 -10 141 -10 121 8 c 128,-1,13
 101 26 101 26 100 53 c 128,-1,14
 99 80 99 80 117 100 c 2,15,-1
 484 505 l 1,16,17
 462 537 462 537 418 604 c 0,18,19
 256 848 256 848 190 883 c 1,20,21
 139 867 139 867 113 913 c 0,22,23
 100 936 100 936 107 962 c 0,24,25
 122 1015 122 1015 180.5 1014.5 c 128,-1,26
 239 1014 239 1014 309.5 955 c 128,-1,27
 380 896 380 896 549 641 c 0,28,29
 561 623 561 623 574 604 c 1,30,-1
 921 988 l 2,31,32
 939 1007 939 1007 966 1008.5 c 128,-1,33
 993 1010 993 1010 1012.5 992 c 128,-1,34
 1032 974 1032 974 1033.5 947 c 128,-1,35
 1035 920 1035 920 1017 900 c 2,36,-1
 648 493 l 1,37,38
 752 339 752 339 826.5 242 c 128,-1,39
 901 145 901 145 947 128 c 1,40,0
 968 139 968 139 993 131.5 c 128,-1,1
EndSplineSet
EndChar

StartChar: y
Encoding: 121 121 92
Width: 961
GlyphClass: 2
Flags: W
LayerCount: 2
Fore
SplineSet
839 927 m 2,0,-1
 851 777 l 1,1,2
 908 -168 908 -168 668 -497 c 0,3,4
 565 -639 565 -639 400 -634 c 0,5,6
 311 -631 311 -631 209 -581 c 0,7,8
 185 -569 185 -569 176.5 -543 c 128,-1,9
 168 -517 168 -517 179.5 -493.5 c 128,-1,10
 191 -470 191 -470 217 -461.5 c 128,-1,11
 243 -453 243 -453 267 -464 c 0,12,13
 401 -531 401 -531 489 -485 c 0,14,15
 623 -415 623 -415 686 -94 c 0,16,17
 727 117 727 117 731 395 c 1,18,19
 675 241 675 241 594 136 c 0,20,21
 471 -24 471 -24 332.5 -10.5 c 128,-1,22
 194 3 194 3 119 186 c 0,23,24
 13 442 13 442 70 948 c 0,25,26
 73 974 73 974 94 991 c 128,-1,27
 115 1008 115 1008 141.5 1005 c 128,-1,28
 168 1002 168 1002 185 981 c 128,-1,29
 202 960 202 960 199 933 c 0,30,31
 146 460 146 460 239 234.5 c 128,-1,32
 332 9 332 9 491 215 c 0,33,34
 665 441 665 441 709 925 c 0,35,36
 711 951 711 951 732.5 968.5 c 128,-1,37
 754 986 754 986 778 984 c 128,-1,38
 802 982 802 982 819 966 c 128,-1,39
 836 950 836 950 839 927 c 2,0,-1
EndSplineSet
EndChar

StartChar: z
Encoding: 122 122 93
Width: 1173
GlyphClass: 2
Flags: W
LayerCount: 2
Fore
SplineSet
967 131 m 1,0,1
 1012 157 1012 157 1053 109.5 c 128,-1,2
 1094 62 1094 62 1051 25.5 c 128,-1,3
 1008 -11 1008 -11 896 -11 c 128,-1,4
 784 -11 784 -11 707 -8.5 c 128,-1,5
 630 -6 630 -6 477 0 c 128,-1,6
 324 6 324 6 256.5 8 c 128,-1,7
 189 10 189 10 174 13 c 0,8,9
 98 31 98 31 100 90 c 128,-1,10
 102 149 102 149 159 201.5 c 128,-1,11
 216 254 216 254 366 375.5 c 128,-1,12
 516 497 516 497 604 575 c 128,-1,13
 692 653 692 653 758 745.5 c 128,-1,14
 824 838 824 838 796 865 c 0,15,16
 744 914 744 914 430 900 c 0,17,18
 245 892 245 892 202.5 893 c 128,-1,19
 160 894 160 894 141 913.5 c 128,-1,20
 122 933 122 933 122.5 959.5 c 128,-1,21
 123 986 123 986 142.5 1005 c 128,-1,22
 162 1024 162 1024 202.5 1023 c 128,-1,23
 243 1022 243 1022 419.5 1030 c 128,-1,24
 596 1038 596 1038 666 1030.5 c 128,-1,25
 736 1023 736 1023 792 1009 c 0,26,27
 925 975 925 975 935 839 c 128,-1,28
 945 703 945 703 659 450 c 0,29,30
 600 398 600 398 462 286 c 128,-1,31
 324 174 324 174 283 137 c 1,32,33
 848 124 848 124 967 131 c 1,0,1
EndSplineSet
EndChar

StartChar: braceleft
Encoding: 123 123 94
Width: 1096
GlyphClass: 2
Flags: W
LayerCount: 2
Fore
SplineSet
409 502 m 5,0,1
 544 415 544 415 558 219 c 4,2,3
 564 170 564 170 555 83 c 132,-1,4
 546 -4 546 -4 544 -23 c 4,5,6
 532 -169 532 -169 554 -244 c 4,7,8
 596 -383 596 -383 685 -432 c 4,9,10
 735 -460 735 -460 791.5 -458 c 132,-1,11
 848 -456 848 -456 883.5 -433.5 c 132,-1,12
 919 -411 919 -411 945.5 -417 c 132,-1,13
 972 -423 972 -423 986 -445 c 132,-1,14
 1000 -467 1000 -467 994.5 -493.5 c 132,-1,15
 989 -520 989 -520 966 -535 c 4,16,17
 889 -585 889 -585 796.5 -588 c 132,-1,18
 704 -591 704 -591 629 -550 c 4,19,20
 381 -413 381 -413 415 -12 c 4,21,22
 417 8 417 8 425 89.5 c 132,-1,23
 433 171 433 171 430.5 188.5 c 132,-1,24
 428 206 428 206 426.5 233.5 c 132,-1,25
 425 261 425 261 409 303 c 4,26,27
 372 399 372 399 280 414 c 5,28,29
 223 393 223 393 179.5 395 c 132,-1,30
 136 397 136 397 117.5 417 c 132,-1,31
 99 437 99 437 100.5 470 c 132,-1,32
 102 503 102 503 138 520 c 4,33,34
 196 546 196 546 258 546 c 5,35,36
 336 586 336 586 353 676 c 4,37,38
 361 718 361 718 353.5 759.5 c 132,-1,39
 346 801 346 801 304 894.5 c 132,-1,40
 262 988 262 988 252 1057 c 132,-1,41
 242 1126 242 1126 266 1202.5 c 132,-1,42
 290 1279 290 1279 346 1335 c 132,-1,43
 402 1391 402 1391 479.5 1414 c 132,-1,44
 557 1437 557 1437 637 1417.5 c 132,-1,45
 717 1398 717 1398 775 1338 c 4,46,47
 794 1319 794 1319 793.5 1292 c 132,-1,48
 793 1265 793 1265 774 1246 c 132,-1,49
 755 1227 755 1227 728 1227.5 c 132,-1,50
 701 1228 701 1228 675.5 1254 c 132,-1,51
 650 1280 650 1280 605 1291 c 4,52,53
 509 1315 509 1315 438 1243.5 c 132,-1,54
 367 1172 367 1172 382 1068 c 4,55,56
 388 1025 388 1025 429.5 932.5 c 132,-1,57
 471 840 471 840 482 779 c 4,58,59
 512 620 512 620 409 502 c 5,0,1
EndSplineSet
EndChar

StartChar: asciitilde
Encoding: 126 126 97
Width: 1531
GlyphClass: 2
Flags: W
LayerCount: 2
Fore
SplineSet
141.5 573.5 m 128,-1,1
 117 583 117 583 106 608 c 128,-1,2
 95 633 95 633 105 658 c 0,3,4
 147 765 147 765 243 829 c 0,5,6
 402 935 402 935 593 864 c 0,7,8
 659 839 659 839 751.5 787 c 128,-1,9
 844 735 844 735 877 721 c 0,10,11
 1024 660 1024 660 1139 707 c 128,-1,12
 1254 754 1254 754 1312 846 c 0,13,14
 1326 868 1326 868 1352.5 874 c 128,-1,15
 1379 880 1379 880 1401.5 866 c 128,-1,16
 1424 852 1424 852 1430 825.5 c 128,-1,17
 1436 799 1436 799 1422 776 c 0,18,19
 1342 649 1342 649 1203 593 c 0,20,21
 1023 519 1023 519 827 601 c 0,22,23
 787 618 787 618 696 669.5 c 128,-1,24
 605 721 605 721 548 742 c 0,25,26
 419 790 419 790 315 721 c 0,27,28
 253 680 253 680 226 610 c 0,29,30
 216 586 216 586 191 575 c 128,-1,0
 166 564 166 564 141.5 573.5 c 128,-1,1
EndSplineSet
EndChar

StartChar: cent
Encoding: 162 162 100
Width: 964
GlyphClass: 2
Flags: W
LayerCount: 2
Fore
SplineSet
593.5 1316 m 128,-1,1
 620 1315 620 1315 638.5 1295 c 128,-1,2
 657 1275 657 1275 655 1248 c 0,3,4
 649 1106 649 1106 644 978 c 1,5,6
 724 978 724 978 810 951 c 0,7,8
 836 944 836 944 848.5 920 c 128,-1,9
 861 896 861 896 853.5 870.5 c 128,-1,10
 846 845 846 845 822 832 c 128,-1,11
 798 819 798 819 773 827 c 0,12,13
 703 848 703 848 639 847 c 1,14,15
 621 369 621 369 620 129 c 1,16,17
 693 143 693 143 777 173 c 0,18,19
 802 183 802 183 826.5 171.5 c 128,-1,20
 851 160 851 160 860 135 c 128,-1,21
 869 110 869 110 857.5 85 c 128,-1,22
 846 60 846 60 821 51 c 0,23,24
 714 12 714 12 621 -4 c 1,25,26
 623 -64 623 -64 627 -90.5 c 128,-1,27
 631 -117 631 -117 615 -139 c 128,-1,28
 599 -161 599 -161 572.5 -165 c 128,-1,29
 546 -169 546 -169 524.5 -152.5 c 128,-1,30
 503 -136 503 -136 499 -108 c 128,-1,31
 495 -80 495 -80 493 -14 c 1,32,33
 416 -12 416 -12 353 10 c 0,34,35
 172 73 172 73 121.5 243.5 c 128,-1,36
 71 414 71 414 140 597 c 128,-1,37
 209 780 209 780 357 885 c 0,38,39
 432 938 432 938 514 961 c 1,40,41
 519 1099 519 1099 526 1254 c 0,42,43
 527 1281 527 1281 547 1299 c 128,-1,0
 567 1317 567 1317 593.5 1316 c 128,-1,1
491 117 m 1,44,45
 492 356 492 356 509 821 c 1,46,47
 469 805 469 805 432 778 c 0,48,49
 317 697 317 697 262.5 553 c 128,-1,50
 208 409 208 409 243 291 c 0,51,52
 293 124 293 124 491 117 c 1,44,45
EndSplineSet
EndChar

StartChar: sterling
Encoding: 163 163 101
Width: 1272
GlyphClass: 2
Flags: W
LayerCount: 2
Fore
SplineSet
462 541 m 1,0,1
 504 323 504 323 413 133 c 1,2,-1
 1107 129 l 2,3,4
 1134 129 1134 129 1153 110 c 128,-1,5
 1172 91 1172 91 1172 69 c 128,-1,6
 1172 47 1172 47 1158.5 23.5 c 128,-1,7
 1145 0 1145 0 1107 -1 c 2,8,-1
 1106 -1 l 1,9,-1
 298 4 l 2,10,11
 261 4 261 4 242 36 c 0,12,13
 220 72 220 72 247 107 c 0,14,15
 384 291 384 291 329 543 c 1,16,-1
 165 544 l 2,17,18
 138 544 138 544 119 563 c 128,-1,19
 100 582 100 582 100 609 c 128,-1,20
 100 636 100 636 119 655 c 128,-1,21
 138 674 138 674 152 674 c 2,22,-1
 166 674 l 1,23,-1
 300 673 l 1,24,25
 257 909 257 909 403 1058 c 0,26,27
 483 1140 483 1140 576 1169 c 0,28,29
 824 1247 824 1247 1025 1119 c 0,30,31
 1056 1100 1056 1100 1056 1073 c 128,-1,32
 1056 1046 1056 1046 1042 1022.5 c 128,-1,33
 1028 999 1028 999 999.5 999 c 128,-1,34
 971 999 971 999 955 1010 c 0,35,36
 886 1054 886 1054 800.5 1065 c 128,-1,37
 715 1076 715 1076 634 1050.5 c 128,-1,38
 553 1025 553 1025 495 965.5 c 128,-1,39
 437 906 437 906 425 837 c 128,-1,40
 413 768 413 768 433 672 c 1,41,-1
 673 670 l 2,42,43
 700 670 700 670 719 650.5 c 128,-1,44
 738 631 738 631 738 604.5 c 128,-1,45
 738 578 738 578 719 559 c 128,-1,46
 700 540 700 540 686 540 c 2,47,-1
 672 540 l 1,48,-1
 462 541 l 1,0,1
EndSplineSet
EndChar

StartChar: glyph102
Encoding: 164 164 102
Width: 1401
GlyphClass: 2
Flags: W
LayerCount: 2
Fore
SplineSet
682 1044 m 0,0,1
 684 1044 684 1044 690 1044 c 128,-1,2
 696 1044 696 1044 701 1042 c 128,-1,3
 706 1040 706 1040 738 1038 c 128,-1,4
 770 1036 770 1036 831 1016 c 0,5,6
 954 975 954 975 1045 878 c 1,7,8
 1057 888 1057 888 1113.5 935 c 128,-1,9
 1170 982 1170 982 1194 1003 c 128,-1,10
 1218 1024 1218 1024 1230 1024 c 128,-1,11
 1242 1024 1242 1024 1254.5 1023.5 c 128,-1,12
 1267 1023 1267 1023 1284 1005.5 c 128,-1,13
 1301 988 1301 988 1301 962.5 c 128,-1,14
 1301 937 1301 937 1274 913.5 c 128,-1,15
 1247 890 1247 890 1189.5 842.5 c 128,-1,16
 1132 795 1132 795 1118 783 c 1,17,18
 1189 663 1189 663 1196.5 509 c 128,-1,19
 1204 355 1204 355 1113 220 c 1,20,-1
 1248 105 l 2,21,22
 1270 87 1270 87 1269.5 60.5 c 128,-1,23
 1269 34 1269 34 1251.5 16.5 c 128,-1,24
 1234 -1 1234 -1 1210.5 -1 c 128,-1,25
 1187 -1 1187 -1 1170 14 c 2,26,-1
 1034 130 l 1,27,28
 931 40 931 40 788 13 c 128,-1,29
 645 -14 645 -14 509 41 c 0,30,31
 431 73 431 73 367 129 c 1,32,-1
 238 14 l 2,33,34
 221 -2 221 -2 197 -2 c 128,-1,35
 173 -2 173 -2 155.5 15.5 c 128,-1,36
 138 33 138 33 138 59.5 c 128,-1,37
 138 86 138 86 158 104 c 2,38,-1
 288 219 l 1,39,40
 176 384 176 384 204 590 c 0,41,42
 219 694 219 694 272 786 c 1,43,-1
 122 912 l 2,44,45
 100 930 100 930 100 956.5 c 128,-1,46
 100 983 100 983 117.5 1000.5 c 128,-1,47
 135 1018 135 1018 148 1018 c 2,48,-1
 172 1018 l 2,49,50
 183 1018 183 1018 199 1004 c 2,51,-1
 343 883 l 1,52,53
 483 1034 483 1034 682 1044 c 0,0,1
683 925 m 0,54,55
 553 917 553 917 448 821.5 c 128,-1,56
 343 726 343 726 320 556.5 c 128,-1,57
 297 387 297 387 410 254 c 0,58,59
 414 250 414 250 418 246 c 0,60,61
 476 182 476 182 566.5 145.5 c 128,-1,62
 657 109 657 109 752 127 c 0,63,64
 934 161 934 161 1019 292 c 0,65,66
 1084 393 1084 393 1077.5 518.5 c 128,-1,67
 1071 644 1071 644 1009 733 c 0,68,69
 887 910 887 910 699 922 c 0,70,71
 691 922 691 922 683 925 c 0,54,55
EndSplineSet
EndChar

StartChar: yen
Encoding: 165 165 103
Width: 1165
GlyphClass: 2
Flags: W
LayerCount: 2
Fore
SplineSet
944 1220 m 2,0,1
 963 1252 963 1252 995.5 1252 c 128,-1,2
 1028 1252 1028 1252 1047 1233 c 128,-1,3
 1066 1214 1066 1214 1066 1191.5 c 128,-1,4
 1066 1169 1066 1169 1056 1153 c 2,5,-1
 756 654 l 1,6,-1
 878 652 l 2,7,8
 905 652 905 652 924 633 c 128,-1,9
 943 614 943 614 943 587.5 c 128,-1,10
 943 561 943 561 924 541.5 c 128,-1,11
 905 522 905 522 891 522 c 2,12,-1
 877 522 l 1,13,-1
 688 524 l 1,14,-1
 689 416 l 1,15,-1
 878 415 l 2,16,17
 916 415 916 415 935 382 c 0,18,19
 960 340 960 340 924 304 c 0,20,21
 905 285 905 285 891 285 c 2,22,-1
 877 285 l 1,23,-1
 691 286 l 1,24,-1
 693 67 l 1,25,26
 693 67 693 67 693 52 c 0,27,28
 693 38 693 38 674 19 c 128,-1,29
 655 0 655 0 628 0 c 128,-1,30
 601 0 601 0 582 19 c 128,-1,31
 563 38 563 38 563 65 c 2,32,-1
 561 287 l 1,33,-1
 370 289 l 2,34,35
 343 289 343 289 324 308 c 128,-1,36
 305 327 305 327 305 354 c 128,-1,37
 305 381 305 381 324 400 c 128,-1,38
 343 419 343 419 356 419 c 2,39,-1
 371 419 l 1,40,-1
 559 417 l 1,41,-1
 558 524 l 1,42,-1
 558 525 l 1,43,-1
 370 527 l 2,44,45
 343 527 343 527 324 546 c 128,-1,46
 305 565 305 565 305 592 c 128,-1,47
 305 619 305 619 324 638 c 128,-1,48
 343 657 343 657 356 657 c 2,49,-1
 371 657 l 1,50,-1
 471 656 l 1,51,-1
 113 1139 l 2,52,53
 100 1156 100 1156 100 1180.5 c 128,-1,54
 100 1205 100 1205 119 1224.5 c 128,-1,55
 138 1244 138 1244 168 1244 c 128,-1,56
 198 1244 198 1244 218 1217 c 2,57,-1
 618 676 l 1,58,-1
 944 1220 l 2,0,1
EndSplineSet
EndChar

StartChar: brokenbar
Encoding: 166 166 104
Width: 342
GlyphClass: 2
Flags: W
LayerCount: 2
Fore
SplineSet
100 574 m 2,0,1
 100 601 100 601 119 620 c 128,-1,2
 138 639 138 639 164.5 639.5 c 128,-1,3
 191 640 191 640 210.5 620.5 c 128,-1,4
 230 601 230 601 230 575 c 2,5,-1
 230 -41 l 2,6,7
 230 -68 230 -68 211 -87.5 c 128,-1,8
 192 -107 192 -107 165.5 -107 c 128,-1,9
 139 -107 139 -107 119.5 -87.5 c 128,-1,10
 100 -68 100 -68 100 -42 c 2,11,-1
 100 574 l 2,0,1
100 1390 m 2,12,13
 100 1417 100 1417 119 1436 c 128,-1,14
 138 1455 138 1455 164.5 1455.5 c 128,-1,15
 191 1456 191 1456 210.5 1436.5 c 128,-1,16
 230 1417 230 1417 230 1391 c 2,17,-1
 230 775 l 2,18,19
 230 748 230 748 211 728.5 c 128,-1,20
 192 709 192 709 165.5 709 c 128,-1,21
 139 709 139 709 119.5 728.5 c 128,-1,22
 100 748 100 748 100 774 c 2,23,-1
 100 1390 l 2,12,13
EndSplineSet
EndChar

StartChar: section
Encoding: 167 167 105
Width: 834
GlyphClass: 2
Flags: W
LayerCount: 2
Fore
SplineSet
421 1434 m 2,0,1
 421 1434 421 1434 445 1433 c 0,2,3
 472 1433 472 1433 498.5 1419 c 128,-1,4
 525 1405 525 1405 527 1378.5 c 128,-1,5
 529 1352 529 1352 520 1335 c 0,6,7
 498 1293 498 1293 456 1300 c 1,8,9
 413 1312 413 1312 370.5 1294.5 c 128,-1,10
 328 1277 328 1277 302.5 1238.5 c 128,-1,11
 277 1200 277 1200 280 1156 c 0,12,13
 282 1057 282 1057 424 998 c 0,14,15
 537 952 537 952 566 933 c 0,16,17
 765 803 765 803 730 600 c 0,18,19
 709 482 709 482 622 411 c 1,20,21
 684 326 684 326 683 235.5 c 128,-1,22
 682 145 682 145 641 75 c 128,-1,23
 600 5 600 5 531.5 -37.5 c 128,-1,24
 463 -80 463 -80 385 -81 c 1,25,26
 349 -90 349 -90 319.5 -64.5 c 128,-1,27
 290 -39 290 -39 299 -3 c 0,28,29
 309 52 309 52 399 51 c 1,30,31
 450 57 450 57 489.5 92.5 c 128,-1,32
 529 128 529 128 544.5 179 c 128,-1,33
 560 230 560 230 545 279 c 0,34,35
 523 365 523 365 403 416 c 0,36,37
 395 420 395 420 365 432 c 0,38,39
 221 492 221 492 164 559 c 0,40,41
 71 668 71 668 110 805 c 0,42,43
 140 915 140 915 233 966 c 1,44,45
 150 1046 150 1046 150 1160 c 0,46,47
 148 1231 148 1231 185 1295.5 c 128,-1,48
 222 1360 222 1360 286 1398 c 128,-1,49
 350 1436 350 1436 421 1434 c 2,0,1
534 797 m 0,50,51
 396 885 396 885 331.5 869 c 128,-1,52
 267 853 267 853 240 785 c 0,53,54
 198 678 198 678 311 604 c 0,55,56
 347 580 347 580 414.5 554 c 128,-1,57
 482 528 482 528 524 500 c 1,58,59
 574 534 574 534 597 600 c 0,60,61
 642 728 642 728 534 797 c 0,50,51
EndSplineSet
EndChar

StartChar: ordfeminine
Encoding: 170 170 108
Width: 893
GlyphClass: 2
Flags: W
LayerCount: 2
Fore
SplineSet
179 745 m 0,0,1
 105 830 105 830 100.5 970.5 c 128,-1,2
 96 1111 96 1111 169 1239 c 128,-1,3
 242 1367 242 1367 394 1415 c 128,-1,4
 546 1463 546 1463 658 1400 c 128,-1,5
 770 1337 770 1337 785 1189 c 1,6,7
 793 1168 793 1168 783 1132 c 1,8,9
 757 853 757 853 792 721 c 0,10,11
 794 714 794 714 794 702 c 128,-1,12
 794 690 794 690 779 667.5 c 128,-1,13
 764 645 764 645 732.5 645 c 128,-1,14
 701 645 701 645 681 659 c 0,15,16
 643 686 643 686 634 842 c 1,17,18
 521 685 521 685 413 675 c 1,19,20
 323 653 323 653 242 695 c 0,21,22
 205 715 205 715 179 745 c 0,0,1
648 1176 m 0,23,24
 635 1314 635 1314 515 1313 c 0,25,26
 481 1313 481 1313 440 1300 c 0,27,28
 341 1269 341 1269 288 1176.5 c 128,-1,29
 235 1084 235 1084 238 978 c 0,30,31
 245 791 245 791 326 789 c 0,32,33
 592 784 592 784 646 1159 c 0,34,35
 647 1171 647 1171 648 1176 c 0,23,24
EndSplineSet
EndChar

StartChar: guillemotleft
Encoding: 171 171 109
Width: 1430
GlyphClass: 2
Flags: W
LayerCount: 2
Fore
SplineSet
1224 1082 m 0,0,1
 1240 1093 1240 1093 1263.5 1093 c 128,-1,2
 1287 1093 1287 1093 1306 1074 c 128,-1,3
 1325 1055 1325 1055 1325 1023.5 c 128,-1,4
 1325 992 1325 992 1294 973 c 0,5,6
 1132 868 1132 868 1010.5 804 c 128,-1,7
 889 740 889 740 870 730 c 1,8,9
 890 719 890 719 1012 660 c 128,-1,10
 1134 601 1134 601 1298 502 c 0,11,12
 1331 483 1331 483 1331 451 c 128,-1,13
 1331 419 1331 419 1312 400 c 128,-1,14
 1293 381 1293 381 1270 381 c 128,-1,15
 1247 381 1247 381 1231 390 c 0,16,17
 1072 486 1072 486 930.5 555 c 128,-1,18
 789 624 789 624 766 638 c 0,19,20
 703 677 703 677 703 718.5 c 128,-1,21
 703 760 703 760 721.5 781 c 128,-1,22
 740 802 740 802 763.5 817.5 c 128,-1,23
 787 833 787 833 926.5 906.5 c 128,-1,24
 1066 980 1066 980 1224 1082 c 0,0,1
621 1089 m 0,25,26
 638 1100 638 1100 661 1100 c 128,-1,27
 684 1100 684 1100 703 1080.5 c 128,-1,28
 722 1061 722 1061 722 1030 c 128,-1,29
 722 999 722 999 692 979 c 0,30,31
 530 875 530 875 408.5 811 c 128,-1,32
 287 747 287 747 268 736 c 1,33,34
 287 726 287 726 409.5 666.5 c 128,-1,35
 532 607 532 607 696 508 c 0,36,37
 728 490 728 490 728 457.5 c 128,-1,38
 728 425 728 425 709 406 c 128,-1,39
 690 387 690 387 667.5 387 c 128,-1,40
 645 387 645 387 629 397 c 0,41,42
 470 493 470 493 328.5 561.5 c 128,-1,43
 187 630 187 630 163 645 c 0,44,45
 101 684 101 684 100.5 725.5 c 128,-1,46
 100 767 100 767 119 788 c 128,-1,47
 138 809 138 809 161 824.5 c 128,-1,48
 184 840 184 840 324 913.5 c 128,-1,49
 464 987 464 987 621 1089 c 0,25,26
EndSplineSet
EndChar

StartChar: logicalnot
Encoding: 172 172 110
Width: 1176
GlyphClass: 2
Flags: W
LayerCount: 2
Fore
SplineSet
166 792 m 2,0,-1
 1009 792 l 2,1,2
 1035 792 1035 792 1054 773.5 c 128,-1,3
 1073 755 1073 755 1074 728 c 2,4,-1
 1076 339 l 2,5,6
 1076 338 1076 338 1076 324.5 c 128,-1,7
 1076 311 1076 311 1057 292 c 128,-1,8
 1038 273 1038 273 1011 273 c 128,-1,9
 984 273 984 273 965 292 c 128,-1,10
 946 311 946 311 946 338 c 1,11,-1
 946 338 l 1,12,-1
 944 662 l 1,13,-1
 166 662 l 2,14,15
 165 662 165 662 165 662 c 2,16,17
 138 662 138 662 119 681.5 c 128,-1,18
 100 701 100 701 100 727.5 c 128,-1,19
 100 754 100 754 126 779.5 c 128,-1,20
 152 805 152 805 165 792 c 1,21,22
 165 792 165 792 166 792 c 2,0,-1
EndSplineSet
EndChar

StartChar: registered
Encoding: 174 174 112
Width: 1700
GlyphClass: 2
Flags: W
LayerCount: 2
Fore
SplineSet
836 1411 m 1,0,-1
 859 1406 l 2,1,2
 861 1406 861 1406 863 1406 c 0,3,4
 1036 1396 1036 1396 1191 1315 c 128,-1,5
 1346 1234 1346 1234 1450 1100 c 0,6,7
 1588 920 1588 920 1600 698 c 128,-1,8
 1612 476 1612 476 1482 294 c 0,9,10
 1399 178 1399 178 1270 104 c 128,-1,11
 1141 30 1141 30 993 5 c 0,12,13
 771 -32 771 -32 563 43.5 c 128,-1,14
 355 119 355 119 228 294 c 0,15,16
 150 401 150 401 119 531.5 c 128,-1,17
 88 662 88 662 108 792 c 128,-1,18
 128 922 128 922 195.5 1037.5 c 128,-1,19
 263 1153 263 1153 363 1234.5 c 128,-1,20
 463 1316 463 1316 589 1363.5 c 128,-1,21
 715 1411 715 1411 836 1411 c 1,0,-1
855 1276 m 0,22,23
 843 1277 843 1277 833 1281 c 1,24,25
 616 1272 616 1272 449 1136 c 0,26,27
 364 1067 364 1067 308.5 972 c 128,-1,28
 253 877 253 877 236.5 772.5 c 128,-1,29
 220 668 220 668 245.5 562 c 128,-1,30
 271 456 271 456 327 379 c 0,31,32
 437 228 437 228 610.5 165 c 128,-1,33
 784 102 784 102 972 133 c 0,34,35
 1096 154 1096 154 1203 216 c 128,-1,36
 1310 278 1310 278 1368 359 c 0,37,38
 1480 515 1480 515 1470.5 694 c 128,-1,39
 1461 873 1461 873 1347 1021 c 0,40,41
 1262 1132 1262 1132 1130 1200 c 128,-1,42
 998 1268 998 1268 855 1276 c 0,22,23
598 1157 m 0,43,44
 909 1200 909 1200 1043 1137 c 0,45,46
 1200 1062 1200 1062 1204 880 c 0,47,48
 1206 788 1206 788 1160 717 c 128,-1,49
 1114 646 1114 646 1045.5 614.5 c 128,-1,50
 977 583 977 583 898 570 c 1,51,-1
 1251 361 l 2,52,53
 1284 342 1284 342 1284 310 c 128,-1,54
 1284 278 1284 278 1265 259 c 128,-1,55
 1246 240 1246 240 1223.5 240 c 128,-1,56
 1201 240 1201 240 1185 249 c 2,57,-1
 682 548 l 1,58,59
 684 353 684 353 680.5 313 c 128,-1,60
 677 273 677 273 658 255.5 c 128,-1,61
 639 238 639 238 613 238 c 128,-1,62
 587 238 587 238 568 257 c 128,-1,63
 549 276 549 276 549 291 c 128,-1,64
 549 306 549 306 552 339 c 128,-1,65
 555 372 555 372 549 737 c 2,66,-1
 542 1091 l 1,67,-1
 542 1104 l 2,68,69
 542 1116 542 1116 558.5 1135 c 128,-1,70
 575 1154 575 1154 598 1157 c 0,43,44
673 1036 m 1,71,72
 680 730 680 730 680 690 c 1,73,74
 986 679 986 679 1055 784 c 0,75,76
 1076 816 1076 816 1074.5 875 c 128,-1,77
 1073 934 1073 934 1057 964 c 0,78,79
 1000 1071 1000 1071 673 1036 c 1,71,72
EndSplineSet
EndChar

StartChar: macron
Encoding: 175 175 113
Width: 783
GlyphClass: 2
Flags: W
LayerCount: 2
Fore
SplineSet
107 1086 m 128,-1,1
 107 1113 107 1113 126 1132 c 128,-1,2
 145 1151 145 1151 172 1151 c 2,3,-1
 613 1151 l 2,4,5
 640 1151 640 1151 659 1132 c 128,-1,6
 678 1113 678 1113 678 1086 c 128,-1,7
 678 1059 678 1059 659 1040 c 128,-1,8
 640 1021 640 1021 613 1021 c 2,9,-1
 172 1021 l 2,10,11
 145 1021 145 1021 126 1040 c 128,-1,0
 107 1059 107 1059 107 1086 c 128,-1,1
EndSplineSet
EndChar

StartChar: degree
Encoding: 176 176 114
Width: 852
GlyphClass: 2
Flags: W
LayerCount: 2
Fore
SplineSet
615 1072 m 0,0,1
 632 1113 632 1113 618 1158 c 0,2,3
 571 1312 571 1312 385 1291 c 0,4,5
 327 1285 327 1285 290.5 1257.5 c 128,-1,6
 254 1230 254 1230 241.5 1203 c 128,-1,7
 229 1176 229 1176 230 1137 c 0,8,9
 232 1065 232 1065 292 1006 c 128,-1,10
 352 947 352 947 464.5 963 c 128,-1,11
 577 979 577 979 615 1072 c 0,0,1
195 919 m 0,12,13
 104 1009 104 1009 100 1141.5 c 128,-1,14
 96 1274 96 1274 206 1356 c 0,15,16
 278 1410 278 1410 363 1419 c 0,17,18
 570 1443 570 1443 685 1308 c 0,19,20
 746 1237 746 1237 752.5 1131.5 c 128,-1,21
 759 1026 759 1026 685.5 939.5 c 128,-1,22
 612 853 612 853 459.5 831.5 c 128,-1,23
 307 810 307 810 195 919 c 0,12,13
EndSplineSet
EndChar

StartChar: plusminus
Encoding: 177 177 115
Width: 1299
GlyphClass: 2
Flags: W
LayerCount: 2
Fore
SplineSet
102 59 m 128,-1,1
 102 86 102 86 121 105 c 128,-1,2
 140 124 140 124 167 124 c 2,3,-1
 1134 124 l 2,4,5
 1161 124 1161 124 1180 105 c 128,-1,6
 1199 86 1199 86 1199 59 c 128,-1,7
 1199 32 1199 32 1180 13 c 128,-1,8
 1161 -6 1161 -6 1134 -6 c 2,9,-1
 167 -6 l 2,10,11
 140 -6 140 -6 121 13 c 128,-1,0
 102 32 102 32 102 59 c 128,-1,1
1189 689.5 m 128,-1,13
 1189 663 1189 663 1170 643.5 c 128,-1,14
 1151 624 1151 624 1124 624 c 2,15,-1
 741 624 l 1,16,-1
 741 230 l 2,17,18
 741 203 741 203 722 184 c 128,-1,19
 703 165 703 165 676 165 c 128,-1,20
 649 165 649 165 630 184 c 128,-1,21
 611 203 611 203 611 230 c 2,22,-1
 611 624 l 1,23,-1
 165 624 l 2,24,25
 138 624 138 624 119 643.5 c 128,-1,26
 100 663 100 663 100 689.5 c 128,-1,27
 100 716 100 716 119 735 c 128,-1,28
 138 754 138 754 165 754 c 2,29,-1
 611 754 l 1,30,-1
 611 1181 l 2,31,32
 611 1207 611 1207 630 1226.5 c 128,-1,33
 649 1246 649 1246 676 1246 c 128,-1,34
 703 1246 703 1246 722 1226.5 c 128,-1,35
 741 1207 741 1207 741 1181 c 2,36,-1
 741 754 l 1,37,-1
 1124 754 l 2,38,39
 1151 754 1151 754 1170 735 c 128,-1,12
 1189 716 1189 716 1189 689.5 c 128,-1,13
EndSplineSet
EndChar

StartChar: uni00B2
Encoding: 178 178 116
Width: 597
GlyphClass: 2
Flags: W
LayerCount: 2
Fore
SplineSet
276 1434 m 0,0,1
 313 1433 313 1433 352 1409 c 128,-1,2
 391 1385 391 1385 406.5 1327 c 128,-1,3
 422 1269 422 1269 380.5 1204 c 128,-1,4
 339 1139 339 1139 259 1050 c 1,5,6
 296 1053 296 1053 356.5 1044 c 128,-1,7
 417 1035 417 1035 436.5 1041.5 c 128,-1,8
 456 1048 456 1048 466.5 1048 c 128,-1,9
 477 1048 477 1048 487 1038 c 128,-1,10
 497 1028 497 1028 497 1008 c 128,-1,11
 497 988 497 988 476 981 c 128,-1,12
 455 974 455 974 423.5 969 c 128,-1,13
 392 964 392 964 298 983 c 0,14,15
 250 994 250 994 164 953 c 0,16,17
 157 950 157 950 145.5 950 c 128,-1,18
 134 950 134 950 124 960 c 128,-1,19
 114 970 114 970 114 985 c 128,-1,20
 114 1000 114 1000 126.5 1011.5 c 128,-1,21
 139 1023 139 1023 161.5 1046.5 c 128,-1,22
 184 1070 184 1070 239 1135 c 128,-1,23
 294 1200 294 1200 330 1256 c 0,24,25
 346 1287 346 1287 339 1313 c 0,26,27
 325 1363 325 1363 272 1366 c 128,-1,28
 219 1369 219 1369 162 1302 c 0,29,30
 152 1289 152 1289 136.5 1289 c 128,-1,31
 121 1289 121 1289 110.5 1299.5 c 128,-1,32
 100 1310 100 1310 100 1323.5 c 128,-1,33
 100 1337 100 1337 109 1347 c 0,34,35
 185 1437 185 1437 276 1434 c 0,0,1
EndSplineSet
EndChar

StartChar: uni00B3
Encoding: 179 179 117
Width: 547
GlyphClass: 2
Flags: W
LayerCount: 2
Fore
SplineSet
121 1344 m 0,0,1
 254 1472 254 1472 354 1420 c 0,2,3
 426 1381 426 1381 412 1292 c 0,4,5
 404 1240 404 1240 364 1192 c 1,6,7
 430 1167 430 1167 443.5 1098.5 c 128,-1,8
 457 1030 457 1030 421.5 995 c 128,-1,9
 386 960 386 960 345 954 c 0,10,11
 257 942 257 942 118 1023 c 0,12,13
 100 1033 100 1033 100 1050.5 c 128,-1,14
 100 1068 100 1068 110.5 1078 c 128,-1,15
 121 1088 121 1088 133 1088 c 128,-1,16
 145 1088 145 1088 153 1083 c 0,17,18
 271 1015 271 1015 336 1024 c 0,19,20
 372 1029 372 1029 376.5 1061.5 c 128,-1,21
 381 1094 381 1094 353.5 1118 c 128,-1,22
 326 1142 326 1142 284 1122 c 0,23,24
 277 1119 277 1119 265.5 1119 c 128,-1,25
 254 1119 254 1119 244 1129 c 128,-1,26
 234 1139 234 1139 234 1155.5 c 128,-1,27
 234 1172 234 1172 249 1183 c 0,28,29
 314 1225 314 1225 333 1273 c 128,-1,30
 352 1321 352 1321 337 1344.5 c 128,-1,31
 322 1368 322 1368 278.5 1362.5 c 128,-1,32
 235 1357 235 1357 169 1294 c 0,33,34
 159 1284 159 1284 144.5 1284 c 128,-1,35
 130 1284 130 1284 119.5 1294 c 128,-1,36
 109 1304 109 1304 109.5 1319 c 128,-1,37
 110 1334 110 1334 121 1344 c 0,0,1
EndSplineSet
EndChar

StartChar: acute
Encoding: 180 180 118
Width: 215
GlyphClass: 2
Flags: W
LayerCount: 2
Fore
SplineSet
93 1401 m 2,0,1
 112 1435 112 1435 150 1434 c 128,-1,2
 188 1433 188 1433 206.5 1400.5 c 128,-1,3
 225 1368 225 1368 205 1335 c 2,4,-1
 90 1170 l 1,5,6
 62 1120 62 1120 20.5 1144.5 c 128,-1,7
 -21 1169 -21 1169 20 1235 c 1,8,-1
 93 1401 l 2,0,1
EndSplineSet
EndChar

StartChar: mu
Encoding: 181 181 119
Width: 1228
GlyphClass: 2
Flags: W
LayerCount: 2
Fore
SplineSet
227 1002 m 128,-1,1
 245 1016 245 1016 269 1016 c 128,-1,2
 293 1016 293 1016 312 997 c 128,-1,3
 331 978 331 978 331 961 c 128,-1,4
 331 944 331 944 318.5 891.5 c 128,-1,5
 306 839 306 839 282 701 c 1,6,7
 251 452 251 452 313 299 c 0,8,9
 384 125 384 125 532 134 c 0,10,11
 602 138 602 138 675 189 c 128,-1,12
 748 240 748 240 807.5 342.5 c 128,-1,13
 867 445 867 445 893 591 c 1,14,15
 889 929 889 929 914 987 c 0,16,17
 918 994 918 994 938 1008 c 128,-1,18
 958 1022 958 1022 986 1009 c 0,19,20
 1030 989 1030 989 1032 954 c 0,21,22
 1052 755 1052 755 1024 581 c 1,23,24
 1030 182 1030 182 1092 102 c 1,25,-1
 1092 100 l 1,26,27
 1128 82 1128 82 1128 48.5 c 128,-1,28
 1128 15 1128 15 1109 -4 c 128,-1,29
 1090 -23 1090 -23 1068 -23 c 0,30,31
 950 -23 950 -23 913 266 c 1,32,33
 843 147 843 147 744 78 c 0,34,35
 585 -33 585 -33 426 18 c 0,36,37
 310 55 310 55 235 168 c 1,38,39
 239 6 239 6 273 -80 c 0,40,41
 278 -92 278 -92 278 -112 c 128,-1,42
 278 -132 278 -132 259 -151 c 128,-1,43
 240 -170 240 -170 217.5 -170 c 128,-1,44
 195 -170 195 -170 177 -157.5 c 128,-1,45
 159 -145 159 -145 143 -103 c 0,46,47
 53 128 53 128 152 712 c 1,48,49
 167 833 167 833 203 969 c 0,50,0
 209 988 209 988 227 1002 c 128,-1,1
EndSplineSet
EndChar

StartChar: periodcentered
Encoding: 183 183 120
Width: 421
GlyphClass: 2
Flags: W
LayerCount: 2
Fore
SplineSet
100 713 m 128,-1,1
 99 739 99 739 107.5 774.5 c 128,-1,2
 116 810 116 810 145.5 852.5 c 128,-1,3
 175 895 175 895 207 890 c 0,4,5
 258 882 258 882 294 808 c 128,-1,6
 330 734 330 734 319 690.5 c 128,-1,7
 308 647 308 647 281 625.5 c 128,-1,8
 254 604 254 604 218 602.5 c 128,-1,9
 182 601 182 601 155 618 c 128,-1,10
 128 635 128 635 114.5 661 c 128,-1,0
 101 687 101 687 100 713 c 128,-1,1
EndSplineSet
EndChar

StartChar: cedilla
Encoding: 184 184 121
Width: 674
GlyphClass: 2
Flags: W
LayerCount: 2
Fore
SplineSet
355 -66 m 0,0,1
 376 -66 376 -66 395 -85.5 c 128,-1,2
 414 -105 414 -105 414 -120.5 c 128,-1,3
 414 -136 414 -136 413 -141 c 2,4,-1
 399 -239 l 1,5,6
 490 -245 490 -245 530.5 -292.5 c 128,-1,7
 571 -340 571 -340 574 -394 c 128,-1,8
 577 -448 577 -448 554 -491 c 0,9,10
 505 -582 505 -582 386 -612 c 128,-1,11
 267 -642 267 -642 131 -557 c 0,12,13
 99 -538 99 -538 99 -506.5 c 128,-1,14
 99 -475 99 -475 118 -455.5 c 128,-1,15
 137 -436 137 -436 160.5 -436 c 128,-1,16
 184 -436 184 -436 212 -454 c 128,-1,17
 240 -472 240 -472 289.5 -487 c 128,-1,18
 339 -502 339 -502 379.5 -483.5 c 128,-1,19
 420 -465 420 -465 436 -433 c 128,-1,20
 452 -401 452 -401 439 -385 c 0,21,22
 416 -358 416 -358 334 -372 c 0,23,24
 328 -373 328 -373 312 -373 c 128,-1,25
 296 -373 296 -373 277 -354 c 128,-1,26
 258 -335 258 -335 258 -319 c 128,-1,27
 258 -303 258 -303 259 -299 c 2,28,-1
 284 -123 l 2,29,30
 292 -66 292 -66 355 -66 c 0,0,1
EndSplineSet
EndChar

StartChar: uni00B9
Encoding: 185 185 122
Width: 309
GlyphClass: 2
Flags: W
LayerCount: 2
Fore
SplineSet
151 1434 m 128,-1,1
 175 1423 175 1423 186 1407 c 0,2,3
 228 1345 228 1345 199 1080 c 2,4,-1
 196 1055 l 2,5,6
 195 1042 195 1042 184.5 1033 c 128,-1,7
 174 1024 174 1024 160.5 1024 c 128,-1,8
 147 1024 147 1024 136.5 1034 c 128,-1,9
 126 1044 126 1044 126 1052.5 c 128,-1,10
 126 1061 126 1061 131.5 1106.5 c 128,-1,11
 137 1152 137 1152 139 1241 c 128,-1,12
 141 1330 141 1330 130 1364 c 1,13,14
 118 1366 118 1366 109 1376 c 128,-1,15
 100 1386 100 1386 100 1397.5 c 128,-1,16
 100 1409 100 1409 113.5 1427 c 128,-1,0
 127 1445 127 1445 151 1434 c 128,-1,1
EndSplineSet
EndChar

StartChar: guillemotright
Encoding: 187 187 124
Width: 1527
GlyphClass: 2
Flags: W
LayerCount: 2
Fore
SplineSet
207 1082 m 0,0,1
 364 980 364 980 504 906.5 c 128,-1,2
 644 833 644 833 667.5 817.5 c 128,-1,3
 691 802 691 802 709.5 781 c 128,-1,4
 728 760 728 760 727.5 718.5 c 128,-1,5
 727 677 727 677 665 638 c 0,6,7
 641 624 641 624 499.5 555 c 128,-1,8
 358 486 358 486 199 390 c 0,9,10
 184 381 184 381 161 381 c 128,-1,11
 138 381 138 381 119 400 c 128,-1,12
 100 419 100 419 100 451 c 128,-1,13
 100 483 100 483 132 502 c 0,14,15
 296 601 296 601 418.5 660 c 128,-1,16
 541 719 541 719 561 730 c 1,17,18
 542 740 542 740 420.5 804 c 128,-1,19
 299 868 299 868 136 973 c 0,20,21
 106 992 106 992 106 1023.5 c 128,-1,22
 106 1055 106 1055 125 1074 c 128,-1,23
 144 1093 144 1093 167.5 1093 c 128,-1,24
 191 1093 191 1093 207 1082 c 0,0,1
809 1089 m 0,25,26
 967 987 967 987 1106.5 913.5 c 128,-1,27
 1246 840 1246 840 1269.5 824.5 c 128,-1,28
 1293 809 1293 809 1311.5 788 c 128,-1,29
 1330 767 1330 767 1330 725.5 c 128,-1,30
 1330 684 1330 684 1267 645 c 0,31,32
 1244 630 1244 630 1102.5 561.5 c 128,-1,33
 961 493 961 493 802 397 c 0,34,35
 786 387 786 387 763 387 c 128,-1,36
 740 387 740 387 721 406 c 128,-1,37
 702 425 702 425 702 457.5 c 128,-1,38
 702 490 702 490 735 508 c 0,39,40
 899 607 899 607 1021 666.5 c 128,-1,41
 1143 726 1143 726 1163 736 c 1,42,43
 1144 747 1144 747 1022.5 811 c 128,-1,44
 901 875 901 875 739 979 c 0,45,46
 708 999 708 999 708 1030 c 128,-1,47
 708 1061 708 1061 727 1080.5 c 128,-1,48
 746 1100 746 1100 769.5 1100 c 128,-1,49
 793 1100 793 1100 809 1089 c 0,25,26
EndSplineSet
EndChar

StartChar: AE
Encoding: 198 198 135
Width: 2201
GlyphClass: 2
Flags: W
LayerCount: 2
Fore
SplineSet
1885 653 m 2,0,-1
 1150 657 l 1,1,2
 1147 365 1147 365 1135 129 c 1,3,4
 1773 131 1773 131 1838.5 137.5 c 128,-1,5
 1904 144 1904 144 1931 145.5 c 128,-1,6
 1958 147 1958 147 1999 137 c 1,7,8
 2024 126 2024 126 2030 100.5 c 128,-1,9
 2036 75 2036 75 2022 52.5 c 128,-1,10
 2008 30 2008 30 1982 26 c 0,11,12
 1766 9 1766 9 1453 8 c 128,-1,13
 1140 7 1140 7 1120 6 c 128,-1,14
 1100 5 1100 5 1089 5 c 0,15,16
 1005 4 1005 4 994 59 c 1,17,18
 1010 423 1010 423 1011 603 c 1,19,-1
 450 609 l 1,20,21
 352 416 352 416 312.5 298.5 c 128,-1,22
 273 181 273 181 252.5 115.5 c 128,-1,23
 232 50 232 50 219 12 c 1,24,25
 203 -14 203 -14 173 -16 c 128,-1,26
 143 -18 143 -18 120 2.5 c 128,-1,27
 97 23 97 23 100 53 c 1,28,29
 179 367 179 367 349 697 c 0,30,31
 645 1261 645 1261 1055 1420 c 1,32,33
 1335 1450 1335 1450 1720 1422 c 0,34,35
 1889 1410 1889 1410 2031 1360 c 1,36,37
 2068 1355 2068 1355 2090.5 1323 c 128,-1,38
 2113 1291 2113 1291 2089.5 1258.5 c 128,-1,39
 2066 1226 2066 1226 2028.5 1232.5 c 128,-1,40
 1991 1239 1991 1239 1952 1256 c 1,41,42
 1764 1304 1764 1304 1569.5 1309 c 128,-1,43
 1375 1314 1375 1314 1146 1305 c 1,44,45
 1153 1040 1153 1040 1151 779 c 1,46,47
 1235 778 1235 778 1454.5 776.5 c 128,-1,48
 1674 775 1674 775 1730.5 773.5 c 128,-1,49
 1787 772 1787 772 1811 774 c 0,50,51
 1934 786 1934 786 1941 722 c 0,52,53
 1944 696 1944 696 1927 675.5 c 128,-1,54
 1910 655 1910 655 1885 653 c 2,0,-1
1008 1256 m 1,55,56
 741 1108 741 1108 521 738 c 1,57,58
 767 736 767 736 1012 733 c 1,59,60
 1014 993 1014 993 1008 1256 c 1,55,56
EndSplineSet
EndChar

StartChar: Ccedilla
Encoding: 199 199 136
Width: 1370
GlyphClass: 2
Flags: W
LayerCount: 2
Fore
SplineSet
1256 1342 m 128,-1,1
 1251 1316 1251 1316 1228.5 1300.5 c 128,-1,2
 1206 1285 1206 1285 1180 1290 c 0,3,4
 855 1351 855 1351 598 1200 c 0,5,6
 413 1091 413 1091 312.5 902 c 128,-1,7
 212 713 212 713 234 526 c 128,-1,8
 256 339 256 339 400 230 c 0,9,10
 658 34 658 34 1190 160 c 0,11,12
 1216 166 1216 166 1239 152 c 128,-1,13
 1262 138 1262 138 1268 112 c 128,-1,14
 1274 86 1274 86 1260 63 c 128,-1,15
 1246 40 1246 40 1220 34 c 0,16,17
 1059 -4 1059 -4 919 -15 c 0,18,19
 919 -16 919 -16 919 -24.5 c 128,-1,20
 919 -33 919 -33 918 -38 c 2,21,-1
 904 -136 l 1,22,23
 995 -142 995 -142 1036 -189.5 c 128,-1,24
 1077 -237 1077 -237 1079.5 -291 c 128,-1,25
 1082 -345 1082 -345 1059 -388 c 0,26,27
 1010 -479 1010 -479 891 -509 c 128,-1,28
 772 -539 772 -539 636 -454 c 0,29,30
 605 -435 605 -435 605 -403.5 c 128,-1,31
 605 -372 605 -372 624 -352.5 c 128,-1,32
 643 -333 643 -333 666 -333 c 128,-1,33
 689 -333 689 -333 717 -351 c 128,-1,34
 745 -369 745 -369 794.5 -384 c 128,-1,35
 844 -399 844 -399 884.5 -380.5 c 128,-1,36
 925 -362 925 -362 941.5 -330 c 128,-1,37
 958 -298 958 -298 944 -282 c 0,38,39
 921 -255 921 -255 839 -269 c 0,40,41
 834 -270 834 -270 817.5 -270 c 128,-1,42
 801 -270 801 -270 782 -251 c 128,-1,43
 763 -232 763 -232 763 -216 c 128,-1,44
 763 -200 763 -200 764 -196 c 2,45,-1
 790 -20 l 2,46,47
 790 -19 790 -19 790 -19 c 1,48,49
 505 -13 505 -13 319 128 c 128,-1,50
 133 269 133 269 105.5 503.5 c 128,-1,51
 78 738 78 738 196.5 961 c 128,-1,52
 315 1184 315 1184 533 1312 c 0,53,54
 831 1487 831 1487 1204 1417 c 0,55,56
 1230 1413 1230 1413 1245.5 1390.5 c 128,-1,0
 1261 1368 1261 1368 1256 1342 c 128,-1,1
EndSplineSet
EndChar

StartChar: Eth
Encoding: 208 208 145
Width: 1093
GlyphClass: 2
Flags: W
LayerCount: 2
Fore
SplineSet
-148 830 m 128,-1,1
 -148 857 -148 857 -129 876 c 128,-1,2
 -110 895 -110 895 -83 895 c 2,3,-1
 101 895 l 1,4,-1
 100 1366 l 2,5,6
 100 1389 100 1389 114.5 1407 c 128,-1,7
 129 1425 129 1425 151 1430 c 0,8,9
 416 1488 416 1488 644 1338 c 0,10,11
 823 1220 823 1220 923.5 1003.5 c 128,-1,12
 1024 787 1024 787 981 562 c 0,13,14
 931 302 931 302 700 149 c 0,15,16
 502 18 502 18 176 -10 c 0,17,18
 150 -12 150 -12 129 6.5 c 128,-1,19
 108 25 108 25 106 53 c 2,20,-1
 102 765 l 1,21,-1
 -83 765 l 2,22,23
 -110 765 -110 765 -129 784 c 128,-1,0
 -148 803 -148 803 -148 830 c 128,-1,1
232 765 m 1,24,-1
 236 127 l 1,25,26
 474 156 474 156 629 258 c 0,27,28
 814 380 814 380 851 575.5 c 128,-1,29
 888 771 888 771 804.5 951.5 c 128,-1,30
 721 1132 721 1132 567 1233 c 0,31,32
 412 1334 412 1334 230 1312 c 1,33,-1
 231 895 l 1,34,-1
 358 895 l 2,35,36
 385 895 385 895 404 876 c 128,-1,37
 423 857 423 857 423 830 c 128,-1,38
 423 803 423 803 404 784 c 128,-1,39
 385 765 385 765 358 765 c 2,40,-1
 232 765 l 1,24,-1
EndSplineSet
EndChar

StartChar: multiply
Encoding: 215 215 152
Width: 1076
GlyphClass: 2
Flags: W
LayerCount: 2
Fore
SplineSet
789 990 m 2,0,1
 807 1008 807 1008 835 1006.5 c 128,-1,2
 863 1005 863 1005 880.5 985.5 c 128,-1,3
 898 966 898 966 896.5 939 c 128,-1,4
 895 912 895 912 875 894 c 2,5,-1
 242 288 l 2,6,7
 224 270 224 270 196 271.5 c 128,-1,8
 168 273 168 273 150.5 292.5 c 128,-1,9
 133 312 133 312 134.5 339 c 128,-1,10
 136 366 136 366 156 384 c 2,11,-1
 789 990 l 2,0,1
129 867 m 2,12,13
 107 884 107 884 101.5 909.5 c 128,-1,14
 96 935 96 935 108 954 c 0,15,16
 132 988 132 988 160 986.5 c 128,-1,17
 188 985 188 985 201 975 c 2,18,-1
 948 399 l 2,19,20
 970 382 970 382 975.5 356.5 c 128,-1,21
 981 331 981 331 966 309 c 256,22,23
 951 287 951 287 923 281.5 c 128,-1,24
 895 276 895 276 876 291 c 2,25,-1
 129 867 l 2,12,13
EndSplineSet
EndChar

StartChar: Oslash
Encoding: 216 216 153
Width: 1702
GlyphClass: 2
Flags: W
LayerCount: 2
Fore
SplineSet
828 1418 m 0,0,1
 842 1419 842 1419 851 1416 c 128,-1,2
 860 1413 860 1413 863 1413 c 0,3,4
 1061 1402 1061 1402 1236 1297 c 1,5,-1
 1316 1388 l 2,6,7
 1340 1417 1340 1417 1358.5 1423.5 c 128,-1,8
 1377 1430 1377 1430 1402 1419 c 128,-1,9
 1427 1408 1427 1408 1436.5 1378 c 128,-1,10
 1446 1348 1446 1348 1434 1334 c 2,11,-1
 1339 1224 l 1,12,13
 1401 1172 1401 1172 1451 1107 c 0,14,15
 1589 927 1589 927 1601 705 c 128,-1,16
 1613 483 1613 483 1474 289 c 0,17,18
 1400 186 1400 186 1270.5 111.5 c 128,-1,19
 1141 37 1141 37 994 12 c 0,20,21
 772 -25 772 -25 564 51 c 0,22,23
 472 84 472 84 394 139 c 1,24,-1
 300 30 l 2,25,26
 274 1 274 1 256 -5.5 c 128,-1,27
 238 -12 238 -12 213 0.5 c 128,-1,28
 188 13 188 13 179 42 c 128,-1,29
 170 71 170 71 183 86 c 2,30,-1
 299 220 l 1,31,32
 163 357 163 357 120 539 c 0,33,34
 56 805 56 805 197 1045 c 0,35,36
 264 1160 264 1160 368 1244 c 0,37,38
 567 1407 567 1407 828 1418 c 0,0,1
835 1288 m 1,39,40
 616 1279 616 1279 443.5 1138.5 c 128,-1,41
 271 998 271 998 237 779 c 0,42,43
 221 675 221 675 246 569.5 c 128,-1,44
 271 464 271 464 312.5 407 c 128,-1,45
 354 350 354 350 384 318 c 1,46,-1
 1149 1197 l 1,47,48
 1010 1275 1010 1275 856 1283 c 0,49,50
 846 1284 846 1284 835 1288 c 1,39,40
480 238 m 1,51,52
 540 198 540 198 611 172 c 0,53,54
 784 109 784 109 973 141 c 0,55,56
 1097 161 1097 161 1204 222.5 c 128,-1,57
 1311 284 1311 284 1368 365 c 0,58,59
 1481 522 1481 522 1471.5 701 c 128,-1,60
 1462 880 1462 880 1348 1028 c 0,61,62
 1306 1082 1306 1082 1253 1126 c 1,63,-1
 480 238 l 1,51,52
EndSplineSet
EndChar

StartChar: Thorn
Encoding: 222 222 159
Width: 993
GlyphClass: 2
Flags: W
LayerCount: 2
Fore
SplineSet
100 1392 m 1,0,1
 100 1392 100 1392 100 1406 c 0,2,3
 100 1419 100 1419 119 1438.5 c 128,-1,4
 138 1458 138 1458 165 1458 c 128,-1,5
 192 1458 192 1458 211 1439 c 128,-1,6
 230 1420 230 1420 230 1406 c 2,7,-1
 230 1264 l 1,8,9
 540 1249 540 1249 719 1136 c 0,10,11
 807 1080 807 1080 852.5 1003.5 c 128,-1,12
 898 927 898 927 893 845 c 128,-1,13
 888 763 888 763 834.5 692 c 128,-1,14
 781 621 781 621 692 572 c 0,15,16
 511 473 511 473 232 480 c 1,17,-1
 233 40 l 1,18,19
 233 40 233 40 233 26 c 256,20,21
 233 12 233 12 214 -7.5 c 128,-1,22
 195 -27 195 -27 168 -27 c 128,-1,23
 141 -27 141 -27 122 -7.5 c 128,-1,24
 103 12 103 12 103 26 c 2,25,-1
 103 39 l 1,26,-1
 100 1392 l 1,0,1
231 1134 m 1,27,-1
 232 610 l 1,28,29
 478 603 478 603 617.5 679.5 c 128,-1,30
 757 756 757 756 763.5 852.5 c 128,-1,31
 770 949 770 949 649 1026 c 0,32,33
 502 1120 502 1120 231 1134 c 1,27,-1
EndSplineSet
EndChar

StartChar: germandbls
Encoding: 223 223 160
Width: 1084
GlyphClass: 2
Flags: W
LayerCount: 2
Fore
SplineSet
241 1314 m 0,0,1
 442 1484 442 1484 669 1357 c 0,2,3
 803 1283 803 1283 832 1155.5 c 128,-1,4
 861 1028 861 1028 796.5 918.5 c 128,-1,5
 732 809 732 809 621 717 c 1,6,7
 891 603 891 603 964 416 c 0,8,9
 1024 261 1024 261 913 141 c 0,10,11
 749 -37 749 -37 376 9 c 0,12,13
 352 12 352 12 335 30 c 0,14,15
 318 49 318 49 318 75 c 128,-1,16
 318 101 318 101 337 120 c 128,-1,17
 356 139 356 139 371.5 139 c 128,-1,18
 387 139 387 139 391 138 c 0,19,20
 588 115 588 115 713 164.5 c 128,-1,21
 838 214 838 214 852 294 c 128,-1,22
 866 374 866 374 767 475.5 c 128,-1,23
 668 577 668 577 468 634 c 0,24,25
 449 639 449 639 435.5 657.5 c 128,-1,26
 422 676 422 676 422 703 c 128,-1,27
 422 730 422 730 449 749 c 0,28,29
 613 862 613 862 681.5 979 c 128,-1,30
 750 1096 750 1096 669 1189 c 0,31,32
 609 1257 609 1257 541 1271 c 0,33,34
 421 1296 421 1296 325 1215 c 0,35,36
 270 1168 270 1168 252.5 1126 c 128,-1,37
 235 1084 235 1084 235 1061 c 2,38,-1
 230 63 l 2,39,40
 230 36 230 36 211 17 c 256,41,42
 192 -2 192 -2 165.5 -2 c 128,-1,43
 139 -2 139 -2 119 17 c 1,44,45
 114 33 114 33 107 41 c 128,-1,46
 100 49 100 49 100 64 c 2,47,-1
 105 1061 l 2,48,49
 106 1200 106 1200 241 1314 c 0,0,1
EndSplineSet
EndChar

StartChar: ae
Encoding: 230 230 167
Width: 1975
GlyphClass: 2
Flags: W
LayerCount: 2
Fore
SplineSet
1819 912 m 0,0,1
 1864 861 1864 861 1873.5 793 c 128,-1,2
 1883 725 1883 725 1854 660 c 0,3,4
 1793 522 1793 522 1596.5 438.5 c 128,-1,5
 1400 355 1400 355 1078 355 c 0,6,7
 1071 355 1071 355 1063 356 c 1,8,9
 1103 208 1103 208 1248 157 c 0,10,11
 1454 84 1454 84 1780 245 c 0,12,13
 1794 252 1794 252 1815.5 252 c 128,-1,14
 1837 252 1837 252 1856 233 c 128,-1,15
 1875 214 1875 214 1875 180 c 128,-1,16
 1875 146 1875 146 1838 129 c 0,17,18
 1463 -57 1463 -57 1205 34 c 0,19,20
 1053 88 1053 88 976 230 c 1,21,22
 882 80 882 80 705 19 c 0,23,24
 577 -25 577 -25 415.5 -5.5 c 128,-1,25
 254 14 254 14 168 120 c 0,26,27
 126 172 126 172 116 237.5 c 128,-1,28
 106 303 106 303 133 368 c 0,29,30
 190 499 190 499 384.5 577.5 c 128,-1,31
 579 656 579 656 897 656 c 2,32,33
 897 656 897 656 898 656 c 1,34,35
 849 777 849 777 730 836 c 0,36,37
 524 939 524 939 187 823 c 0,38,39
 176 819 176 819 157 819 c 128,-1,40
 138 819 138 819 119 838 c 128,-1,41
 100 857 100 857 100 880 c 128,-1,42
 100 903 100 903 113 921.5 c 128,-1,43
 126 940 126 940 145 946 c 0,44,45
 534 1081 534 1081 789 953 c 0,46,47
 933 881 933 881 1004 737 c 1,48,49
 1083 863 1083 863 1222 940 c 128,-1,50
 1361 1017 1361 1017 1544 1017 c 128,-1,51
 1727 1017 1727 1017 1819 912 c 0,0,1
1692 653 m 0,52,53
 1788 749 1788 749 1716 832 c 0,54,55
 1668 887 1668 887 1523 887 c 0,56,57
 1437 887 1437 887 1346.5 856 c 128,-1,58
 1256 825 1256 825 1198 772 c 0,59,60
 1080 666 1080 666 1056 521 c 0,61,62
 1056 501 1056 501 1055 481 c 1,63,64
 1066 485 1066 485 1078 485 c 0,65,66
 1416 485 1416 485 1607 592 c 0,67,68
 1662 623 1662 623 1692 653 c 0,52,53
925 532 m 1,69,70
 912 526 912 526 905 526 c 2,71,72
 905 526 905 526 897 526 c 0,73,74
 514 526 514 526 339 409 c 0,75,76
 273 365 273 365 249.5 310 c 128,-1,77
 226 255 226 255 274 196 c 128,-1,78
 322 137 322 137 436 123 c 0,79,80
 683 93 683 93 822 242 c 0,81,82
 901 327 901 327 921 447 c 1,83,84
 921 484 921 484 923 505.5 c 128,-1,85
 925 527 925 527 925 532 c 1,69,70
EndSplineSet
EndChar

StartChar: ccedilla
Encoding: 231 231 168
Width: 964
GlyphClass: 2
Flags: W
LayerCount: 2
Fore
SplineSet
853.5 870.5 m 128,-1,1
 846 845 846 845 822 832 c 128,-1,2
 798 819 798 819 773 827 c 0,3,4
 583 885 583 885 432 778 c 0,5,6
 317 697 317 697 262.5 553 c 128,-1,7
 208 409 208 409 243 291.5 c 128,-1,8
 278 174 278 174 388 135 c 0,9,10
 533 84 533 84 777 173 c 0,11,12
 802 182 802 182 826.5 171 c 128,-1,13
 851 160 851 160 860 135 c 128,-1,14
 869 110 869 110 857.5 85 c 128,-1,15
 846 60 846 60 821 51 c 0,16,17
 687 2 687 2 576 -10 c 1,18,19
 576 -24 576 -24 575 -31 c 2,20,-1
 561 -129 l 5,21,22
 652 -135 652 -135 693 -182.5 c 132,-1,23
 734 -230 734 -230 736.5 -284 c 132,-1,24
 739 -338 739 -338 716 -381 c 4,25,26
 667 -472 667 -472 548.5 -502 c 132,-1,27
 430 -532 430 -532 293 -447 c 4,28,29
 262 -428 262 -428 262 -396.5 c 132,-1,30
 262 -365 262 -365 281 -346 c 132,-1,31
 300 -327 300 -327 323 -327 c 132,-1,32
 346 -327 346 -327 374 -344.5 c 132,-1,33
 402 -362 402 -362 451.5 -377.5 c 132,-1,34
 501 -393 501 -393 541.5 -374 c 132,-1,35
 582 -355 582 -355 598.5 -323 c 132,-1,36
 615 -291 615 -291 596.5 -270 c 132,-1,37
 578 -249 578 -249 496 -262 c 4,38,39
 491 -263 491 -263 474.5 -263 c 132,-1,40
 458 -263 458 -263 437 -242 c 132,-1,41
 416 -221 416 -221 421 -189 c 6,42,-1
 447 -13 l 2,43,44
 447 -12 447 -12 422 -9 c 128,-1,45
 397 -6 397 -6 353 10 c 0,46,47
 172 73 172 73 121.5 243.5 c 128,-1,48
 71 414 71 414 140 597 c 128,-1,49
 209 780 209 780 357 885 c 0,50,51
 560 1028 560 1028 810 951 c 0,52,53
 835 943 835 943 848 919.5 c 128,-1,0
 861 896 861 896 853.5 870.5 c 128,-1,1
EndSplineSet
EndChar

StartChar: eth
Encoding: 240 240 177
Width: 1149
GlyphClass: 2
Flags: W
LayerCount: 2
Fore
SplineSet
849 608 m 1,0,1
 841 777 841 777 754 925 c 1,2,-1
 554 925 l 2,3,4
 553 925 553 925 539.5 925 c 128,-1,5
 526 925 526 925 507 944 c 128,-1,6
 488 963 488 963 488 989.5 c 128,-1,7
 488 1016 488 1016 507 1035.5 c 128,-1,8
 526 1055 526 1055 539.5 1055 c 128,-1,9
 553 1055 553 1055 554 1055 c 2,10,-1
 654 1055 l 1,11,12
 555 1155 555 1155 426 1208 c 0,13,14
 385 1224 385 1224 385 1259.5 c 128,-1,15
 385 1295 385 1295 410.5 1320.5 c 128,-1,16
 436 1346 436 1346 476 1328 c 0,17,18
 688 1240 688 1240 824 1055 c 1,19,-1
 1034 1055 l 1,20,21
 1034 1055 1034 1055 1047.5 1055 c 128,-1,22
 1061 1055 1061 1055 1080.5 1035.5 c 128,-1,23
 1100 1016 1100 1016 1100 989.5 c 128,-1,24
 1100 963 1100 963 1080.5 944 c 128,-1,25
 1061 925 1061 925 1047.5 925 c 128,-1,26
 1034 925 1034 925 1034 925 c 1,27,-1
 901 925 l 1,28,29
 968 784 968 784 977 647 c 0,30,31
 996 370 996 370 857 192 c 0,32,33
 779 93 779 93 665 43 c 128,-1,34
 551 -7 551 -7 429 15 c 0,35,36
 270 42 270 42 175.5 172.5 c 128,-1,37
 81 303 81 303 104.5 461.5 c 128,-1,38
 128 620 128 620 253 718 c 128,-1,39
 378 816 378 816 537 803 c 0,40,41
 643 793 643 793 723.5 738.5 c 128,-1,42
 804 684 804 684 849 608 c 1,0,1
658 626 m 128,-1,44
 598 667 598 667 508 674.5 c 128,-1,45
 418 682 418 682 333.5 616 c 128,-1,46
 249 550 249 550 233.5 443.5 c 128,-1,47
 218 337 218 337 281 249 c 128,-1,48
 344 161 344 161 440 145 c 0,49,50
 609 115 609 115 732 246 c 0,51,52
 733 247 733 247 733 248 c 0,53,54
 773 309 773 309 777.5 381.5 c 128,-1,55
 782 454 782 454 750 519.5 c 128,-1,43
 718 585 718 585 658 626 c 128,-1,44
EndSplineSet
EndChar

StartChar: divide
Encoding: 247 247 184
Width: 1163
GlyphClass: 2
Flags: W
LayerCount: 2
Fore
SplineSet
100 554 m 128,-1,1
 100 581 100 581 119 600 c 128,-1,2
 138 619 138 619 165 619 c 2,3,-1
 998 619 l 2,4,5
 1025 619 1025 619 1044 600 c 128,-1,6
 1063 581 1063 581 1063 554 c 128,-1,7
 1063 527 1063 527 1044 508 c 128,-1,8
 1025 489 1025 489 998 489 c 2,9,-1
 165 489 l 2,10,11
 138 489 138 489 119 508 c 128,-1,0
 100 527 100 527 100 554 c 128,-1,1
481 174 m 128,-1,13
 480 197 480 197 490 229 c 128,-1,14
 500 261 500 261 534.5 299.5 c 128,-1,15
 569 338 569 338 618 332 c 128,-1,16
 667 326 667 326 709.5 259.5 c 128,-1,17
 752 193 752 193 739 154 c 128,-1,18
 726 115 726 115 694 95.5 c 128,-1,19
 662 76 662 76 620 74.5 c 128,-1,20
 578 73 578 73 546 88.5 c 128,-1,21
 514 104 514 104 498 127.5 c 128,-1,12
 482 151 482 151 481 174 c 128,-1,13
489 856 m 128,-1,23
 488 879 488 879 498 911 c 128,-1,24
 508 943 508 943 542.5 981.5 c 128,-1,25
 577 1020 577 1020 626 1014 c 128,-1,26
 675 1008 675 1008 717.5 941.5 c 128,-1,27
 760 875 760 875 747 836 c 128,-1,28
 734 797 734 797 702 777.5 c 128,-1,29
 670 758 670 758 628 756.5 c 128,-1,30
 586 755 586 755 554 770.5 c 128,-1,31
 522 786 522 786 506 809.5 c 128,-1,22
 490 833 490 833 489 856 c 128,-1,23
EndSplineSet
EndChar

StartChar: oslash
Encoding: 248 248 185
Width: 1209
GlyphClass: 2
Flags: W
LayerCount: 2
Fore
SplineSet
590 910 m 0,0,1
 463 902 463 902 359.5 808 c 128,-1,2
 256 714 256 714 234 562 c 0,3,4
 206 359 206 359 349 220 c 1,5,-1
 733 877 l 1,6,7
 674 903 674 903 636 905 c 128,-1,8
 598 907 598 907 590 910 c 0,0,1
876 1122 m 2,9,10
 891 1147 891 1147 914.5 1156 c 128,-1,11
 938 1165 938 1165 963 1153.5 c 128,-1,12
 988 1142 988 1142 997 1114.5 c 128,-1,13
 1006 1087 1006 1087 994 1068 c 2,14,-1
 908 919 l 1,15,16
 1097 757 1097 757 1109 512 c 0,17,18
 1117 349 1117 349 1031 215 c 0,19,20
 976 129 976 129 888.5 73 c 128,-1,21
 801 17 801 17 701 -1 c 0,22,23
 539 -31 539 -31 391 36 c 1,24,-1
 312 -99 l 2,25,26
 298 -123 298 -123 274.5 -132.5 c 128,-1,27
 251 -142 251 -142 225.5 -129 c 128,-1,28
 200 -116 200 -116 192 -89 c 128,-1,29
 184 -62 184 -62 196 -43 c 2,30,-1
 282 104 l 1,31,32
 227 151 227 151 185 215 c 0,33,34
 78 380 78 380 106 579 c 128,-1,35
 134 778 134 778 273 905 c 128,-1,36
 412 1032 412 1032 589 1040 c 0,37,38
 601 1041 601 1041 613 1037 c 0,39,40
 713 1031 713 1031 799 990 c 1,41,-1
 876 1122 l 2,9,10
457 148 m 1,42,43
 562 105 562 105 659 123 c 0,44,45
 839 156 839 156 921 285 c 0,46,47
 985 384 985 384 979 508 c 0,48,49
 970 683 970 683 841 805 c 1,50,-1
 457 148 l 1,42,43
EndSplineSet
EndChar

StartChar: thorn
Encoding: 254 254 191
Width: 1088
GlyphClass: 2
Flags: W
LayerCount: 2
Fore
SplineSet
104.5 753 m 128,-1,1
 100 795 100 795 100 811 c 128,-1,2
 100 827 100 827 120 847.5 c 128,-1,3
 140 868 140 868 167 868 c 128,-1,4
 194 868 194 868 214 849.5 c 128,-1,5
 234 831 234 831 238 790.5 c 128,-1,6
 242 750 242 750 247 660 c 1,7,8
 556 682 556 682 760 579 c 0,9,10
 862 527 862 527 922 449.5 c 128,-1,11
 982 372 982 372 987.5 283.5 c 128,-1,12
 993 195 993 195 940 115.5 c 128,-1,13
 887 36 887 36 789 -12 c 0,14,15
 591 -110 591 -110 269 -68 c 1,16,-1
 275 -531 l 1,17,18
 275 -531 275 -531 275 -545.5 c 128,-1,19
 275 -560 275 -560 254.5 -580.5 c 128,-1,20
 234 -601 234 -601 206 -601 c 128,-1,21
 178 -601 178 -601 158 -580.5 c 128,-1,22
 138 -560 138 -560 138 -532 c 1,23,-1
 138 -532 l 1,24,25
 133 115 133 115 121 413 c 128,-1,0
 109 711 109 711 104.5 753 c 128,-1,1
698 457 m 0,26,27
 528 543 528 543 254 523 c 1,28,29
 261 340 261 340 266 71 c 1,30,31
 558 27 558 27 729 111 c 0,32,33
 858 174 858 174 851 275 c 0,34,35
 848 323 848 323 810.5 371 c 128,-1,36
 773 419 773 419 698 457 c 0,26,27
EndSplineSet
EndChar

StartChar: dotlessi
Encoding: 305 305 193
Width: 371
GlyphClass: 2
Flags: W
LayerCount: 2
Fore
SplineSet
184 -9 m 0,0,1
 158 -17 158 -17 134.5 -4 c 128,-1,2
 111 9 111 9 103.5 34 c 128,-1,3
 96 59 96 59 104 80 c 0,4,5
 124 125 124 125 129.5 416 c 128,-1,6
 135 707 135 707 132 942 c 0,7,8
 132 969 132 969 150.5 988.5 c 128,-1,9
 169 1008 169 1008 195.5 1008.5 c 128,-1,10
 222 1009 222 1009 241.5 990 c 128,-1,11
 261 971 261 971 261 944 c 0,12,13
 265 707 265 707 262 548 c 128,-1,14
 259 389 259 389 258 322 c 128,-1,15
 257 255 257 255 253 163 c 0,16,17
 247 10 247 10 184 -9 c 0,0,1
EndSplineSet
EndChar

StartChar: OE
Encoding: 338 338 194
Width: 2105
GlyphClass: 2
Flags: W
LayerCount: 2
Fore
SplineSet
984 1423 m 0,0,1
 1163 1436 1163 1436 1360 1434 c 0,2,3
 1783 1429 1783 1429 1966 1348 c 0,4,5
 2005 1331 2005 1331 2005 1296 c 128,-1,6
 2005 1261 2005 1261 1986 1242 c 128,-1,7
 1967 1223 1967 1223 1946.5 1223 c 128,-1,8
 1926 1223 1926 1223 1913 1229 c 0,9,10
 1755 1300 1755 1300 1359 1304 c 0,11,12
 1207 1305 1207 1305 1050 1297 c 1,13,14
 1057 1036 1057 1036 1055 779 c 1,15,-1
 1780 774 l 1,16,-1
 1781 774 l 2,17,18
 1808 774 1808 774 1827 755 c 128,-1,19
 1846 736 1846 736 1846 709 c 128,-1,20
 1846 682 1846 682 1827 663 c 128,-1,21
 1808 644 1808 644 1794 644 c 128,-1,22
 1780 644 1780 644 1779 644 c 2,23,-1
 1054 649 l 1,24,25
 1051 360 1051 360 1039 129 c 1,26,27
 1700 131 1700 131 1865 146 c 0,28,29
 1868 146 1868 146 1883 146 c 128,-1,30
 1898 146 1898 146 1917 127 c 128,-1,31
 1936 108 1936 108 1936 86 c 128,-1,32
 1936 64 1936 64 1923.5 41.5 c 128,-1,33
 1911 19 1911 19 1876 16 c 0,34,35
 1691 0 1691 0 1151 -1 c 2,36,-1
 971 -2 l 2,37,38
 958 -2 958 -2 946 3 c 1,39,40
 536 -52 536 -52 303 151 c 0,41,42
 194 246 194 246 143 382 c 0,43,44
 53 625 53 625 146 889 c 0,45,46
 226 1113 226 1113 424 1266 c 0,47,48
 650 1441 650 1441 971 1425 c 0,49,50
 978 1425 978 1425 984 1423 c 0,0,1
920 1296 m 1,51,52
 661 1296 661 1296 484.5 1151.5 c 128,-1,53
 308 1007 308 1007 254.5 802.5 c 128,-1,54
 201 598 201 598 264 430 c 0,55,56
 303 323 303 323 388 249 c 0,57,58
 572 89 572 89 909 130 c 1,59,60
 936 654 936 654 920 1296 c 1,51,52
EndSplineSet
EndChar

StartChar: oe
Encoding: 339 339 195
Width: 2048
GlyphClass: 2
Flags: W
LayerCount: 2
Fore
SplineSet
587 1034 m 2,0,1
 597 1034 597 1034 602 1032.5 c 128,-1,2
 607 1031 607 1031 608 1031 c 0,3,4
 723 1024 723 1024 827 964 c 0,5,6
 977 877 977 877 1049 715 c 1,7,8
 1124 843 1124 843 1264 925.5 c 128,-1,9
 1404 1008 1404 1008 1591.5 1008 c 128,-1,10
 1779 1008 1779 1008 1872 903 c 0,11,12
 1916 852 1916 852 1925.5 784 c 128,-1,13
 1935 716 1935 716 1907 651 c 0,14,15
 1845 513 1845 513 1649 429.5 c 128,-1,16
 1453 346 1453 346 1130 346 c 0,17,18
 1123 346 1123 346 1116 347 c 1,19,20
 1156 199 1156 199 1301 148 c 0,21,22
 1507 75 1507 75 1833 236 c 0,23,24
 1847 243 1847 243 1868.5 243 c 128,-1,25
 1890 243 1890 243 1909 224 c 128,-1,26
 1928 205 1928 205 1928 186 c 0,27,28
 1928 137 1928 137 1891 120 c 0,29,30
 1515 -66 1515 -66 1258 25 c 0,31,32
 1102 80 1102 80 1025 227 c 1,33,34
 969 136 969 136 881 79 c 128,-1,35
 793 22 793 22 694 4 c 0,36,37
 546 -24 546 -24 407 32.5 c 128,-1,38
 268 89 268 89 184 218 c 0,39,40
 79 379 79 379 106 577 c 128,-1,41
 133 775 133 775 270.5 900.5 c 128,-1,42
 408 1026 408 1026 583 1034 c 0,43,44
 585 1034 585 1034 586 1034 c 2,45,-1
 587 1034 l 2,0,1
584 915 m 0,46,47
 455 908 455 908 349.5 812 c 128,-1,48
 244 716 244 716 222.5 562 c 128,-1,49
 201 408 201 408 274 296.5 c 128,-1,50
 347 185 347 185 453 142 c 0,51,52
 611 78 611 78 768 151 c 0,53,54
 943 233 943 233 974 428 c 1,55,56
 972 469 972 469 978 511 c 1,57,58
 972 634 972 634 910 724 c 0,59,60
 788 901 788 901 600 912 c 0,61,62
 592 913 592 913 584 915 c 0,46,47
1761 662 m 0,63,64
 1834 749 1834 749 1769 823 c 0,65,66
 1721 878 1721 878 1583 878 c 0,67,68
 1504 878 1504 878 1424 854 c 0,69,70
 1276 811 1276 811 1194 704 c 128,-1,71
 1112 597 1112 597 1104 470 c 1,72,73
 1116 476 1116 476 1123 476 c 128,-1,74
 1130 476 1130 476 1174.5 476 c 128,-1,75
 1219 476 1219 476 1298.5 483.5 c 128,-1,76
 1378 491 1378 491 1439 505 c 0,77,78
 1671 555 1671 555 1761 662 c 0,63,64
EndSplineSet
EndChar

StartChar: circumflex
Encoding: 710 710 196
Width: 699
GlyphClass: 2
Flags: W
LayerCount: 2
Fore
SplineSet
23 1198 m 2,0,-1
 314 1471 l 2,1,2
 334 1490 334 1490 360.5 1489.5 c 128,-1,3
 387 1489 387 1489 406 1470 c 2,4,-1
 677 1192 l 2,5,6
 697 1173 697 1173 696.5 1145.5 c 128,-1,7
 696 1118 696 1118 676.5 1099 c 128,-1,8
 657 1080 657 1080 630 1080.5 c 128,-1,9
 603 1081 603 1081 584 1101 c 2,10,-1
 358 1333 l 1,11,-1
 113 1104 l 2,12,13
 94 1085 94 1085 66.5 1085.5 c 128,-1,14
 39 1086 39 1086 20.5 1105.5 c 128,-1,15
 2 1125 2 1125 2.5 1152 c 128,-1,16
 3 1179 3 1179 23 1198 c 2,0,-1
EndSplineSet
EndChar

StartChar: caron
Encoding: 711 711 197
Width: 699
GlyphClass: 2
Flags: W
LayerCount: 2
Fore
SplineSet
674 1314 m 2,0,-1
 383 1040 l 2,1,2
 363 1021 363 1021 336.5 1021.5 c 128,-1,3
 310 1022 310 1022 291 1041 c 2,4,-1
 19 1319 l 2,5,6
 0 1338 0 1338 0 1365 c 128,-1,7
 0 1392 0 1392 19.5 1411 c 128,-1,8
 39 1430 39 1430 66 1430 c 128,-1,9
 93 1430 93 1430 112 1410 c 2,10,-1
 339 1178 l 1,11,-1
 583 1407 l 2,12,13
 603 1427 603 1427 630 1426.5 c 128,-1,14
 657 1426 657 1426 676 1406.5 c 128,-1,15
 695 1387 695 1387 694 1360 c 128,-1,16
 693 1333 693 1333 674 1314 c 2,0,-1
EndSplineSet
EndChar

StartChar: tilde
Encoding: 732 732 198
Width: 877
GlyphClass: 2
Flags: W
LayerCount: 2
Fore
SplineSet
710.5 1312.5 m 128,-1,1
 741 1339 741 1339 746 1370 c 128,-1,2
 751 1401 751 1401 769.5 1417.5 c 128,-1,3
 788 1434 788 1434 813.5 1434 c 128,-1,4
 839 1434 839 1434 858 1415 c 128,-1,5
 877 1396 877 1396 877 1380 c 0,6,7
 877 1284 877 1284 803 1220 c 0,8,9
 653 1091 653 1091 442 1223 c 0,10,11
 397 1251 397 1251 361.5 1272 c 128,-1,12
 326 1293 326 1293 281 1300.5 c 128,-1,13
 236 1308 236 1308 190.5 1281.5 c 128,-1,14
 145 1255 145 1255 126 1205 c 0,15,16
 120 1187 120 1187 102 1174 c 128,-1,17
 84 1161 84 1161 61 1161 c 128,-1,18
 38 1161 38 1161 19 1180 c 128,-1,19
 0 1199 0 1199 0 1218.5 c 128,-1,20
 0 1238 0 1238 4 1249 c 0,21,22
 39 1343 39 1343 125 1394 c 0,23,24
 276 1482 276 1482 457 1368 c 0,25,26
 545 1312 545 1312 577.5 1298.5 c 128,-1,27
 610 1285 610 1285 645 1285.5 c 128,-1,0
 680 1286 680 1286 710.5 1312.5 c 128,-1,1
EndSplineSet
EndChar

StartChar: ml_0
Encoding: 3430 3430 199
Width: 1168
GlyphClass: 2
Flags: W
LayerCount: 2
Fore
SplineSet
207 1162 m 0,0,1
 282 1281 282 1281 423 1334 c 0,2,3
 502 1364 502 1364 607 1351 c 1,4,5
 776 1340 776 1340 908 1118 c 0,6,7
 1022 927 1022 927 1057.5 667.5 c 128,-1,8
 1093 408 1093 408 1010 226 c 0,9,10
 962 122 962 122 867.5 58 c 128,-1,11
 773 -6 773 -6 646.5 -7.5 c 128,-1,12
 520 -9 520 -9 416 55 c 0,13,14
 250 156 250 156 167 371 c 0,15,16
 108 524 108 524 101 699 c 0,17,18
 90 978 90 978 207 1162 c 0,0,1
587 1192 m 0,19,20
 491 1206 491 1206 436 1171.5 c 128,-1,21
 381 1137 381 1137 340.5 1073 c 128,-1,22
 300 1009 300 1009 278.5 910.5 c 128,-1,23
 257 812 257 812 261 704 c 0,24,25
 270 473 270 473 376 312 c 128,-1,26
 482 151 482 151 646 153 c 0,27,28
 759 154 759 154 824.5 225.5 c 128,-1,29
 890 297 890 297 904 456 c 0,30,31
 926 702 926 702 813 953 c 0,32,33
 753 1086 753 1086 692 1137.5 c 128,-1,34
 631 1189 631 1189 595 1191 c 0,35,36
 591 1191 591 1191 587 1192 c 0,19,20
EndSplineSet
EndChar

StartChar: ml_1
Encoding: 3431 3431 200
Width: 1736
GlyphClass: 2
Flags: W
LayerCount: 2
Fore
SplineSet
868.5 1171 m 128,-1,1
 974 1224 974 1224 1095.5 1228 c 128,-1,2
 1217 1232 1217 1232 1326 1179.5 c 128,-1,3
 1435 1127 1435 1127 1512.5 1026.5 c 128,-1,4
 1590 926 1590 926 1621 768.5 c 128,-1,5
 1652 611 1652 611 1621 410 c 0,6,7
 1621 409 1621 409 1620 407 c 0,8,9
 1580 203 1580 203 1497.5 108.5 c 128,-1,10
 1415 14 1415 14 1269 -4 c 0,11,12
 1157 -14 1157 -14 1081 -9 c 0,13,14
 770 12 770 12 579.5 3.5 c 128,-1,15
 389 -5 389 -5 291 -91 c 0,16,17
 217 -156 217 -156 232.5 -230 c 128,-1,18
 248 -304 248 -304 344 -335 c 0,19,20
 475 -377 475 -377 676 -308 c 0,21,22
 687 -304 687 -304 706 -304 c 128,-1,23
 725 -304 725 -304 744 -323 c 128,-1,24
 763 -342 763 -342 763 -365 c 128,-1,25
 763 -388 763 -388 750 -406 c 128,-1,26
 737 -424 737 -424 718 -430 c 0,27,28
 476 -514 476 -514 305 -459 c 0,29,30
 225 -433 225 -433 172 -379 c 128,-1,31
 119 -325 119 -325 105 -256 c 128,-1,32
 91 -187 91 -187 117.5 -117 c 128,-1,33
 144 -47 144 -47 205 7 c 0,34,35
 338 123 338 123 579 134 c 0,36,37
 694 139 694 139 824 135 c 1,38,39
 598 437 598 437 595 702 c 0,40,41
 593 889 593 889 693 1024 c 0,42,0
 763 1118 763 1118 868.5 1171 c 128,-1,1
1404 954 m 0,43,44
 1288 1104 1288 1104 1095 1098 c 0,45,46
 1007 1095 1007 1095 928 1055 c 128,-1,47
 849 1015 849 1015 797 946 c 0,48,49
 676 784 676 784 752 539 c 0,50,51
 813 343 813 343 997 127 c 1,52,53
 1190 116 1190 116 1247 124 c 0,54,55
 1350 137 1350 137 1404.5 199.5 c 128,-1,56
 1459 262 1459 262 1492 431 c 1,57,58
 1544 771 1544 771 1404 954 c 0,43,44
EndSplineSet
EndChar

StartChar: ml_2
Encoding: 3432 3432 201
Width: 1789
GlyphClass: 2
Flags: W
LayerCount: 2
Fore
SplineSet
1127 137 m 1,0,1
 1420 130 1420 130 1619 130 c 0,2,3
 1659 130 1659 130 1680 95 c 0,4,5
 1689 79 1689 79 1689 55 c 128,-1,6
 1689 31 1689 31 1669 10.5 c 128,-1,7
 1649 -10 1649 -10 1620 -10 c 0,8,9
 1500 -12 1500 -12 1216.5 -5.5 c 128,-1,10
 933 1 933 1 902 1 c 128,-1,11
 871 1 871 1 850.5 21.5 c 128,-1,12
 830 42 830 42 830 66 c 0,13,14
 830 116 830 116 870 135 c 0,15,16
 985 188 985 188 1081.5 291 c 128,-1,17
 1178 394 1178 394 1233 514.5 c 128,-1,18
 1288 635 1288 635 1289 745 c 0,19,20
 1292 921 1292 921 1167 1018 c 0,21,22
 1013 1137 1013 1137 694 1116 c 0,23,24
 519 1105 519 1105 378 980 c 0,25,26
 187 810 187 810 258 538 c 0,27,28
 307 351 307 351 526 123 c 0,29,30
 546 103 546 103 546.5 74 c 128,-1,31
 547 45 547 45 526 24.5 c 128,-1,32
 505 4 505 4 475.5 4 c 128,-1,33
 446 4 446 4 425 26 c 0,34,35
 83 381 83 381 101 711 c 0,36,37
 113 929 113 929 284 1085 c 128,-1,38
 455 1241 455 1241 685 1256 c 0,39,40
 1057 1280 1057 1280 1253 1128 c 0,41,42
 1343 1058 1343 1058 1387 957 c 0,43,44
 1471 764 1471 764 1392 531.5 c 128,-1,45
 1313 299 1313 299 1127 137 c 1,0,1
EndSplineSet
EndChar

StartChar: ml_3
Encoding: 3433 3433 202
Width: 2420
GlyphClass: 2
Flags: W
LayerCount: 2
Fore
SplineSet
1266 879 m 0,0,1
 1478 1165 1478 1165 1723 1206 c 0,2,3
 1844 1226 1844 1226 1930 1153.5 c 128,-1,4
 2016 1081 2016 1081 2027 930 c 0,5,6
 2048 644 2048 644 1796 140 c 1,7,8
 1820 139 1820 139 1909 135 c 128,-1,9
 1998 131 1998 131 2078.5 129.5 c 128,-1,10
 2159 128 2159 128 2204.5 134.5 c 128,-1,11
 2250 141 2250 141 2266 141 c 128,-1,12
 2282 141 2282 141 2301.5 122 c 128,-1,13
 2321 103 2321 103 2321 78 c 128,-1,14
 2321 53 2321 53 2304.5 34 c 128,-1,15
 2288 15 2288 15 2264 12 c 0,16,17
 2128 -8 2128 -8 1939 2 c 128,-1,18
 1750 12 1750 12 1707 12 c 128,-1,19
 1664 12 1664 12 1645 31 c 128,-1,20
 1626 50 1626 50 1626 71.5 c 128,-1,21
 1626 93 1626 93 1633 108 c 0,22,23
 1780 386 1780 386 1843 592.5 c 128,-1,24
 1906 799 1906 799 1898 908 c 128,-1,25
 1890 1017 1890 1017 1848 1052 c 0,26,27
 1773 1115 1773 1115 1630 1037.5 c 128,-1,28
 1487 960 1487 960 1370 802 c 0,29,30
 1156 513 1156 513 1135 138 c 0,31,32
 1133 113 1133 113 1114 95.5 c 128,-1,33
 1095 78 1095 78 1069 78 c 128,-1,34
 1043 78 1043 78 1024 97 c 128,-1,35
 1005 116 1005 116 1005 130 c 2,36,-1
 1005 147 l 1,37,38
 1030 491 1030 491 835 767 c 0,39,40
 754 882 754 882 651 956 c 128,-1,41
 548 1030 548 1030 461 1047 c 0,42,43
 281 1081 281 1081 241 899 c 0,44,45
 215 782 215 782 258 575 c 128,-1,46
 301 368 301 368 429 83 c 0,47,48
 449 40 449 40 423 15 c 128,-1,49
 397 -10 397 -10 378 -10 c 0,50,51
 328 -10 328 -10 311 29 c 0,52,53
 46 617 46 617 114 926 c 0,54,55
 146 1074 146 1074 247.5 1137.5 c 128,-1,56
 349 1201 349 1201 477 1176.5 c 128,-1,57
 605 1152 605 1152 725.5 1064.5 c 128,-1,58
 846 977 846 977 941.5 841.5 c 128,-1,59
 1037 706 1037 706 1088 544 c 1,60,61
 1155 729 1155 729 1266 879 c 0,0,1
EndSplineSet
EndChar

StartChar: ml_4
Encoding: 3434 3434 203
Width: 1490
GlyphClass: 2
Flags: W
LayerCount: 2
Fore
SplineSet
850.5 1471 m 128,-1,1
 869 1452 869 1452 869 1411.5 c 128,-1,2
 869 1371 869 1371 853 1055 c 1,3,4
 1160 1009 1160 1009 1309 799 c 0,5,6
 1390 685 1390 685 1390 550 c 0,7,8
 1390 292 1390 292 1285 148.5 c 128,-1,9
 1180 5 1180 5 1034 -4 c 0,10,11
 937 -10 937 -10 854 47 c 0,12,13
 813 75 813 75 782 116 c 0,14,15
 680 248 680 248 690 466 c 0,16,17
 693 536 693 536 716 934 c 1,18,19
 507 933 507 933 369 834 c 0,20,21
 188 703 188 703 243 440 c 0,22,23
 275 288 275 288 406 93 c 0,24,25
 418 76 418 76 418 52.5 c 128,-1,26
 418 29 418 29 399 10 c 128,-1,27
 380 -9 380 -9 348.5 -9 c 128,-1,28
 317 -9 317 -9 298 21 c 0,29,30
 25 426 25 426 128 724 c 0,31,32
 175 852 175 852 287 934 c 0,33,34
 466 1065 466 1065 723 1065 c 1,35,36
 730 1212 730 1212 739 1428 c 0,37,38
 740 1454 740 1454 759 1472.5 c 128,-1,39
 778 1491 778 1491 791.5 1491 c 128,-1,40
 805 1491 805 1491 818.5 1490.5 c 128,-1,0
 832 1490 832 1490 850.5 1471 c 128,-1,1
846 924 m 1,41,42
 823 537 823 537 819 460 c 0,43,44
 811 289 811 289 877 205 c 0,45,46
 969 86 969 86 1088 142 c 128,-1,47
 1207 198 1207 198 1246 384 c 0,48,49
 1261 454 1261 454 1260 537 c 0,50,51
 1260 752 1260 752 1039 863 c 0,52,53
 953 906 953 906 846 924 c 1,41,42
EndSplineSet
EndChar

StartChar: ml_5
Encoding: 3435 3435 204
Width: 1751
GlyphClass: 2
Flags: W
LayerCount: 2
Fore
SplineSet
162 817 m 128,-1,1
 239 995 239 995 372.5 1126 c 128,-1,2
 506 1257 506 1257 674 1336.5 c 128,-1,3
 842 1416 842 1416 1004 1396 c 0,4,5
 1337 1356 1337 1356 1510 1127 c 0,6,7
 1638 959 1638 959 1650 702 c 0,8,9
 1657 569 1657 569 1625 414 c 0,10,11
 1621 392 1621 392 1602 376.5 c 128,-1,12
 1583 361 1583 361 1563 361 c 128,-1,13
 1543 361 1543 361 1528 370 c 0,14,15
 1496 389 1496 389 1496 426 c 0,16,17
 1496 433 1496 433 1497 440 c 0,18,19
 1575 826 1575 826 1407 1049 c 0,20,21
 1267 1234 1267 1234 1004 1265 c 0,22,23
 879 1280 879 1280 735 1219 c 0,24,25
 511 1124 511 1124 360.5 908.5 c 128,-1,26
 210 693 210 693 233 466 c 0,27,28
 246 331 246 331 298 206 c 128,-1,29
 350 81 350 81 435 -9 c 0,30,31
 629 -214 629 -214 939 -176 c 0,32,33
 1175 -147 1175 -147 1269 31 c 0,34,35
 1295 80 1295 80 1300 131 c 0,36,37
 1311 235 1311 235 1232.5 316 c 128,-1,38
 1154 397 1154 397 975 411 c 0,39,40
 941 414 941 414 928 436.5 c 128,-1,41
 915 459 915 459 915 472 c 0,42,43
 915 515 915 515 951 534 c 0,44,45
 1146 633 1146 633 1206 734 c 0,46,47
 1240 791 1240 791 1203.5 826.5 c 128,-1,48
 1167 862 1167 862 1103.5 879 c 128,-1,49
 1040 896 1040 896 950.5 886.5 c 128,-1,50
 861 877 861 877 784 839 c 0,51,52
 598 748 598 748 543.5 543 c 128,-1,53
 489 338 489 338 619 191 c 0,54,55
 645 161 645 161 672 135 c 128,-1,56
 699 109 699 109 699 82 c 128,-1,57
 699 55 699 55 680 35.5 c 128,-1,58
 661 16 661 16 634 16 c 128,-1,59
 607 16 607 16 582.5 40.5 c 128,-1,60
 558 65 558 65 542 81 c 0,61,62
 342 289 342 289 415 566 c 0,63,64
 452 705 452 705 534.5 803.5 c 128,-1,65
 617 902 617 902 721.5 953.5 c 128,-1,66
 826 1005 826 1005 936.5 1016.5 c 128,-1,67
 1047 1028 1047 1028 1139.5 1004 c 128,-1,68
 1232 980 1232 980 1277 936 c 0,69,70
 1360 856 1360 856 1352 765 c 0,71,72
 1340 629 1340 629 1159 505 c 1,73,74
 1265 469 1265 469 1327 405 c 0,75,76
 1447 282 1447 282 1430 123 c 128,-1,77
 1413 -36 1413 -36 1285.5 -158 c 128,-1,78
 1158 -280 1158 -280 961.5 -304.5 c 128,-1,79
 765 -329 765 -329 608 -272.5 c 128,-1,80
 451 -216 451 -216 345 -103 c 0,81,82
 137 116 137 116 104 454 c 0,83,0
 85 639 85 639 162 817 c 128,-1,1
EndSplineSet
EndChar

StartChar: ml_6
Encoding: 3436 3436 205
Width: 2613
GlyphClass: 2
Flags: W
LayerCount: 2
Fore
SplineSet
1638 603 m 1,0,1
 1786 1049 1786 1049 2053 1056 c 0,2,3
 2174 1059 2174 1059 2307 966 c 0,4,5
 2488 839 2488 839 2510 606.5 c 128,-1,6
 2532 374 2532 374 2410.5 138 c 128,-1,7
 2289 -98 2289 -98 2045 -273 c 128,-1,8
 1801 -448 1801 -448 1461 -481 c 1,9,10
 1461 -481 1461 -481 1446 -481 c 0,11,12
 1436 -481 1436 -481 1412.5 -467.5 c 128,-1,13
 1389 -454 1389 -454 1389 -422.5 c 128,-1,14
 1389 -391 1389 -391 1406.5 -372 c 128,-1,15
 1424 -353 1424 -353 1449 -351 c 0,16,17
 1887 -309 1887 -309 2163 5 c 0,18,19
 2242 95 2242 95 2295 198 c 0,20,21
 2399 399 2399 399 2381.5 583 c 128,-1,22
 2364 767 2364 767 2232 860 c 0,23,24
 2042 994 2042 994 1911 850 c 0,25,26
 1737 659 1737 659 1651 52 c 0,27,28
 1648 29 1648 29 1629 13 c 128,-1,29
 1610 -3 1610 -3 1585 -3 c 128,-1,30
 1560 -3 1560 -3 1541 16 c 128,-1,31
 1522 35 1522 35 1522 50 c 128,-1,32
 1522 65 1522 65 1530.5 139 c 128,-1,33
 1539 213 1539 213 1534 393 c 128,-1,34
 1529 573 1529 573 1479.5 694.5 c 128,-1,35
 1430 816 1430 816 1379.5 861 c 128,-1,36
 1329 906 1329 906 1279.5 906 c 128,-1,37
 1230 906 1230 906 1178 860.5 c 128,-1,38
 1126 815 1126 815 1085 719 c 0,39,40
 1014 551 1014 551 1011 290 c 1,41,42
 1032 65 1032 65 1012.5 31.5 c 128,-1,43
 993 -2 993 -2 962 -2 c 128,-1,44
 931 -2 931 -2 912 15.5 c 128,-1,45
 893 33 893 33 891 57 c 0,46,47
 880 174 880 174 880 283 c 1,48,49
 837 714 837 714 634 860 c 0,50,51
 525 937 525 937 408 894 c 0,52,53
 336 867 336 867 286.5 798 c 128,-1,54
 237 729 237 729 230.5 622 c 128,-1,55
 224 515 224 515 283 378.5 c 128,-1,56
 342 242 342 242 482 97 c 0,57,58
 501 78 501 78 501 51 c 128,-1,59
 501 24 501 24 482 5 c 128,-1,60
 463 -14 463 -14 435.5 -14 c 128,-1,61
 408 -14 408 -14 389 7 c 0,62,63
 232 169 232 169 162 330.5 c 128,-1,64
 92 492 92 492 101 632 c 128,-1,65
 110 772 110 772 182 874 c 0,66,67
 295 1034 295 1034 482 1037.5 c 128,-1,68
 669 1041 669 1041 810 870 c 0,69,70
 880 784 880 784 928 663 c 1,71,72
 986 867 986 867 1101 966 c 0,73,74
 1183 1037 1183 1037 1263 1036.5 c 128,-1,75
 1343 1036 1343 1036 1402 1004 c 0,76,77
 1575 907 1575 907 1638 603 c 1,0,1
EndSplineSet
EndChar

StartChar: ml_7
Encoding: 3437 3437 206
Width: 1378
GlyphClass: 2
Flags: W
LayerCount: 2
Fore
SplineSet
119 558 m 0,0,1
 178 820 178 820 322.5 961.5 c 128,-1,2
 467 1103 467 1103 684 1086 c 0,3,4
 809 1076 809 1076 924.5 999.5 c 128,-1,5
 1040 923 1040 923 1114 820 c 0,6,7
 1265 609 1265 609 1277 377 c 0,8,9
 1293 82 1293 82 1114 -129 c 0,10,11
 902 -378 902 -378 447 -459 c 0,12,13
 441 -460 441 -460 424.5 -460 c 128,-1,14
 408 -460 408 -460 389 -441 c 128,-1,15
 370 -422 370 -422 370 -401 c 0,16,17
 370 -340 370 -340 425 -331 c 0,18,19
 833 -259 833 -259 1015 -45 c 0,20,21
 1161 126 1161 126 1148 370 c 1,22,23
 1133 571 1133 571 1004.5 750 c 128,-1,24
 876 929 876 929 672 956 c 1,25,26
 417 975 417 975 297 690 c 1,27,28
 525 776 525 776 665 652 c 0,29,30
 746 580 746 580 761 464.5 c 128,-1,31
 776 349 776 349 720 233 c 0,32,33
 643 74 643 74 520 18 c 0,34,35
 396 -37 396 -37 283.5 25 c 128,-1,36
 171 87 171 87 124.5 230.5 c 128,-1,37
 78 374 78 374 119 558 c 0,0,1
603 290 m 1,38,39
 679 465 679 465 576 556 c 0,40,41
 529 599 529 599 447.5 596.5 c 128,-1,42
 366 594 366 594 255 524 c 0,43,44
 250 521 250 521 244 518 c 1,45,46
 203 331 203 331 276 210 c 0,47,48
 305 162 305 162 353.5 135 c 128,-1,49
 402 108 402 108 474 140.5 c 128,-1,50
 546 173 546 173 603 290 c 1,38,39
EndSplineSet
EndChar

StartChar: ml_8
Encoding: 3438 3438 207
Width: 1750
GlyphClass: 2
Flags: W
LayerCount: 2
Fore
SplineSet
1538 1045 m 0,0,1
 1557 1045 1557 1045 1576 1025.5 c 128,-1,2
 1595 1006 1595 1006 1595 989 c 128,-1,3
 1595 972 1595 972 1593 964 c 0,4,5
 1578 904 1578 904 1621.5 650.5 c 128,-1,6
 1665 397 1665 397 1644 271 c 1,7,8
 1650 -75 1650 -75 1598 -201 c 0,9,10
 1530 -367 1530 -367 1338 -411 c 0,11,12
 1233 -435 1233 -435 1035 -436 c 2,13,14
 1035 -436 1035 -436 1021 -436 c 256,15,16
 1007 -436 1007 -436 988 -416.5 c 128,-1,17
 969 -397 969 -397 969 -370.5 c 128,-1,18
 969 -344 969 -344 988 -325 c 128,-1,19
 1007 -306 1007 -306 1020 -306 c 2,20,-1
 1035 -306 l 2,21,22
 1219 -306 1219 -306 1309.5 -285 c 128,-1,23
 1400 -264 1400 -264 1448.5 -205.5 c 128,-1,24
 1497 -147 1497 -147 1510 49 c 1,25,26
 1444 5 1444 5 1370.5 -5 c 128,-1,27
 1297 -15 1297 -15 779 1 c 1,28,-1
 758 2 l 2,29,30
 732 3 732 3 713.5 22 c 128,-1,31
 695 41 695 41 695 62 c 0,32,33
 695 108 695 108 733 126 c 0,34,35
 874 191 874 191 970.5 335 c 128,-1,36
 1067 479 1067 479 1069.5 614.5 c 128,-1,37
 1072 750 1072 750 973 826 c 0,38,39
 850 921 850 921 593 905 c 0,40,41
 493 899 493 899 395 838 c 128,-1,42
 297 777 297 777 255 684 c 0,43,44
 145 439 145 439 461 114 c 0,45,46
 480 95 480 95 480 68 c 128,-1,47
 480 41 480 41 461 22 c 128,-1,48
 442 3 442 3 414.5 3 c 128,-1,49
 387 3 387 3 368 24 c 0,50,51
 87 314 87 314 101 586 c 0,52,53
 111 766 111 766 252.5 894 c 128,-1,54
 394 1022 394 1022 585 1034 c 0,55,56
 891 1054 891 1054 1047 934 c 128,-1,57
 1203 814 1203 814 1200 610 c 0,58,59
 1198 480 1198 480 1134.5 351.5 c 128,-1,60
 1071 223 1071 223 965 126 c 1,61,62
 1207 120 1207 120 1341 122 c 1,63,64
 1406 132 1406 132 1440 156 c 0,65,66
 1497 196 1497 196 1514 285 c 0,67,68
 1514 292 1514 292 1519.5 327.5 c 128,-1,69
 1525 363 1525 363 1518.5 440 c 128,-1,70
 1512 517 1512 517 1490 647.5 c 128,-1,71
 1468 778 1468 778 1459 852.5 c 128,-1,72
 1450 927 1450 927 1467 995 c 0,73,74
 1478 1045 1478 1045 1538 1045 c 0,0,1
EndSplineSet
EndChar

StartChar: ml_9
Encoding: 3439 3439 208
Width: 2051
GlyphClass: 2
Flags: W
LayerCount: 2
Fore
SplineSet
1429 1351 m 2,0,1
 1431 1375 1431 1375 1450 1393.5 c 128,-1,2
 1469 1412 1469 1412 1495 1412 c 128,-1,3
 1521 1412 1521 1412 1540 1393 c 128,-1,4
 1559 1374 1559 1374 1559 1359 c 2,5,-1
 1559 1341 l 1,6,-1
 1536 1051 l 1,7,8
 1630 1039 1630 1039 1713 987 c 128,-1,9
 1796 935 1796 935 1854.5 856.5 c 128,-1,10
 1913 778 1913 778 1938.5 671 c 128,-1,11
 1964 564 1964 564 1940.5 423.5 c 128,-1,12
 1917 283 1917 283 1861 183.5 c 128,-1,13
 1805 84 1805 84 1742 35.5 c 128,-1,14
 1679 -13 1679 -13 1598.5 -3 c 128,-1,15
 1518 7 1518 7 1462 62 c 0,16,17
 1316 207 1316 207 1363 525 c 1,18,-1
 1394 910 l 1,19,20
 1278 873 1278 873 1197 739 c 0,21,22
 1086 555 1086 555 1070 229 c 1,23,24
 1072 149 1072 149 1068 64 c 0,25,26
 1067 38 1067 38 1048 20 c 128,-1,27
 1029 2 1029 2 1003 2 c 128,-1,28
 977 2 977 2 958 21 c 128,-1,29
 939 40 939 40 938 66 c 0,30,31
 936 149 936 149 940 230 c 1,32,33
 929 636 929 636 781.5 805 c 128,-1,34
 634 974 634 974 447 897 c 0,35,36
 333 850 333 850 271 733 c 0,37,38
 186 570 186 570 275 372 c 0,39,40
 331 249 331 249 474 127 c 0,41,42
 497 108 497 108 497 79 c 128,-1,43
 497 50 497 50 478 31 c 128,-1,44
 459 12 459 12 433 12 c 128,-1,45
 407 12 407 12 389 28 c 0,46,47
 226 168 226 168 156.5 322.5 c 128,-1,48
 87 477 87 477 103.5 617.5 c 128,-1,49
 120 758 120 758 200 863 c 0,50,51
 327 1029 327 1029 527 1047 c 128,-1,52
 727 1065 727 1065 872 899 c 0,53,54
 960 798 960 798 1010 640 c 1,55,56
 1086 862 1086 862 1230 968 c 0,57,58
 1313 1029 1313 1029 1405 1047 c 1,59,-1
 1429 1351 l 2,0,1
1525 921 m 1,60,-1
 1492 513 l 2,61,62
 1492 511 1492 511 1492 509 c 0,63,64
 1467 349 1467 349 1502.5 242 c 128,-1,65
 1538 135 1538 135 1611 127 c 0,66,67
 1676 119 1676 119 1734 223 c 128,-1,68
 1792 327 1792 327 1812 443 c 0,69,70
 1847 650 1847 650 1753.5 775.5 c 128,-1,71
 1660 901 1660 901 1525 921 c 1,60,-1
EndSplineSet
EndChar

StartChar: bar.ref1
Encoding: 65539 -1 209
Width: 2048
GlyphClass: 2
Flags: W
LayerCount: 2
Fore
SplineSet
147.5 1505 m 128,-1,1
 167 1505 167 1505 180.5 1450.5 c 128,-1,2
 194 1396 194 1396 194 1319 c 2,3,-1
 193 62 l 2,4,5
 193 -15 193 -15 179 -69 c 128,-1,6
 165 -123 165 -123 146 -123 c 128,-1,7
 127 -123 127 -123 113.5 -68.5 c 128,-1,8
 100 -14 100 -14 100 63 c 2,9,-1
 101 1320 l 2,10,11
 101 1397 101 1397 114.5 1451 c 128,-1,0
 128 1505 128 1505 147.5 1505 c 128,-1,1
EndSplineSet
EndChar

StartChar: Yacute.ref1
Encoding: 65540 -1 210
Width: 2048
GlyphClass: 2
Flags: W
LayerCount: 2
Fore
SplineSet
123.5 1425 m 128,-1,1
 144 1442 144 1442 171 1439.5 c 128,-1,2
 198 1437 198 1437 215 1416 c 2,3,-1
 738 782 l 1,4,5
 893 1120 893 1120 1048 1459 c 0,6,7
 1059 1483 1059 1483 1084.5 1492.5 c 128,-1,8
 1110 1502 1110 1502 1134 1491 c 128,-1,9
 1158 1480 1158 1480 1167.5 1454.5 c 128,-1,10
 1177 1429 1177 1429 1166 1405 c 2,11,-1
 504 -41 l 2,12,13
 493 -65 493 -65 467.5 -74.5 c 128,-1,14
 442 -84 442 -84 418 -73 c 128,-1,15
 394 -62 394 -62 384.5 -36.5 c 128,-1,16
 375 -11 375 -11 386 13 c 0,17,18
 532 332 532 332 678 650 c 1,19,-1
 115 1334 l 2,20,21
 98 1354 98 1354 100.5 1381 c 128,-1,0
 103 1408 103 1408 123.5 1425 c 128,-1,1
EndSplineSet
EndChar

StartChar: igrave.ref1
Encoding: 65541 -1 211
Width: 2048
GlyphClass: 2
Flags: W
LayerCount: 2
Fore
SplineSet
193 -9 m 0,0,1
 167 -17 167 -17 143.5 -4 c 128,-1,2
 120 9 120 9 112.5 34 c 128,-1,3
 105 59 105 59 113 80 c 0,4,5
 133 125 133 125 138.5 416 c 128,-1,6
 144 707 144 707 141 942 c 0,7,8
 141 969 141 969 159.5 988.5 c 128,-1,9
 178 1008 178 1008 204.5 1008.5 c 128,-1,10
 231 1009 231 1009 250.5 990 c 128,-1,11
 270 971 270 971 270 944 c 0,12,13
 274 707 274 707 271 548 c 128,-1,14
 268 389 268 389 267 322 c 128,-1,15
 266 255 266 255 262 163 c 0,16,17
 256 10 256 10 193 -9 c 0,0,1
EndSplineSet
EndChar

StartChar: iacute.ref1
Encoding: 65542 -1 212
Width: 2048
GlyphClass: 2
Flags: W
LayerCount: 2
Fore
SplineSet
193 -9 m 0,0,1
 167 -17 167 -17 143.5 -4 c 128,-1,2
 120 9 120 9 112.5 34 c 128,-1,3
 105 59 105 59 113 80 c 0,4,5
 133 125 133 125 138.5 416 c 128,-1,6
 144 707 144 707 141 942 c 0,7,8
 141 969 141 969 159.5 988.5 c 128,-1,9
 178 1008 178 1008 204.5 1008.5 c 128,-1,10
 231 1009 231 1009 250.5 990 c 128,-1,11
 270 971 270 971 270 944 c 0,12,13
 274 707 274 707 271 548 c 128,-1,14
 268 389 268 389 267 322 c 128,-1,15
 266 255 266 255 262 163 c 0,16,17
 256 10 256 10 193 -9 c 0,0,1
EndSplineSet
EndChar

StartChar: icircumflex.ref1
Encoding: 65543 -1 213
Width: 2048
GlyphClass: 2
Flags: W
LayerCount: 2
Fore
SplineSet
193 -9 m 0,0,1
 167 -17 167 -17 143.5 -4 c 128,-1,2
 120 9 120 9 112.5 34 c 128,-1,3
 105 59 105 59 113 80 c 0,4,5
 133 125 133 125 138.5 416 c 128,-1,6
 144 707 144 707 141 942 c 0,7,8
 141 969 141 969 159.5 988.5 c 128,-1,9
 178 1008 178 1008 204.5 1008.5 c 128,-1,10
 231 1009 231 1009 250.5 990 c 128,-1,11
 270 971 270 971 270 944 c 0,12,13
 274 707 274 707 271 548 c 128,-1,14
 268 389 268 389 267 322 c 128,-1,15
 266 255 266 255 262 163 c 0,16,17
 256 10 256 10 193 -9 c 0,0,1
EndSplineSet
EndChar

StartChar: idieresis.ref1
Encoding: 65544 -1 214
Width: 2048
GlyphClass: 2
Flags: W
LayerCount: 2
Fore
SplineSet
193 -9 m 0,0,1
 167 -17 167 -17 143.5 -4 c 128,-1,2
 120 9 120 9 112.5 34 c 128,-1,3
 105 59 105 59 113 80 c 0,4,5
 133 125 133 125 138.5 416 c 128,-1,6
 144 707 144 707 141 942 c 0,7,8
 141 969 141 969 159.5 988.5 c 128,-1,9
 178 1008 178 1008 204.5 1008.5 c 128,-1,10
 231 1009 231 1009 250.5 990 c 128,-1,11
 270 971 270 971 270 944 c 0,12,13
 274 707 274 707 271 548 c 128,-1,14
 268 389 268 389 267 322 c 128,-1,15
 266 255 266 255 262 163 c 0,16,17
 256 10 256 10 193 -9 c 0,0,1
EndSplineSet
EndChar

StartChar: notequal.ref1
Encoding: 65545 -1 215
Width: 2048
GlyphClass: 2
Flags: W
LayerCount: 2
Fore
SplineSet
649 1232 m 0,0,1
 669 1210 669 1210 683 1196 c 0,2,3
 693 1185 693 1185 681 1146 c 2,4,-1
 329 30 l 2,5,6
 321 7 321 7 292 -3 c 0,7,8
 265 -13 265 -13 243 0 c 0,9,10
 235 4 235 4 209 36 c 0,11,12
 200 48 200 48 212 86 c 2,13,-1
 563 1201 l 2,14,15
 570 1223 570 1223 600 1234 c 0,16,17
 635 1248 635 1248 649 1232 c 0,0,1
EndSplineSet
EndChar

StartChar: k1nhu2.ref1
Encoding: 65546 -1 216
Width: 2048
GlyphClass: 2
Flags: W
LayerCount: 2
Fore
SplineSet
1357 -870 m 1024,0,-1
EndSplineSet
EndChar

StartChar: p1th1.ref1
Encoding: 65547 -1 217
Width: 2048
GlyphClass: 2
Flags: W
LayerCount: 2
Fore
SplineSet
331 16 m 1024,0,-1
EndSplineSet
EndChar

StartChar: k1xx.ref1
Encoding: 65548 -1 218
Width: 2048
GlyphClass: 2
Flags: W
LayerCount: 2
Fore
SplineSet
472 266 m 1,0,1
 454 329 454 329 489 371 c 0,2,3
 506 391 506 391 533.5 393.5 c 128,-1,4
 561 396 561 396 582 378 c 128,-1,5
 603 360 603 360 604 334 c 128,-1,6
 605 308 605 308 605 294 c 0,7,8
 605 279 605 279 629.5 243 c 128,-1,9
 654 207 654 207 728 154 c 128,-1,10
 802 101 802 101 856 124 c 128,-1,11
 910 147 910 147 944.5 245 c 128,-1,12
 979 343 979 343 981 526 c 0,13,14
 982 573 982 573 976 617 c 1,15,16
 763 637 763 637 570 554 c 1,17,18
 564 533 564 533 541 516 c 0,19,20
 518 500 518 500 486 511 c 1,21,22
 415 469 415 469 350 413 c 1,23,24
 309 370 309 370 282 329 c 0,25,26
 209 220 209 220 240 155 c 0,27,28
 258 118 258 118 309 108 c 128,-1,29
 360 98 360 98 411 138 c 128,-1,30
 462 178 462 178 472 266 c 1,0,1
587 699 m 1,31,32
 758 757 758 757 942 750 c 1,33,34
 888 883 888 883 798 922 c 0,35,36
 733 950 733 950 673 898.5 c 128,-1,37
 613 847 613 847 587 699 c 1,31,32
447 638 m 1,38,39
 472 897 472 897 591 1000 c 0,40,41
 710 1102 710 1102 839 1046 c 0,42,43
 1020 968 1020 968 1085 732 c 1,44,45
 1175 713 1175 713 1257 673 c 0,46,47
 1425 593 1425 593 1482 465 c 0,48,49
 1554 295 1554 295 1414 145 c 0,50,51
 1329 54 1329 54 1170 -19 c 0,52,53
 1146 -30 1146 -30 1120.5 -20.5 c 128,-1,54
 1095 -11 1095 -11 1084 13.5 c 128,-1,55
 1073 38 1073 38 1082.5 63 c 128,-1,56
 1092 88 1092 88 1116 99 c 0,57,58
 1251 160 1251 160 1308 221.5 c 128,-1,59
 1365 283 1365 283 1374.5 326 c 128,-1,60
 1384 369 1384 369 1363 412 c 0,61,62
 1310 531 1310 531 1109 591 c 1,63,64
 1111 558 1111 558 1111 525 c 0,65,66
 1109 314 1109 314 1063.5 182.5 c 128,-1,67
 1018 51 1018 51 912 7 c 0,68,69
 786 -46 786 -46 637 60 c 0,70,71
 596 89 596 89 563 123 c 1,72,73
 534 70 534 70 487 33 c 0,74,75
 393 -41 393 -41 281 -19 c 0,76,77
 169 4 169 4 123 99 c 0,78,79
 38 275 38 275 258 504 c 0,80,81
 260 506 260 506 262 508 c 0,82,83
 349 585 349 585 447 638 c 1,38,39
EndSplineSet
EndChar

StartChar: k2xx.ref1
Encoding: 65549 -1 219
Width: 2048
GlyphClass: 2
Flags: W
LayerCount: 2
Fore
SplineSet
302 561 m 0,0,1
 447 624 447 624 559 485 c 0,2,3
 589 448 589 448 601 419 c 0,4,5
 673 239 673 239 612 112 c 0,6,7
 560 6 560 6 445.5 -11.5 c 128,-1,8
 331 -29 331 -29 234 60 c 0,9,10
 107 176 107 176 100 406 c 0,11,12
 95 558 95 558 199 700 c 128,-1,13
 303 842 303 842 491.5 924 c 128,-1,14
 680 1006 680 1006 843 973 c 0,15,16
 933 954 933 954 996 899 c 0,17,18
 1241 684 1241 684 952 111 c 1,19,20
 1326 103 1326 103 1426 147 c 0,21,22
 1480 171 1480 171 1494.5 230.5 c 128,-1,23
 1509 290 1509 290 1498.5 530.5 c 128,-1,24
 1488 771 1488 771 1490 923 c 0,25,26
 1491 950 1491 950 1510.5 969 c 128,-1,27
 1530 988 1530 988 1556.5 987 c 128,-1,28
 1583 986 1583 986 1602 966.5 c 128,-1,29
 1621 947 1621 947 1620 921 c 0,30,31
 1617 773 1617 773 1628.5 525 c 128,-1,32
 1640 277 1640 277 1623 208 c 0,33,34
 1590 77 1590 77 1479 28 c 128,-1,35
 1368 -21 1368 -21 1077 -21 c 0,36,37
 984 -21 984 -21 844 -16 c 0,38,39
 817 -15 817 -15 791.5 12 c 128,-1,40
 766 39 766 39 789 80 c 0,41,42
 1027 512 1027 512 961 719 c 0,43,44
 944 773 944 773 910 803 c 128,-1,45
 876 833 876 833 816 845 c 0,46,47
 693 870 693 870 540 803.5 c 128,-1,48
 387 737 387 737 301 619 c 0,49,50
 270 577 270 577 252 533 c 1,51,52
 277 550 277 550 302 561 c 0,0,1
232 382 m 1,53,54
 243 228 243 228 322 156 c 0,55,56
 373 109 373 109 423.5 116.5 c 128,-1,57
 474 124 474 124 495 169 c 0,58,59
 530 242 530 242 481 367 c 1,60,61
 404 510 404 510 296 399 c 0,62,63
 269 372 269 372 232 382 c 1,53,54
EndSplineSet
EndChar

StartChar: k3xx.ref1
Encoding: 65550 -1 220
Width: 2048
GlyphClass: 2
Flags: W
LayerCount: 2
Fore
SplineSet
373 914.5 m 128,-1,1
 391 895 391 895 390.5 868 c 128,-1,2
 390 841 390 841 370 823 c 0,3,4
 230 692 230 692 230 437 c 0,5,6
 230 306 230 306 287 196 c 0,7,8
 327 118 327 118 383 123 c 0,9,10
 492 133 492 133 548 215.5 c 128,-1,11
 604 298 604 298 629.5 401.5 c 128,-1,12
 655 505 655 505 683 621 c 0,13,14
 764 962 764 962 1001.5 986 c 128,-1,15
 1239 1010 1239 1010 1398 786 c 0,16,17
 1479 672 1479 672 1493 506 c 128,-1,18
 1507 340 1507 340 1410 194 c 128,-1,19
 1313 48 1313 48 1100 -5 c 0,20,21
 1074 -11 1074 -11 1051 2.5 c 128,-1,22
 1028 16 1028 16 1021.5 42 c 128,-1,23
 1015 68 1015 68 1029 91.5 c 128,-1,24
 1043 115 1043 115 1069 121 c 0,25,26
 1233 162 1233 162 1303.5 268 c 128,-1,27
 1374 374 1374 374 1364 486 c 0,28,29
 1347 684 1347 684 1214 797 c 0,30,31
 1130 869 1130 869 1028 858.5 c 128,-1,32
 926 848 926 848 879 768.5 c 128,-1,33
 832 689 832 689 807 582 c 0,34,35
 750 343 750 343 721.5 270.5 c 128,-1,36
 693 198 693 198 653.5 139.5 c 128,-1,37
 614 81 614 81 546.5 41 c 128,-1,38
 479 1 479 1 400.5 -6 c 128,-1,39
 322 -13 322 -13 265 27 c 0,40,41
 167 96 167 96 124 257.5 c 128,-1,42
 81 419 81 419 116 607 c 128,-1,43
 151 795 151 795 281 917 c 0,44,45
 300 935 300 935 327.5 934.5 c 128,-1,0
 355 934 355 934 373 914.5 c 128,-1,1
EndSplineSet
EndChar

StartChar: k4xx.ref1
Encoding: 65551 -1 221
Width: 2048
GlyphClass: 2
Flags: W
LayerCount: 2
Fore
SplineSet
1212 5 m 1,0,1
 1251 -85 1251 -85 1355 -132 c 0,2,3
 1411 -157 1411 -157 1535.5 -168 c 128,-1,4
 1660 -179 1660 -179 1801 -168 c 0,5,6
 1889 -165 1889 -165 1959 -164 c 128,-1,7
 2029 -163 2029 -163 2135.5 -149 c 128,-1,8
 2242 -135 2242 -135 2335 -77 c 0,9,10
 2400 -37 2400 -37 2438 60 c 0,11,12
 2498 212 2498 212 2411 622 c 0,13,14
 2392 711 2392 711 2364 827 c 0,15,16
 2358 853 2358 853 2372 876.5 c 128,-1,17
 2386 900 2386 900 2412 906 c 128,-1,18
 2438 912 2438 912 2461 898 c 128,-1,19
 2484 884 2484 884 2490 858 c 0,20,21
 2583 478 2583 478 2591 295 c 0,22,23
 2606 -62 2606 -62 2404 -187 c 0,24,25
 2238 -290 2238 -290 1934 -295 c 0,26,27
 1893 -296 1893 -296 1805 -300 c 0,28,29
 1455 -319 1455 -319 1302 -250 c 0,30,31
 1226 -216 1226 -216 1166 -158 c 128,-1,32
 1106 -100 1106 -100 1074 4 c 1,33,-1
 541 1 l 2,34,35
 516 1 516 1 497 18.5 c 128,-1,36
 478 36 478 36 476.5 63 c 128,-1,37
 475 90 475 90 493 110 c 0,38,39
 746 390 746 390 742 541 c 0,40,41
 739 635 739 635 618 640 c 128,-1,42
 497 645 497 645 385 583 c 128,-1,43
 273 521 273 521 241 430 c 0,44,45
 194 296 194 296 348 135 c 0,46,47
 366 116 366 116 365.5 89 c 128,-1,48
 365 62 365 62 346 43.5 c 128,-1,49
 327 25 327 25 300 25.5 c 128,-1,50
 273 26 273 26 254 45 c 0,51,52
 121 184 121 184 102 327 c 0,53,54
 92 401 92 401 118 473 c 0,55,56
 167 611 167 611 317 693.5 c 128,-1,57
 467 776 467 776 625.5 769.5 c 128,-1,58
 784 763 784 763 846 646 c 0,59,60
 944 463 944 463 682 132 c 1,61,-1
 1050 134 l 1,62,63
 1031 346 1031 346 1104.5 524 c 128,-1,64
 1178 702 1178 702 1323.5 784.5 c 128,-1,65
 1469 867 1469 867 1619.5 798.5 c 128,-1,66
 1770 730 1770 730 1838 507.5 c 128,-1,67
 1906 285 1906 285 1840 140 c 0,68,69
 1812 79 1812 79 1751 42.5 c 128,-1,70
 1690 6 1690 6 1605 8 c 2,71,-1
 1212 5 l 1,0,1
1180 135 m 1,72,-1
 1607 138 l 2,73,74
 1696 136 1696 136 1722 194 c 0,75,76
 1768 294 1768 294 1715.5 465 c 128,-1,77
 1663 636 1663 636 1559 684 c 0,78,79
 1475 722 1475 722 1378 666.5 c 128,-1,80
 1281 611 1281 611 1220.5 465.5 c 128,-1,81
 1160 320 1160 320 1180 135 c 1,72,-1
EndSplineSet
EndChar

StartChar: ngxx.ref1
Encoding: 65552 -1 222
Width: 2048
GlyphClass: 2
Flags: W
LayerCount: 2
Fore
SplineSet
248 640 m 1,0,1
 323 665 323 665 383 638 c 0,2,3
 571 558 571 558 564 290 c 0,4,5
 564 287 564 287 564 284 c 0,6,7
 543 101 543 101 452 22 c 0,8,9
 407 -17 407 -17 352 -19.5 c 128,-1,10
 297 -22 297 -22 245 18 c 0,11,12
 103 126 103 126 100 512 c 0,13,14
 100 520 100 520 105 560 c 0,15,16
 144 888 144 888 288 1001 c 0,17,18
 351 1051 351 1051 427.5 1053 c 128,-1,19
 504 1055 504 1055 575 1011 c 0,20,21
 737 914 737 914 833 655 c 1,22,23
 932 894 932 894 1108 991 c 0,24,25
 1252 1070 1252 1070 1379 1011 c 0,26,27
 1521 944 1521 944 1528 723 c 0,28,29
 1530 668 1530 668 1500.5 610.5 c 128,-1,30
 1471 553 1471 553 1430 517 c 1,31,32
 1506 489 1506 489 1555 440 c 0,33,34
 1654 342 1654 342 1630 222 c 128,-1,35
 1606 102 1606 102 1495 40 c 0,36,37
 1339 -47 1339 -47 1117 29 c 0,38,39
 1092 38 1092 38 1080 62 c 128,-1,40
 1068 86 1068 86 1076.5 111 c 128,-1,41
 1085 136 1085 136 1109.5 148 c 128,-1,42
 1134 160 1134 160 1149 155 c 0,43,44
 1326 95 1326 95 1432 154 c 0,45,46
 1491 187 1491 187 1502 243 c 128,-1,47
 1513 299 1513 299 1467 345 c 0,48,49
 1383 428 1383 428 1182 419 c 0,50,51
 1158 418 1158 418 1137.5 435.5 c 128,-1,52
 1117 453 1117 453 1115 479 c 128,-1,53
 1113 505 1113 505 1130.5 526 c 128,-1,54
 1148 547 1148 547 1176 549 c 0,55,56
 1281 558 1281 558 1336.5 607.5 c 128,-1,57
 1392 657 1392 657 1398 722 c 1,58,59
 1393 860 1393 860 1318 896 c 0,60,61
 1257 925 1257 925 1171 877 c 0,62,63
 1059 816 1059 816 988 679 c 128,-1,64
 917 542 917 542 896 388 c 1,65,66
 914 230 914 230 896 63 c 0,67,68
 893 37 893 37 871.5 20 c 128,-1,69
 850 3 850 3 825.5 6 c 128,-1,70
 801 9 801 9 785 26.5 c 128,-1,71
 769 44 769 44 766 63 c 0,72,73
 746 237 746 237 765 388 c 1,74,75
 744 545 744 545 675.5 692.5 c 128,-1,76
 607 840 607 840 508 900 c 0,77,78
 462 926 462 926 431.5 925.5 c 128,-1,79
 401 925 401 925 369 899 c 0,80,81
 286 835 286 835 248 640 c 1,0,1
231 483 m 1,82,83
 236 297 236 297 269 217.5 c 128,-1,84
 302 138 302 138 322 122.5 c 128,-1,85
 342 107 342 107 347 107 c 128,-1,86
 352 107 352 107 367 120 c 0,87,88
 419 165 419 165 435 296 c 1,89,90
 438 474 438 474 341 515 c 0,91,92
 299 533 299 533 255 496 c 0,93,94
 245 487 245 487 231 483 c 1,82,83
EndSplineSet
EndChar

StartChar: ch1xx.ref1
Encoding: 65553 -1 223
Width: 2048
GlyphClass: 2
Flags: W
LayerCount: 2
Fore
SplineSet
415.5 317.5 m 128,-1,1
 392 305 392 305 366 313 c 128,-1,2
 340 321 340 321 328 345 c 0,3,4
 263 469 263 469 289 573 c 0,5,6
 303 627 303 627 343 670 c 0,7,8
 427 758 427 758 577.5 763.5 c 128,-1,9
 728 769 728 769 838.5 692.5 c 128,-1,10
 949 616 949 616 949 484 c 0,11,12
 953 246 953 246 656 117 c 1,13,-1
 1303 117 l 2,14,15
 1418 117 1418 117 1466 165.5 c 128,-1,16
 1514 214 1514 214 1520 282 c 0,17,18
 1531 406 1531 406 1519 493 c 0,19,20
 1480 796 1480 796 1481.5 875 c 128,-1,21
 1483 954 1483 954 1491.5 991 c 128,-1,22
 1500 1028 1500 1028 1523 1042.5 c 128,-1,23
 1546 1057 1546 1057 1572 1051 c 0,24,25
 1635 1037 1635 1037 1617.5 960 c 128,-1,26
 1600 883 1600 883 1638 591.5 c 128,-1,27
 1676 300 1676 300 1623 173 c 0,28,29
 1546 -13 1546 -13 1303 -13 c 2,30,-1
 165 -13 l 2,31,32
 143 -13 143 -13 125 1 c 128,-1,33
 107 15 107 15 101.5 38.5 c 128,-1,34
 96 62 96 62 110 85.5 c 128,-1,35
 124 109 124 109 151.5 115.5 c 128,-1,36
 179 122 179 122 329 155 c 0,37,38
 822 260 822 260 820 472 c 0,39,40
 819 547 819 547 754.5 592.5 c 128,-1,41
 690 638 690 638 587.5 634 c 128,-1,42
 485 630 485 630 443 586 c 128,-1,43
 401 542 401 542 410 496 c 128,-1,44
 419 450 419 450 437 416 c 128,-1,45
 455 382 455 382 447 356 c 128,-1,0
 439 330 439 330 415.5 317.5 c 128,-1,1
EndSplineSet
EndChar

StartChar: ch2xx.ref1
Encoding: 65554 -1 224
Width: 2048
GlyphClass: 2
Flags: W
LayerCount: 2
Fore
SplineSet
2093 627 m 1,0,1
 2085 631 2085 631 2079 638 c 0,2,3
 2041 677 2041 677 1990 686 c 0,4,5
 1887 705 1887 705 1802 616 c 0,6,7
 1762 573 1762 573 1747 523 c 0,8,9
 1684 303 1684 303 1780 182 c 0,10,11
 1833 115 1833 115 1943 112 c 0,12,13
 2019 110 2019 110 2077 202.5 c 128,-1,14
 2135 295 2135 295 2132 419.5 c 128,-1,15
 2129 544 2129 544 2093 627 c 1,0,1
1912 816 m 1,16,17
 1810 864 1810 864 1664 854 c 1,18,19
 1524 837 1524 837 1416.5 745.5 c 128,-1,20
 1309 654 1309 654 1275.5 534.5 c 128,-1,21
 1242 415 1242 415 1307 304 c 0,22,23
 1339 250 1339 250 1409 198 c 128,-1,24
 1479 146 1479 146 1584 109 c 0,25,26
 1627 93 1627 93 1627 57 c 128,-1,27
 1627 21 1627 21 1608 1.5 c 128,-1,28
 1589 -18 1589 -18 1562 -18 c 2,29,-1
 165 -18 l 2,30,31
 144 -18 144 -18 126 -4 c 128,-1,32
 108 10 108 10 102 33.5 c 128,-1,33
 96 57 96 57 109.5 80.5 c 128,-1,34
 123 104 123 104 150 111 c 128,-1,35
 177 118 177 118 316 148.5 c 128,-1,36
 455 179 455 179 556 220 c 128,-1,37
 657 261 657 261 696 297 c 128,-1,38
 735 333 735 333 751 361 c 1,39,40
 790 458 790 458 776 506.5 c 128,-1,41
 762 555 762 555 726 583 c 0,42,43
 664 631 664 631 564 623.5 c 128,-1,44
 464 616 464 616 404.5 557 c 128,-1,45
 345 498 345 498 376 415 c 128,-1,46
 407 332 407 332 347 309 c 0,47,48
 322 299 322 299 297.5 310 c 128,-1,49
 273 321 273 321 263 346 c 0,50,51
 229 430 229 430 242 511 c 128,-1,52
 255 592 255 592 316 653 c 0,53,54
 406 742 406 742 555 753 c 128,-1,55
 704 764 704 764 805 687 c 0,56,57
 873 634 873 634 900 539.5 c 128,-1,58
 927 445 927 445 870 309 c 0,59,60
 824 198 824 198 635 112 c 1,61,-1
 1307 112 l 1,62,63
 1163 230 1163 230 1139.5 394 c 128,-1,64
 1116 558 1116 558 1213.5 708.5 c 128,-1,65
 1311 859 1311 859 1477 935 c 0,66,67
 1573 978 1573 978 1654 984 c 0,68,69
 1967 1006 1967 1006 2135 804 c 0,70,71
 2257 657 2257 657 2261.5 458 c 128,-1,72
 2266 259 2266 259 2183 126 c 0,73,74
 2084 -30 2084 -30 1926 -17 c 0,75,76
 1697 1 1697 1 1620 205 c 0,77,78
 1562 357 1562 357 1621 553 c 0,79,80
 1645 640 1645 640 1708 705 c 0,81,82
 1798 800 1798 800 1912 816 c 1,16,17
EndSplineSet
EndChar

StartChar: ch3xx.ref1
Encoding: 65555 -1 225
Width: 2048
GlyphClass: 2
Flags: W
LayerCount: 2
Fore
SplineSet
277 710 m 1,0,1
 297 722 297 722 345 717.5 c 128,-1,2
 393 713 393 713 458 681 c 0,3,4
 573 624 573 624 635.5 509 c 128,-1,5
 698 394 698 394 676 274.5 c 128,-1,6
 654 155 654 155 548 67 c 128,-1,7
 442 -21 442 -21 326 -2 c 0,8,9
 188 21 188 21 132 183 c 0,10,11
 85 317 85 317 107 534 c 0,12,13
 135 821 135 821 282 935 c 0,14,15
 412 1035 412 1035 563 971 c 0,16,17
 773 883 773 883 877 596 c 1,18,19
 922 744 922 744 993 845 c 0,20,21
 1111 1011 1111 1011 1271 1008 c 0,22,23
 1406 1006 1406 1006 1504.5 882 c 128,-1,24
 1603 758 1603 758 1598 570 c 0,25,26
 1590 265 1590 265 1303 0 c 1,27,28
 1508 62 1508 62 1623 -12 c 128,-1,29
 1738 -86 1738 -86 1741 -214 c 128,-1,30
 1744 -342 1744 -342 1665 -433 c 0,31,32
 1566 -547 1566 -547 1403.5 -525 c 128,-1,33
 1241 -503 1241 -503 1064 -303 c 0,34,35
 1041 -277 1041 -277 1050 -244 c 1,36,37
 994 -269 994 -269 973 -281 c 0,38,39
 845 -352 845 -352 775 -348 c 0,40,41
 726 -345 726 -345 725.5 -289 c 128,-1,42
 725 -233 725 -233 765 -203.5 c 128,-1,43
 805 -174 805 -174 867.5 -140.5 c 128,-1,44
 930 -107 930 -107 958 -89 c 0,45,46
 1164 30 1164 30 1291 173 c 0,47,48
 1462 368 1462 368 1468 573 c 0,49,50
 1472 714 1472 714 1407 795.5 c 128,-1,51
 1342 877 1342 877 1259.5 878.5 c 128,-1,52
 1177 880 1177 880 1091 759 c 0,53,54
 971 590 971 590 940 208 c 1,55,56
 940 124 940 124 931 39 c 0,57,58
 928 13 928 13 906.5 -4 c 128,-1,59
 885 -21 885 -21 859.5 -18 c 128,-1,60
 834 -15 834 -15 817 4 c 128,-1,61
 800 23 800 23 801 48 c 0,62,63
 803 134 803 134 810 213 c 1,64,65
 808 481 808 481 700 669 c 0,66,67
 622 805 622 805 526 844.5 c 128,-1,68
 430 884 430 884 369.5 837.5 c 128,-1,69
 309 791 309 791 277 710 c 1,0,1
1143 -203 m 1,70,71
 1154 -209 1154 -209 1161 -217 c 0,72,73
 1306 -381 1306 -381 1430 -398 c 0,74,75
 1514 -409 1514 -409 1563.5 -352 c 128,-1,76
 1613 -295 1613 -295 1611.5 -226.5 c 128,-1,77
 1610 -158 1610 -158 1561 -127 c 0,78,79
 1471 -69 1471 -69 1272 -149 c 0,80,81
 1222 -169 1222 -169 1143 -203 c 1,70,71
253 630 m 1,82,83
 242 580 242 580 236 521 c 0,84,85
 218 333 218 333 252 234.5 c 128,-1,86
 286 136 286 136 345 126.5 c 128,-1,87
 404 117 404 117 469 171 c 128,-1,88
 534 225 534 225 548 299 c 0,89,90
 569 412 569 412 473 512 c 0,91,92
 408 581 408 581 306 591 c 0,93,94
 269 595 269 595 253 630 c 1,82,83
EndSplineSet
EndChar

StartChar: ch4xx.ref1
Encoding: 65556 -1 226
Width: 2048
GlyphClass: 2
Flags: W
LayerCount: 2
Fore
SplineSet
2103 932 m 1,0,1
 2102 756 2102 756 2116 457 c 1,2,3
 2133 411 2133 411 2156 369 c 0,4,5
 2281 165 2281 165 2442 143 c 0,6,7
 2565 126 2565 126 2675 214.5 c 128,-1,8
 2785 303 2785 303 2831.5 450.5 c 128,-1,9
 2878 598 2878 598 2807 737 c 0,10,11
 2753 843 2753 843 2633 918 c 0,12,13
 2610 932 2610 932 2604.5 958.5 c 128,-1,14
 2599 985 2599 985 2613 1007.5 c 128,-1,15
 2627 1030 2627 1030 2653.5 1036 c 128,-1,16
 2680 1042 2680 1042 2702 1028 c 0,17,18
 2852 934 2852 934 2923 796 c 0,19,20
 3018 609 3018 609 2952 399 c 0,21,22
 2898 226 2898 226 2750.5 107.5 c 128,-1,23
 2603 -11 2603 -11 2424 14 c 0,24,25
 2202 45 2202 45 2044 303 c 0,26,27
 2042 306 2042 306 2041 309 c 1,28,29
 1963 145 1963 145 1817.5 64.5 c 128,-1,30
 1672 -16 1672 -16 1534 16.5 c 128,-1,31
 1396 49 1396 49 1346 176 c 0,32,33
 1278 348 1278 348 1421 602 c 1,34,35
 1457 700 1457 700 1445.5 754.5 c 128,-1,36
 1434 809 1434 809 1396 842 c 0,37,38
 1325 902 1325 902 1188.5 891 c 128,-1,39
 1052 880 1052 880 928 801 c 1,40,41
 1027 654 1027 654 1035 446 c 0,42,43
 1046 151 1046 151 927 48 c 0,44,45
 881 8 881 8 822 3.5 c 128,-1,46
 763 -1 763 -1 709 29 c 0,47,48
 612 80 612 80 559.5 205 c 128,-1,49
 507 330 507 330 542 473 c 0,50,51
 592 676 592 676 740 818 c 1,52,53
 677 869 677 869 596 888 c 0,54,55
 474 917 474 917 371 859 c 128,-1,56
 268 801 268 801 239 671 c 0,57,58
 191 449 191 449 383 120 c 0,59,60
 396 97 396 97 389.5 71 c 128,-1,61
 383 45 383 45 360 31.5 c 128,-1,62
 337 18 337 18 310.5 25 c 128,-1,63
 284 32 284 32 271 55 c 0,64,65
 54 427 54 427 112 698 c 0,66,67
 153 886 153 886 303.5 970.5 c 128,-1,68
 454 1055 454 1055 626 1014 c 0,69,70
 751 985 751 985 843 900 c 1,71,72
 1000 1006 1000 1006 1184.5 1021.5 c 128,-1,73
 1369 1037 1369 1037 1480 941 c 0,74,75
 1549 881 1549 881 1570.5 783 c 128,-1,76
 1592 685 1592 685 1541 552 c 0,77,78
 1539 547 1539 547 1537 543 c 0,79,80
 1422 340 1422 340 1467 224 c 0,81,82
 1492 160 1492 160 1572.5 141 c 128,-1,83
 1653 122 1653 122 1752 177 c 0,84,85
 1896 257 1896 257 1952 439 c 1,86,87
 1972 768 1972 768 1973 935 c 0,88,89
 1975 961 1975 961 1994 979 c 128,-1,90
 2013 997 2013 997 2044 997 c 128,-1,91
 2075 997 2075 997 2093 966 c 1,92,-1
 2103 932 l 1,0,1
826 720 m 1,93,94
 709 606 709 606 668 442 c 0,95,96
 643 341 643 341 679 257 c 128,-1,97
 715 173 715 173 770 143 c 0,98,99
 798 129 798 129 811.5 130.5 c 128,-1,100
 825 132 825 132 849 152.5 c 128,-1,101
 873 173 873 173 891.5 246.5 c 128,-1,102
 910 320 910 320 904.5 463 c 128,-1,103
 899 606 899 606 826 720 c 1,93,94
EndSplineSet
EndChar

StartChar: njxx.ref1
Encoding: 65557 -1 227
Width: 2048
GlyphClass: 2
Flags: W
LayerCount: 2
Fore
SplineSet
749 35 m 1,0,1
 726 256 726 256 747 432 c 1,2,3
 722 670 722 670 631 796 c 0,4,5
 561 893 561 893 478.5 891.5 c 128,-1,6
 396 890 396 890 322 797.5 c 128,-1,7
 248 705 248 705 235 540 c 1,8,9
 328 597 328 597 420 557 c 0,10,11
 561 495 561 495 576 299 c 0,12,13
 576 297 576 297 576 295 c 0,14,15
 580 141 580 141 493 53 c 128,-1,16
 406 -35 406 -35 296.5 -5 c 128,-1,17
 187 25 187 25 138.5 163.5 c 128,-1,18
 90 302 90 302 103 499 c 1,19,20
 109 739 109 739 220.5 878.5 c 128,-1,21
 332 1018 332 1018 480 1022 c 128,-1,22
 628 1026 628 1026 737 872 c 0,23,24
 784 806 784 806 817 718 c 1,25,26
 902 929 902 929 1048 999 c 0,27,28
 1216 1079 1216 1079 1366 946 c 1,29,30
 1522 1060 1522 1060 1698 1035 c 128,-1,31
 1874 1010 1874 1010 1993.5 874.5 c 128,-1,32
 2113 739 2113 739 2093 534 c 0,33,34
 2066 268 2066 268 1787 8 c 0,35,36
 1768 -10 1768 -10 1740.5 -9 c 128,-1,37
 1713 -8 1713 -8 1695 11.5 c 128,-1,38
 1677 31 1677 31 1677.5 58 c 128,-1,39
 1678 85 1678 85 1698 103 c 0,40,41
 1941 330 1941 330 1963 547 c 0,42,43
 1978 695 1978 695 1893 791.5 c 128,-1,44
 1808 888 1808 888 1684 905.5 c 128,-1,45
 1560 923 1560 923 1450 847 c 1,46,47
 1549 696 1549 696 1593 429 c 1,48,49
 1615 197 1615 197 1509 80 c 0,50,51
 1423 -14 1423 -14 1309 8.5 c 128,-1,52
 1195 31 1195 31 1132.5 148.5 c 128,-1,53
 1070 266 1070 266 1094 441 c 1,54,55
 1139 704 1139 704 1270 857 c 1,56,57
 1188 923 1188 923 1104 882 c 0,58,59
 964 814 964 814 899 550 c 0,60,61
 885 493 885 493 877 431 c 1,62,63
 893 257 893 257 877 46 c 0,64,65
 875 20 875 20 854.5 2 c 128,-1,66
 834 -16 834 -16 812 -14 c 0,67,68
 768 -11 768 -11 749 35 c 1,0,1
234 327 m 1,69,70
 241 264 241 264 257 216 c 0,71,72
 286 132 286 132 334 120 c 0,73,74
 365 109 365 109 406.5 151 c 128,-1,75
 448 193 448 193 446 290 c 1,76,77
 436 408 436 408 367 438 c 0,78,79
 342 449 342 449 308.5 432 c 128,-1,80
 275 415 275 415 266 378 c 128,-1,81
 257 341 257 341 234 327 c 1,69,70
1354 755 m 1,82,83
 1258 632 1258 632 1223 422 c 0,84,85
 1205 290 1205 290 1243 218.5 c 128,-1,86
 1281 147 1281 147 1328.5 137.5 c 128,-1,87
 1376 128 1376 128 1412 167 c 0,88,89
 1479 241 1479 241 1464 412 c 1,90,91
 1428 628 1428 628 1354 755 c 1,82,83
EndSplineSet
EndChar

StartChar: t1xx.ref1
Encoding: 65558 -1 228
Width: 2048
GlyphClass: 2
Flags: W
LayerCount: 2
Fore
SplineSet
958 358.5 m 128,-1,1
 958 322 958 322 955 278 c 128,-1,2
 952 234 952 234 910.5 166.5 c 128,-1,3
 869 99 869 99 808 61.5 c 128,-1,4
 747 24 747 24 674.5 6 c 128,-1,5
 602 -12 602 -12 528.5 -10 c 128,-1,6
 455 -8 455 -8 384.5 10.5 c 128,-1,7
 314 29 314 29 255 63.5 c 128,-1,8
 196 98 196 98 154.5 154 c 128,-1,9
 113 210 113 210 109 257.5 c 128,-1,10
 105 305 105 305 123 325.5 c 128,-1,11
 141 346 141 346 167.5 348 c 128,-1,12
 194 350 194 350 214.5 332.5 c 128,-1,13
 235 315 235 315 237 286 c 128,-1,14
 239 257 239 257 261.5 227 c 128,-1,15
 284 197 284 197 324 173.5 c 128,-1,16
 364 150 364 150 419 135.5 c 128,-1,17
 474 121 474 121 531 119.5 c 128,-1,18
 588 118 588 118 642 131.5 c 128,-1,19
 696 145 696 145 735.5 169 c 128,-1,20
 775 193 775 193 799.5 233.5 c 128,-1,21
 824 274 824 274 826 319.5 c 128,-1,22
 828 365 828 365 813.5 393.5 c 128,-1,23
 799 422 799 422 767 444 c 128,-1,24
 735 466 735 466 688 483 c 128,-1,25
 641 500 641 500 574.5 509.5 c 128,-1,26
 508 519 508 519 438 522.5 c 128,-1,27
 368 526 368 526 303.5 525.5 c 128,-1,28
 239 525 239 525 190 538 c 128,-1,29
 141 551 141 551 114 599 c 128,-1,30
 87 647 87 647 112 727 c 128,-1,31
 137 807 137 807 262 907 c 128,-1,32
 387 1007 387 1007 512.5 1018 c 128,-1,33
 638 1029 638 1029 720.5 982 c 128,-1,34
 803 935 803 935 853 839 c 0,35,36
 865 815 865 815 857.5 789 c 128,-1,37
 850 763 850 763 826 751 c 128,-1,38
 802 739 802 739 776.5 747 c 128,-1,39
 751 755 751 755 727 800 c 128,-1,40
 703 845 703 845 657.5 871 c 128,-1,41
 612 897 612 897 525 889 c 128,-1,42
 438 881 438 881 343.5 805.5 c 128,-1,43
 249 730 249 730 239.5 698.5 c 128,-1,44
 230 667 230 667 229 663 c 1,45,46
 233 661 233 661 244 658 c 128,-1,47
 255 655 255 655 312.5 655.5 c 128,-1,48
 370 656 370 656 445 652.5 c 128,-1,49
 520 649 520 649 596.5 638 c 128,-1,50
 673 627 673 627 734 604.5 c 128,-1,51
 795 582 795 582 847.5 546 c 128,-1,52
 900 510 900 510 929 452.5 c 128,-1,0
 958 395 958 395 958 358.5 c 128,-1,1
EndSplineSet
EndChar

StartChar: t2xx.ref1
Encoding: 65559 -1 229
Width: 2048
GlyphClass: 2
Flags: W
LayerCount: 2
Fore
SplineSet
819 789 m 1,0,1
 782 773 782 773 751 799 c 0,2,3
 677 861 677 861 595 866 c 0,4,5
 479 874 479 874 374 781 c 128,-1,6
 269 688 269 688 229 550 c 128,-1,7
 189 412 189 412 255 304 c 0,8,9
 347 153 347 153 626 126 c 0,10,11
 734 115 734 115 827 196.5 c 128,-1,12
 920 278 920 278 956 404 c 0,13,14
 993 530 993 530 945 647 c 0,15,16
 911 731 911 731 819 789 c 1,0,1
754 953 m 1,17,18
 772 956 772 956 788 949 c 0,19,20
 890 909 890 909 962 843 c 0,21,22
 1092 721 1092 721 1100 547 c 128,-1,23
 1108 373 1108 373 1016 222 c 0,24,25
 923 72 923 72 775 18 c 0,26,27
 696 -11 696 -11 614 -3 c 0,28,29
 270 31 270 31 144 237 c 0,30,31
 48 394 48 394 101.5 577 c 128,-1,32
 155 760 155 760 294 884 c 128,-1,33
 433 1008 433 1008 604 996 c 0,34,35
 682 991 682 991 754 953 c 1,17,18
EndSplineSet
EndChar

StartChar: t4xx.ref1
Encoding: 65560 -1 230
Width: 2048
GlyphClass: 2
Flags: W
LayerCount: 2
Fore
SplineSet
1349 600 m 1,0,1
 1370 507 1370 507 1415 420 c 0,2,3
 1500 256 1500 256 1636 171.5 c 128,-1,4
 1772 87 1772 87 1893.5 115.5 c 128,-1,5
 2015 144 2015 144 2080 298 c 0,6,7
 2119 389 2119 389 2132 518 c 0,8,9
 2133 536 2133 536 2133 553 c 1,10,11
 2075 506 2075 506 1995 489 c 0,12,13
 1870 463 1870 463 1762 534 c 128,-1,14
 1654 605 1654 605 1648 783 c 0,15,16
 1645 870 1645 870 1694 929 c 0,17,18
 1768 1017 1768 1017 1902 993 c 128,-1,19
 2036 969 2036 969 2127.5 872 c 128,-1,20
 2219 775 2219 775 2242.5 682.5 c 128,-1,21
 2266 590 2266 590 2262 508 c 1,22,23
 2247 357 2247 357 2200 247 c 0,24,25
 2109 33 2109 33 1929.5 -9.5 c 128,-1,26
 1750 -52 1750 -52 1585 50.5 c 128,-1,27
 1420 153 1420 153 1323 318 c 1,28,29
 1316 284 1316 284 1288.5 202 c 128,-1,30
 1261 120 1261 120 1228 84 c 128,-1,31
 1195 48 1195 48 1158 19 c 0,32,33
 1071 -48 1071 -48 912 -21 c 128,-1,34
 753 6 753 6 700.5 119 c 128,-1,35
 648 232 648 232 683 420 c 0,36,37
 687 443 687 443 695.5 483.5 c 128,-1,38
 704 524 704 524 707 542 c 0,39,40
 750 782 750 782 624 842 c 0,41,42
 591 858 591 858 544 856 c 0,43,44
 443 852 443 852 346.5 768.5 c 128,-1,45
 250 685 250 685 233 546 c 0,46,47
 206 328 206 328 414 80 c 0,48,49
 431 59 431 59 428.5 32 c 128,-1,50
 426 5 426 5 405.5 -12 c 128,-1,51
 385 -29 385 -29 358 -26.5 c 128,-1,52
 331 -24 331 -24 314 -4 c 0,53,54
 71 287 71 287 104 562 c 0,55,56
 127 750 127 750 259.5 865 c 128,-1,57
 392 980 392 980 544.5 986.5 c 128,-1,58
 697 993 697 993 786.5 869 c 128,-1,59
 876 745 876 745 835 519 c 0,60,61
 831 500 831 500 823 459 c 0,62,63
 782 253 782 253 812 188 c 128,-1,64
 842 123 842 123 939 106 c 128,-1,65
 1036 89 1036 89 1071.5 116.5 c 128,-1,66
 1107 144 1107 144 1128.5 167.5 c 128,-1,67
 1150 191 1150 191 1180.5 289.5 c 128,-1,68
 1211 388 1211 388 1218 588 c 1,69,70
 1184 754 1184 754 1215 934 c 0,71,72
 1218 956 1218 956 1236 971.5 c 128,-1,73
 1254 987 1254 987 1279 988 c 128,-1,74
 1304 989 1304 989 1323.5 970 c 128,-1,75
 1343 951 1343 951 1343.5 929 c 128,-1,76
 1344 907 1344 907 1347.5 790.5 c 128,-1,77
 1351 674 1351 674 1349 600 c 1,0,1
2095 700 m 1,78,79
 2074 739 2074 739 2042 773 c 0,80,81
 1971 849 1971 849 1895 862.5 c 128,-1,82
 1819 876 1819 876 1798 850.5 c 128,-1,83
 1777 825 1777 825 1778.5 776.5 c 128,-1,84
 1780 728 1780 728 1798 691 c 128,-1,85
 1816 654 1816 654 1839 639 c 0,86,87
 1896 601 1896 601 1969 616.5 c 128,-1,88
 2042 632 2042 632 2078 683 c 0,89,90
 2085 693 2085 693 2095 700 c 1,78,79
EndSplineSet
EndChar

StartChar: nhxx.ref1
Encoding: 65561 -1 231
Width: 2048
GlyphClass: 2
Flags: W
LayerCount: 2
Fore
SplineSet
939 683 m 1,0,1
 955 727 955 727 973 767 c 0,2,3
 1063 967 1063 967 1196 1033 c 0,4,5
 1266 1068 1266 1068 1336 1057 c 128,-1,6
 1406 1046 1406 1046 1485 972 c 128,-1,7
 1564 898 1564 898 1603 694 c 1,8,9
 1641 775 1641 775 1690 840 c 0,10,11
 1825 1020 1825 1020 1996.5 1044 c 128,-1,12
 2168 1068 2168 1068 2295 960 c 128,-1,13
 2422 852 2422 852 2441.5 627.5 c 128,-1,14
 2461 403 2461 403 2262 118 c 0,15,16
 2223 62 2223 62 2191.5 24.5 c 128,-1,17
 2160 -13 2160 -13 2133 -15.5 c 128,-1,18
 2106 -18 2106 -18 2085.5 -1 c 128,-1,19
 2065 16 2065 16 2062.5 43 c 128,-1,20
 2060 70 2060 70 2090 106 c 128,-1,21
 2120 142 2120 142 2156 192 c 0,22,23
 2328 439 2328 439 2312.5 613 c 128,-1,24
 2297 787 2297 787 2212.5 859 c 128,-1,25
 2128 931 2128 931 2012 915 c 128,-1,26
 1896 899 1896 899 1803.5 775 c 128,-1,27
 1711 651 1711 651 1675.5 526.5 c 128,-1,28
 1640 402 1640 402 1625 305 c 1,29,30
 1620 188 1620 188 1610 109 c 128,-1,31
 1600 30 1600 30 1578.5 13.5 c 128,-1,32
 1557 -3 1557 -3 1531.5 0 c 128,-1,33
 1506 3 1506 3 1489.5 23 c 128,-1,34
 1473 43 1473 43 1476 121.5 c 128,-1,35
 1479 200 1479 200 1496 318 c 1,36,37
 1499 404 1499 404 1497 456.5 c 128,-1,38
 1495 509 1495 509 1493 536 c 0,39,40
 1472 806 1472 806 1374 898 c 0,41,42
 1344 927 1344 927 1317 931 c 128,-1,43
 1290 935 1290 935 1254 917 c 0,44,45
 1163 872 1163 872 1100.5 734 c 128,-1,46
 1038 596 1038 596 1016.5 471 c 128,-1,47
 995 346 995 346 993.5 264 c 128,-1,48
 992 182 992 182 992 139.5 c 128,-1,49
 992 97 992 97 991.5 67 c 128,-1,50
 991 37 991 37 971.5 18 c 128,-1,51
 952 -1 952 -1 925.5 -0.5 c 128,-1,52
 899 0 899 0 881 19.5 c 128,-1,53
 863 39 863 39 860.5 94 c 128,-1,54
 858 149 858 149 858 253.5 c 128,-1,55
 858 358 858 358 846 463 c 0,56,57
 810 780 810 780 698 888 c 0,58,59
 657 927 657 927 614.5 933 c 128,-1,60
 572 939 572 939 489.5 899.5 c 128,-1,61
 407 860 407 860 337 757.5 c 128,-1,62
 267 655 267 655 245 579 c 1,63,64
 322 645 322 645 405 636.5 c 128,-1,65
 488 628 488 628 544 554 c 128,-1,66
 600 480 600 480 605 392 c 0,67,68
 618 165 618 165 519 57 c 0,69,70
 479 13 479 13 426 -1.5 c 128,-1,71
 373 -16 373 -16 317 3 c 0,72,73
 212 40 212 40 152.5 175.5 c 128,-1,74
 93 311 93 311 101 502 c 0,75,76
 102 516 102 516 103 531 c 0,77,78
 118 667 118 667 218.5 814.5 c 128,-1,79
 319 962 319 962 430.5 1016.5 c 128,-1,80
 542 1071 542 1071 630.5 1060 c 128,-1,81
 719 1049 719 1049 803.5 967 c 128,-1,82
 888 885 888 885 939 683 c 1,0,1
230 440 m 1,83,84
 232 316 232 316 270 230 c 128,-1,85
 308 144 308 144 360 126 c 0,86,87
 379 119 379 119 392.5 122.5 c 128,-1,88
 406 126 406 126 423 145 c 0,89,90
 484 212 484 212 475 384 c 0,91,92
 472 433 472 433 445 468.5 c 128,-1,93
 418 504 418 504 386.5 507.5 c 128,-1,94
 355 511 355 511 323 476 c 128,-1,95
 291 441 291 441 270 436.5 c 128,-1,96
 249 432 249 432 230 440 c 1,83,84
EndSplineSet
EndChar

StartChar: th1xx.ref1
Encoding: 65562 -1 232
Width: 2048
GlyphClass: 2
Flags: W
LayerCount: 2
Fore
SplineSet
540 472 m 0,0,1
 625 684 625 684 749 817 c 1,2,3
 690 858 690 858 617 874 c 0,4,5
 488 904 488 904 382 846 c 0,6,7
 272 787 272 787 241 658 c 0,8,9
 189 439 189 439 379 112 c 0,10,11
 392 89 392 89 385.5 63 c 128,-1,12
 379 37 379 37 356 23.5 c 128,-1,13
 333 10 333 10 306.5 17 c 128,-1,14
 280 24 280 24 267 47 c 0,15,16
 51 419 51 419 115 688 c 0,17,18
 159 874 159 874 320 961 c 0,19,20
 469 1042 469 1042 646 1001 c 0,21,22
 759 975 759 975 848 905 c 1,23,24
 886 933 886 933 925 955 c 0,25,26
 1122 1062 1122 1062 1326 1007 c 0,27,28
 1498 960 1498 960 1600 819 c 0,29,30
 1718 654 1718 654 1679 447 c 0,31,32
 1634 212 1634 212 1392 4 c 0,33,34
 1372 -13 1372 -13 1345 -11 c 128,-1,35
 1318 -9 1318 -9 1300.5 11.5 c 128,-1,36
 1283 32 1283 32 1285 59 c 128,-1,37
 1287 86 1287 86 1308 103 c 0,38,39
 1515 281 1515 281 1551 471 c 0,40,41
 1580 623 1580 623 1494 743 c 0,42,43
 1420 847 1420 847 1292 882 c 0,44,45
 1138 924 1138 924 988 841 c 0,46,47
 964 828 964 828 940 811 c 1,48,49
 943 807 943 807 945 804 c 0,50,51
 1031 689 1031 689 1056 533 c 1,52,53
 1116 265 1116 265 1007 114 c 0,54,55
 969 61 969 61 915 32 c 128,-1,56
 861 3 861 3 798 1 c 0,57,58
 675 -2 675 -2 591 90 c 0,59,60
 486 205 486 205 519 389 c 0,61,62
 525 428 525 428 540 472 c 0,0,1
842 725 m 1,63,64
 737 611 737 611 662 427 c 0,65,66
 652 396 652 396 647 366 c 0,67,68
 625 245 625 245 687 177 c 0,69,70
 731 129 731 129 794 131 c 0,71,72
 829 132 829 132 854.5 146 c 128,-1,73
 880 160 880 160 902 191 c 0,74,75
 977 294 977 294 929 506 c 0,76,77
 929 508 929 508 928 510 c 0,78,79
 909 635 909 635 842 725 c 1,63,64
EndSplineSet
EndChar

StartChar: th2xx.ref1
Encoding: 65563 -1 233
Width: 2048
GlyphClass: 2
Flags: W
LayerCount: 2
Fore
SplineSet
783 129 m 1,0,1
 492 433 492 433 533 699 c 0,2,3
 560 870 560 870 706 965 c 128,-1,4
 852 1060 852 1060 1032.5 1045 c 128,-1,5
 1213 1030 1213 1030 1332 894 c 0,6,7
 1498 704 1498 704 1445 364 c 1,8,9
 1387 67 1387 67 1163 14 c 0,10,11
 1067 -9 1067 -9 972 -6.5 c 128,-1,12
 877 -4 877 -4 734.5 0.5 c 128,-1,13
 592 5 592 5 507 3 c 0,14,15
 255 -5 255 -5 156 187 c 0,16,17
 26 439 26 439 193 986 c 0,18,19
 201 1011 201 1011 225 1024 c 128,-1,20
 249 1037 249 1037 274 1029 c 0,21,22
 336 1010 336 1010 312 929 c 0,23,24
 167 451 167 451 272 246 c 0,25,26
 333 127 333 127 504 132 c 0,27,28
 592 135 592 135 783 129 c 1,0,1
910 125 m 1,29,30
 1119 119 1119 119 1186 159.5 c 128,-1,31
 1253 200 1253 200 1279 261.5 c 128,-1,32
 1305 323 1305 323 1317 387 c 0,33,34
 1359 665 1359 665 1234 808 c 0,35,36
 1149 905 1149 905 1017 916 c 128,-1,37
 885 927 885 927 782 860 c 128,-1,38
 679 793 679 793 662 679 c 0,39,40
 629 467 629 467 897 198 c 0,41,42
 929 166 929 166 910 125 c 1,29,30
EndSplineSet
EndChar

StartChar: th3xx.ref1
Encoding: 65564 -1 234
Width: 2048
GlyphClass: 2
Flags: W
LayerCount: 2
Fore
SplineSet
402 0.5 m 128,-1,1
 384 -19 384 -19 357 -20 c 128,-1,2
 330 -21 330 -21 306.5 0.5 c 128,-1,3
 283 22 283 22 268.5 36 c 128,-1,4
 254 50 254 50 223 86 c 0,5,6
 93 234 93 234 101 430 c 0,7,8
 103 489 103 489 120 552 c 0,9,10
 193 812 193 812 423 938 c 0,11,12
 599 1035 599 1035 788.5 1023.5 c 128,-1,13
 978 1012 978 1012 1053 943 c 0,14,15
 1193 816 1193 816 1107 660 c 0,16,17
 1065 583 1065 583 947 502 c 1,18,19
 1073 473 1073 473 1127 413 c 0,20,21
 1228 301 1228 301 1163 157 c 0,22,23
 1127 78 1127 78 986.5 15 c 128,-1,24
 846 -48 846 -48 656 17 c 0,25,26
 631 26 631 26 618.5 50 c 128,-1,27
 606 74 606 74 614.5 99 c 128,-1,28
 623 124 623 124 647.5 136 c 128,-1,29
 672 148 672 148 697 140 c 0,30,31
 839 92 839 92 934 134 c 128,-1,32
 1029 176 1029 176 1047 217 c 0,33,34
 1074 277 1074 277 1035 320 c 0,35,36
 1010 348 1010 348 933.5 370 c 128,-1,37
 857 392 857 392 788 392 c 128,-1,38
 719 392 719 392 703 402 c 128,-1,39
 687 412 687 412 677 432 c 128,-1,40
 667 452 667 452 676 478 c 128,-1,41
 685 504 685 504 755.5 538 c 128,-1,42
 826 572 826 572 899 628 c 128,-1,43
 972 684 972 684 994.5 725.5 c 128,-1,44
 1017 767 1017 767 1014 786.5 c 128,-1,45
 1011 806 1011 806 967.5 845.5 c 128,-1,46
 924 885 924 885 776.5 894 c 128,-1,47
 629 903 629 903 466 813.5 c 128,-1,48
 303 724 303 724 245 517 c 0,49,50
 232 470 232 470 230 424 c 0,51,52
 224 255 224 255 396 95 c 0,53,54
 419 74 419 74 419.5 47 c 128,-1,0
 420 20 420 20 402 0.5 c 128,-1,1
EndSplineSet
EndChar

StartChar: th4xx.ref1
Encoding: 65565 -1 235
Width: 2048
GlyphClass: 2
Flags: W
LayerCount: 2
Fore
SplineSet
893 942 m 1,0,1
 891 883 891 883 888 834 c 0,2,3
 885 707 885 707 895 600 c 0,4,5
 910 448 910 448 950 335 c 0,6,7
 1009 172 1009 172 1102 133 c 0,8,9
 1135 118 1135 118 1166 122.5 c 128,-1,10
 1197 127 1197 127 1232 154 c 0,11,12
 1315 218 1315 218 1347 364 c 0,13,14
 1397 597 1397 597 1281 896 c 0,15,16
 1271 920 1271 920 1282 945 c 128,-1,17
 1293 970 1293 970 1318 980 c 128,-1,18
 1343 990 1343 990 1367.5 979 c 128,-1,19
 1392 968 1392 968 1402 943 c 0,20,21
 1533 608 1533 608 1474 337 c 0,22,23
 1432 144 1432 144 1311 51 c 0,24,25
 1252 6 1252 6 1185 -4.5 c 128,-1,26
 1118 -15 1118 -15 1051 13 c 0,27,28
 906 74 906 74 828 291 c 0,29,30
 814 330 814 330 803 373 c 1,31,32
 767 274 767 274 717 196 c 0,33,34
 606 25 606 25 455 2 c 0,35,36
 386 -9 386 -9 323.5 15.5 c 128,-1,37
 261 40 261 40 212 95 c 0,38,39
 101 219 101 219 103 438 c 0,40,41
 105 691 105 691 263 983 c 0,42,43
 276 1006 276 1006 302 1013.5 c 128,-1,44
 328 1021 328 1021 351.5 1008.5 c 128,-1,45
 375 996 375 996 382.5 970 c 128,-1,46
 390 944 390 944 377 921 c 0,47,48
 235 658 235 658 233 437 c 0,49,50
 232 268 232 268 309 182 c 0,51,52
 339 148 339 148 368.5 136.5 c 128,-1,53
 398 125 398 125 436 131 c 0,54,55
 528 145 528 145 608 267 c 0,56,57
 692 398 692 398 731 608 c 0,58,59
 751 714 751 714 758 839 c 0,60,61
 759 889 759 889 763 941 c 0,62,63
 764 967 764 967 784.5 985 c 128,-1,64
 805 1003 805 1003 831 1002 c 0,65,66
 853 1000 853 1000 870.5 982.5 c 128,-1,67
 888 965 888 965 893 942 c 1,0,1
EndSplineSet
EndChar

StartChar: n1xx.ref1
Encoding: 65566 -1 236
Width: 2048
GlyphClass: 2
Flags: W
LayerCount: 2
Fore
SplineSet
279.5 -6 m 128,-1,1
 255 -16 255 -16 230 -5.5 c 128,-1,2
 205 5 205 5 195 30 c 0,3,4
 60 358 60 358 117 628 c 0,5,6
 158 823 158 823 284 920 c 0,7,8
 344 967 344 967 412.5 980 c 128,-1,9
 481 993 481 993 552 969 c 0,10,11
 702 916 702 916 789 714 c 0,12,13
 808 670 808 670 824 620 c 1,14,15
 865 735 865 735 930 817 c 0,16,17
 1060 984 1060 984 1249 986 c 0,18,19
 1405 987 1405 987 1530 875 c 0,20,21
 1657 761 1657 761 1677 592 c 0,22,23
 1703 368 1703 368 1524 165 c 0,24,25
 1439 69 1439 69 1312 -14 c 0,26,27
 1290 -28 1290 -28 1263.5 -22.5 c 128,-1,28
 1237 -17 1237 -17 1222.5 5.5 c 128,-1,29
 1208 28 1208 28 1213.5 54.5 c 128,-1,30
 1219 81 1219 81 1241 95 c 0,31,32
 1354 169 1354 169 1427 251 c 0,33,34
 1568 410 1568 410 1548 576 c 0,35,36
 1534 697 1534 697 1443 779 c 0,37,38
 1356 857 1356 857 1250 856 c 0,39,40
 1124 854 1124 854 1032 737 c 0,41,42
 940 619 940 619 903 411 c 0,43,44
 888 321 888 321 882 214 c 1,45,46
 884 133 884 133 881 44 c 0,47,48
 880 17 880 17 860 -1.5 c 128,-1,49
 840 -20 840 -20 813 -19 c 0,50,51
 787 -17 787 -17 769 2.5 c 128,-1,52
 751 22 751 22 751 45 c 0,53,54
 749 134 749 134 752 216 c 1,55,56
 749 323 749 323 736 414 c 0,57,58
 716 557 716 557 670 662 c 0,59,60
 605 812 605 812 509 846 c 0,61,62
 471 860 471 860 436 853.5 c 128,-1,63
 401 847 401 847 364 818 c 0,64,65
 276 749 276 749 244 601 c 0,66,67
 195 370 195 370 315 79 c 0,68,69
 325 55 325 55 314.5 29.5 c 128,-1,0
 304 4 304 4 279.5 -6 c 128,-1,1
EndSplineSet
EndChar

